G04*
G04 #@! TF.GenerationSoftware,Altium Limited,Altium Designer,21.6.4 (81)*
G04*
G04 Layer_Color=255*
%FSLAX44Y44*%
%MOMM*%
G71*
G04*
G04 #@! TF.SameCoordinates,8A05593B-3552-4C3B-B2EF-5CC55372FEEF*
G04*
G04*
G04 #@! TF.FilePolarity,Positive*
G04*
G01*
G75*
%ADD14R,0.7800X0.6000*%
%ADD15R,0.7000X0.7800*%
%ADD16R,0.5500X0.9500*%
%ADD17R,0.9500X0.5500*%
%ADD18R,1.5500X0.6000*%
%ADD19R,1.8000X1.2000*%
%ADD20R,0.8500X0.5000*%
%ADD21R,0.6000X1.5500*%
%ADD22R,1.2000X1.8000*%
%ADD23R,0.6000X0.7800*%
%ADD24R,1.6300X1.4300*%
%ADD25R,0.7000X0.3500*%
%ADD26R,0.7800X0.7000*%
%ADD27R,1.3000X0.4500*%
%ADD28R,0.9000X1.0000*%
%ADD51C,1.4000*%
%ADD52C,1.8000*%
%ADD53C,0.8000*%
%ADD54O,1.8000X1.1500*%
%ADD55O,2.0000X1.4000*%
D14*
X134000Y81000D02*
D03*
Y71000D02*
D03*
X233000Y46000D02*
D03*
Y56000D02*
D03*
X205000Y52000D02*
D03*
Y42000D02*
D03*
X154000Y55000D02*
D03*
Y45000D02*
D03*
X142000Y55000D02*
D03*
Y45000D02*
D03*
X120000Y106000D02*
D03*
Y96000D02*
D03*
X108000Y106000D02*
D03*
Y96000D02*
D03*
X91000Y106000D02*
D03*
Y96000D02*
D03*
X79000Y106000D02*
D03*
Y96000D02*
D03*
D15*
X164000Y123000D02*
D03*
X154000D02*
D03*
X189000Y133000D02*
D03*
X179000D02*
D03*
X254000Y134000D02*
D03*
X244000D02*
D03*
X181000Y80000D02*
D03*
X191000D02*
D03*
D16*
X226000Y132900D02*
D03*
X208000D02*
D03*
X217000Y109100D02*
D03*
D17*
X207100Y82000D02*
D03*
X230900Y91000D02*
D03*
Y73000D02*
D03*
D18*
X250250Y46000D02*
D03*
Y56000D02*
D03*
D19*
X289000Y33000D02*
D03*
Y69000D02*
D03*
D20*
X190500Y54500D02*
D03*
Y41500D02*
D03*
X169500D02*
D03*
Y48000D02*
D03*
Y54500D02*
D03*
D21*
X93000Y49750D02*
D03*
X103000D02*
D03*
D22*
X80000Y11000D02*
D03*
X116000D02*
D03*
D23*
X93000Y67000D02*
D03*
X103000D02*
D03*
D24*
X150000Y100000D02*
D03*
D25*
X164500Y92500D02*
D03*
Y97500D02*
D03*
Y102500D02*
D03*
Y107500D02*
D03*
X135500Y92500D02*
D03*
Y97500D02*
D03*
Y102500D02*
D03*
Y107500D02*
D03*
D26*
X91000Y122000D02*
D03*
Y132000D02*
D03*
D27*
X60000Y87000D02*
D03*
X60000Y93500D02*
D03*
Y100000D02*
D03*
Y106500D02*
D03*
Y113000D02*
D03*
D28*
X27750Y161000D02*
D03*
X44250D02*
D03*
D51*
X251000Y164000D02*
D03*
X181000D02*
D03*
X193500Y189000D02*
D03*
X238500D02*
D03*
D52*
X284000Y103000D02*
D03*
Y128400D02*
D03*
D53*
X49000Y75000D02*
D03*
Y125000D02*
D03*
D54*
X21500Y61250D02*
D03*
Y138750D02*
D03*
D55*
X59500Y62750D02*
D03*
Y137250D02*
D03*
M02*
