G04*
G04 #@! TF.GenerationSoftware,Altium Limited,Altium Designer,21.6.4 (81)*
G04*
G04 Layer_Color=65535*
%FSLAX44Y44*%
%MOMM*%
G71*
G04*
G04 #@! TF.SameCoordinates,8A05593B-3552-4C3B-B2EF-5CC55372FEEF*
G04*
G04*
G04 #@! TF.FilePolarity,Positive*
G04*
G01*
G75*
%ADD10C,0.2500*%
%ADD11C,0.1000*%
%ADD12C,0.2000*%
%ADD13C,0.2540*%
G36*
X214043Y11890D02*
X213434D01*
Y12441D01*
X214043D01*
Y11890D01*
D02*
G37*
G36*
X162111D02*
X161502D01*
Y12441D01*
X162111D01*
Y11890D01*
D02*
G37*
G36*
X174780Y8198D02*
X174249D01*
Y8516D01*
X174242Y8509D01*
X174229Y8496D01*
X174203Y8477D01*
X174171Y8457D01*
X174100Y8399D01*
X174028Y8341D01*
X174022D01*
X174015Y8328D01*
X173996Y8315D01*
X173970Y8302D01*
X173899Y8263D01*
X173815Y8218D01*
X173808D01*
X173795Y8211D01*
X173776Y8205D01*
X173743Y8192D01*
X173672Y8166D01*
X173581Y8140D01*
X173575D01*
X173562Y8134D01*
X173536Y8127D01*
X173497D01*
X173458Y8120D01*
X173407Y8114D01*
X173296Y8108D01*
X173251D01*
X173206Y8114D01*
X173141Y8120D01*
X173063Y8134D01*
X172985Y8153D01*
X172901Y8179D01*
X172817Y8211D01*
X172811Y8218D01*
X172778Y8231D01*
X172739Y8256D01*
X172687Y8295D01*
X172629Y8334D01*
X172565Y8393D01*
X172500Y8457D01*
X172441Y8529D01*
X172435Y8535D01*
X172416Y8567D01*
X172390Y8613D01*
X172351Y8671D01*
X172312Y8742D01*
X172273Y8833D01*
X172234Y8930D01*
X172202Y9040D01*
Y9047D01*
X172195Y9053D01*
Y9073D01*
X172189Y9099D01*
X172176Y9157D01*
X172163Y9247D01*
X172143Y9351D01*
X172131Y9474D01*
X172124Y9610D01*
X172118Y9753D01*
Y9759D01*
Y9772D01*
Y9792D01*
Y9824D01*
X172124Y9856D01*
Y9902D01*
X172131Y9999D01*
X172143Y10109D01*
X172163Y10232D01*
X172189Y10355D01*
X172221Y10472D01*
Y10478D01*
X172228Y10485D01*
X172241Y10524D01*
X172267Y10582D01*
X172299Y10653D01*
X172344Y10737D01*
X172396Y10821D01*
X172454Y10912D01*
X172519Y11003D01*
X172526Y11009D01*
X172551Y11035D01*
X172590Y11074D01*
X172636Y11119D01*
X172701Y11171D01*
X172772Y11229D01*
X172850Y11281D01*
X172940Y11327D01*
X172953Y11333D01*
X172985Y11346D01*
X173031Y11365D01*
X173096Y11391D01*
X173173Y11411D01*
X173264Y11430D01*
X173361Y11443D01*
X173458Y11450D01*
X173542D01*
X173601Y11443D01*
X173666Y11437D01*
X173737Y11424D01*
X173873Y11391D01*
X173879D01*
X173905Y11385D01*
X173938Y11372D01*
X173983Y11353D01*
X174041Y11327D01*
X174106Y11301D01*
X174249Y11229D01*
Y12603D01*
X174780D01*
Y8198D01*
D02*
G37*
G36*
X198408Y11443D02*
X198447D01*
X198492Y11437D01*
X198596Y11411D01*
X198712Y11372D01*
X198835Y11320D01*
X198952Y11242D01*
X199010Y11191D01*
X199062Y11139D01*
Y11132D01*
X199075Y11126D01*
X199088Y11106D01*
X199101Y11080D01*
X199127Y11048D01*
X199146Y11009D01*
X199172Y10964D01*
X199198Y10912D01*
X199217Y10854D01*
X199243Y10789D01*
X199269Y10718D01*
X199289Y10634D01*
X199301Y10549D01*
X199314Y10459D01*
X199327Y10355D01*
Y10251D01*
Y8198D01*
X198796D01*
Y9999D01*
Y10012D01*
Y10038D01*
Y10077D01*
Y10128D01*
X198790Y10193D01*
X198783Y10258D01*
X198770Y10400D01*
Y10407D01*
X198764Y10433D01*
Y10465D01*
X198751Y10510D01*
X198732Y10614D01*
X198712Y10660D01*
X198693Y10705D01*
Y10711D01*
X198680Y10724D01*
X198667Y10750D01*
X198647Y10776D01*
X198589Y10834D01*
X198511Y10886D01*
X198505D01*
X198492Y10893D01*
X198466Y10906D01*
X198427Y10919D01*
X198382Y10925D01*
X198330Y10938D01*
X198265Y10944D01*
X198162D01*
X198116Y10938D01*
X198064Y10932D01*
X198006Y10919D01*
X197935Y10899D01*
X197857Y10873D01*
X197779Y10834D01*
X197773Y10828D01*
X197747Y10815D01*
X197702Y10796D01*
X197650Y10763D01*
X197592Y10724D01*
X197520Y10673D01*
X197449Y10621D01*
X197371Y10556D01*
Y8198D01*
X196840D01*
Y11359D01*
X197371D01*
Y11009D01*
X197384Y11016D01*
X197410Y11042D01*
X197456Y11080D01*
X197520Y11132D01*
X197585Y11184D01*
X197669Y11236D01*
X197754Y11288D01*
X197838Y11333D01*
X197851Y11340D01*
X197877Y11353D01*
X197928Y11372D01*
X197987Y11391D01*
X198058Y11411D01*
X198142Y11430D01*
X198233Y11443D01*
X198330Y11450D01*
X198375D01*
X198408Y11443D01*
D02*
G37*
G36*
X167623D02*
X167661D01*
X167707Y11437D01*
X167810Y11411D01*
X167927Y11372D01*
X168050Y11320D01*
X168167Y11242D01*
X168225Y11191D01*
X168277Y11139D01*
Y11132D01*
X168290Y11126D01*
X168303Y11106D01*
X168316Y11080D01*
X168342Y11048D01*
X168361Y11009D01*
X168387Y10964D01*
X168413Y10912D01*
X168432Y10854D01*
X168458Y10789D01*
X168484Y10718D01*
X168503Y10634D01*
X168516Y10549D01*
X168529Y10459D01*
X168542Y10355D01*
Y10251D01*
Y8198D01*
X168011D01*
Y9999D01*
Y10012D01*
Y10038D01*
Y10077D01*
Y10128D01*
X168005Y10193D01*
X167998Y10258D01*
X167985Y10400D01*
Y10407D01*
X167979Y10433D01*
Y10465D01*
X167966Y10510D01*
X167946Y10614D01*
X167927Y10660D01*
X167908Y10705D01*
Y10711D01*
X167895Y10724D01*
X167882Y10750D01*
X167862Y10776D01*
X167804Y10834D01*
X167726Y10886D01*
X167720D01*
X167707Y10893D01*
X167681Y10906D01*
X167642Y10919D01*
X167597Y10925D01*
X167545Y10938D01*
X167480Y10944D01*
X167376D01*
X167331Y10938D01*
X167279Y10932D01*
X167221Y10919D01*
X167150Y10899D01*
X167072Y10873D01*
X166994Y10834D01*
X166988Y10828D01*
X166962Y10815D01*
X166917Y10796D01*
X166865Y10763D01*
X166806Y10724D01*
X166735Y10673D01*
X166664Y10621D01*
X166586Y10556D01*
Y8198D01*
X166055D01*
Y11359D01*
X166586D01*
Y11009D01*
X166599Y11016D01*
X166625Y11042D01*
X166670Y11080D01*
X166735Y11132D01*
X166800Y11184D01*
X166884Y11236D01*
X166968Y11288D01*
X167052Y11333D01*
X167066Y11340D01*
X167091Y11353D01*
X167143Y11372D01*
X167201Y11391D01*
X167273Y11411D01*
X167357Y11430D01*
X167448Y11443D01*
X167545Y11450D01*
X167590D01*
X167623Y11443D01*
D02*
G37*
G36*
X160032Y11430D02*
X160096D01*
X160174Y11417D01*
X160265Y11404D01*
X160362Y11391D01*
X160459Y11365D01*
X160472D01*
X160504Y11353D01*
X160556Y11340D01*
X160621Y11320D01*
X160692Y11301D01*
X160763Y11268D01*
X160841Y11236D01*
X160912Y11204D01*
Y10640D01*
X160880D01*
X160874Y10647D01*
X160848Y10666D01*
X160802Y10698D01*
X160750Y10731D01*
X160679Y10776D01*
X160602Y10815D01*
X160517Y10854D01*
X160427Y10893D01*
X160414Y10899D01*
X160381Y10906D01*
X160336Y10925D01*
X160271Y10944D01*
X160200Y10957D01*
X160116Y10977D01*
X160025Y10983D01*
X159928Y10990D01*
X159882D01*
X159837Y10983D01*
X159772Y10977D01*
X159701Y10964D01*
X159630Y10938D01*
X159552Y10912D01*
X159481Y10873D01*
X159474Y10867D01*
X159455Y10854D01*
X159423Y10828D01*
X159397Y10789D01*
X159364Y10744D01*
X159332Y10685D01*
X159312Y10621D01*
X159306Y10543D01*
Y10537D01*
Y10510D01*
X159312Y10472D01*
X159319Y10433D01*
X159332Y10381D01*
X159351Y10336D01*
X159377Y10284D01*
X159410Y10245D01*
X159416Y10238D01*
X159429Y10232D01*
X159455Y10213D01*
X159494Y10187D01*
X159539Y10161D01*
X159598Y10135D01*
X159662Y10109D01*
X159747Y10083D01*
X159753D01*
X159766Y10077D01*
X159792D01*
X159824Y10064D01*
X159863Y10057D01*
X159908Y10051D01*
X160012Y10025D01*
X160019D01*
X160038Y10018D01*
X160070Y10012D01*
X160109Y10005D01*
X160154Y9992D01*
X160206Y9979D01*
X160323Y9954D01*
X160329D01*
X160336Y9947D01*
X160355D01*
X160381Y9941D01*
X160446Y9915D01*
X160517Y9889D01*
X160608Y9843D01*
X160692Y9798D01*
X160776Y9733D01*
X160848Y9662D01*
X160854Y9656D01*
X160874Y9623D01*
X160906Y9578D01*
X160938Y9520D01*
X160971Y9442D01*
X161003Y9345D01*
X161022Y9235D01*
X161029Y9111D01*
Y9105D01*
Y9079D01*
X161022Y9034D01*
X161016Y8989D01*
X161010Y8924D01*
X160997Y8859D01*
X160971Y8794D01*
X160945Y8723D01*
X160938Y8716D01*
X160932Y8691D01*
X160912Y8658D01*
X160886Y8619D01*
X160854Y8567D01*
X160815Y8516D01*
X160763Y8464D01*
X160712Y8412D01*
X160705Y8406D01*
X160679Y8386D01*
X160647Y8360D01*
X160595Y8334D01*
X160543Y8295D01*
X160472Y8263D01*
X160401Y8231D01*
X160323Y8198D01*
X160317D01*
X160284Y8185D01*
X160239Y8179D01*
X160174Y8166D01*
X160103Y8153D01*
X160012Y8140D01*
X159908Y8134D01*
X159792Y8127D01*
X159740D01*
X159675Y8134D01*
X159598Y8140D01*
X159507Y8146D01*
X159410Y8166D01*
X159300Y8185D01*
X159196Y8211D01*
X159183Y8218D01*
X159151Y8224D01*
X159099Y8244D01*
X159034Y8263D01*
X158963Y8289D01*
X158885Y8321D01*
X158814Y8354D01*
X158743Y8386D01*
Y8989D01*
X158769D01*
X158781Y8975D01*
X158814Y8950D01*
X158859Y8911D01*
X158924Y8865D01*
X158930D01*
X158943Y8852D01*
X158963Y8839D01*
X158989Y8827D01*
X159028Y8807D01*
X159066Y8781D01*
X159170Y8729D01*
X159177D01*
X159196Y8716D01*
X159222Y8704D01*
X159261Y8691D01*
X159300Y8671D01*
X159351Y8658D01*
X159468Y8619D01*
X159474D01*
X159494Y8613D01*
X159526Y8606D01*
X159572Y8600D01*
X159623Y8587D01*
X159682Y8580D01*
X159805Y8574D01*
X159857D01*
X159889Y8580D01*
X159928D01*
X159973Y8587D01*
X160077Y8600D01*
X160083D01*
X160103Y8606D01*
X160129Y8613D01*
X160154Y8619D01*
X160226Y8645D01*
X160258Y8665D01*
X160291Y8678D01*
X160297D01*
X160303Y8691D01*
X160342Y8716D01*
X160394Y8762D01*
X160433Y8814D01*
Y8820D01*
X160439Y8827D01*
X160446Y8846D01*
X160459Y8872D01*
X160465Y8904D01*
X160472Y8937D01*
X160478Y9034D01*
Y9040D01*
Y9066D01*
X160472Y9099D01*
X160465Y9144D01*
X160452Y9189D01*
X160433Y9241D01*
X160407Y9286D01*
X160375Y9325D01*
X160368Y9332D01*
X160355Y9345D01*
X160329Y9358D01*
X160291Y9384D01*
X160239Y9409D01*
X160180Y9435D01*
X160103Y9461D01*
X160012Y9487D01*
X160006D01*
X159993Y9494D01*
X159973Y9500D01*
X159941Y9507D01*
X159902Y9513D01*
X159857Y9526D01*
X159805Y9532D01*
X159747Y9546D01*
X159740D01*
X159721Y9552D01*
X159688Y9558D01*
X159649Y9565D01*
X159604Y9578D01*
X159552Y9591D01*
X159442Y9617D01*
X159436D01*
X159429Y9623D01*
X159410Y9630D01*
X159384Y9636D01*
X159319Y9662D01*
X159241Y9694D01*
X159157Y9740D01*
X159066Y9798D01*
X158989Y9863D01*
X158917Y9941D01*
X158911Y9954D01*
X158891Y9979D01*
X158866Y10025D01*
X158840Y10089D01*
X158807Y10167D01*
X158781Y10258D01*
X158762Y10362D01*
X158756Y10472D01*
Y10478D01*
Y10491D01*
Y10510D01*
X158762Y10543D01*
X158769Y10582D01*
X158775Y10621D01*
X158794Y10718D01*
X158833Y10828D01*
X158891Y10944D01*
X158924Y11003D01*
X158969Y11061D01*
X159015Y11113D01*
X159073Y11165D01*
X159079Y11171D01*
X159086Y11178D01*
X159105Y11191D01*
X159131Y11210D01*
X159164Y11229D01*
X159202Y11249D01*
X159248Y11275D01*
X159300Y11301D01*
X159423Y11353D01*
X159572Y11391D01*
X159740Y11424D01*
X159934Y11437D01*
X159980D01*
X160032Y11430D01*
D02*
G37*
G36*
X202184Y7032D02*
X201614D01*
X202184Y8354D01*
X201037Y11359D01*
X201601D01*
X202469Y9008D01*
X203330Y11359D01*
X203887D01*
X202184Y7032D01*
D02*
G37*
G36*
X181555D02*
X180985D01*
X181555Y8354D01*
X180408Y11359D01*
X180972D01*
X181840Y9008D01*
X182701Y11359D01*
X183258D01*
X181555Y7032D01*
D02*
G37*
G36*
X215326Y8198D02*
X214795D01*
Y12603D01*
X215326D01*
Y8198D01*
D02*
G37*
G36*
X213998D02*
X213467D01*
Y11359D01*
X213998D01*
Y8198D01*
D02*
G37*
G36*
X210753Y11009D02*
X210766Y11016D01*
X210792Y11042D01*
X210837Y11080D01*
X210902Y11132D01*
X210967Y11184D01*
X211051Y11236D01*
X211135Y11288D01*
X211219Y11333D01*
X211232Y11340D01*
X211258Y11353D01*
X211310Y11372D01*
X211368Y11391D01*
X211439Y11411D01*
X211524Y11430D01*
X211614Y11443D01*
X211712Y11450D01*
X211757D01*
X211789Y11443D01*
X211828D01*
X211873Y11437D01*
X211977Y11411D01*
X212094Y11372D01*
X212217Y11320D01*
X212333Y11242D01*
X212391Y11191D01*
X212443Y11139D01*
Y11132D01*
X212456Y11126D01*
X212469Y11106D01*
X212482Y11080D01*
X212508Y11048D01*
X212528Y11009D01*
X212554Y10964D01*
X212579Y10912D01*
X212599Y10854D01*
X212625Y10789D01*
X212651Y10718D01*
X212670Y10634D01*
X212683Y10549D01*
X212696Y10459D01*
X212709Y10355D01*
Y10251D01*
Y8198D01*
X212178D01*
Y9999D01*
Y10012D01*
Y10038D01*
Y10077D01*
Y10128D01*
X212171Y10193D01*
X212165Y10258D01*
X212152Y10400D01*
Y10407D01*
X212145Y10433D01*
Y10465D01*
X212132Y10510D01*
X212113Y10614D01*
X212094Y10660D01*
X212074Y10705D01*
Y10711D01*
X212061Y10724D01*
X212048Y10750D01*
X212029Y10776D01*
X211971Y10834D01*
X211893Y10886D01*
X211886D01*
X211873Y10893D01*
X211847Y10906D01*
X211809Y10919D01*
X211763Y10925D01*
X211712Y10938D01*
X211647Y10944D01*
X211543D01*
X211498Y10938D01*
X211446Y10932D01*
X211388Y10919D01*
X211316Y10899D01*
X211239Y10873D01*
X211161Y10834D01*
X211154Y10828D01*
X211129Y10815D01*
X211083Y10796D01*
X211031Y10763D01*
X210973Y10724D01*
X210902Y10673D01*
X210831Y10621D01*
X210753Y10556D01*
Y8198D01*
X210222D01*
Y12603D01*
X210753D01*
Y11009D01*
D02*
G37*
G36*
X207864Y10018D02*
X209114Y11359D01*
X209781D01*
X208479Y10031D01*
X209956Y8198D01*
X209257D01*
X208078Y9720D01*
X207864Y9520D01*
Y8198D01*
X207333D01*
Y12603D01*
X207864D01*
Y10018D01*
D02*
G37*
G36*
X205481Y11430D02*
X205571Y11424D01*
X205662Y11417D01*
X205753Y11404D01*
X205837Y11385D01*
X205850D01*
X205876Y11372D01*
X205921Y11359D01*
X205973Y11340D01*
X206038Y11314D01*
X206102Y11281D01*
X206174Y11242D01*
X206245Y11197D01*
X206251Y11191D01*
X206271Y11171D01*
X206303Y11145D01*
X206342Y11106D01*
X206381Y11061D01*
X206420Y11003D01*
X206465Y10932D01*
X206497Y10860D01*
X206504Y10854D01*
X206510Y10821D01*
X206523Y10776D01*
X206543Y10718D01*
X206562Y10647D01*
X206575Y10562D01*
X206582Y10465D01*
X206588Y10355D01*
Y8198D01*
X206057D01*
Y8529D01*
X206044Y8522D01*
X206005Y8496D01*
X205953Y8451D01*
X205876Y8393D01*
X205869Y8386D01*
X205856Y8380D01*
X205837Y8360D01*
X205811Y8347D01*
X205746Y8302D01*
X205668Y8256D01*
X205662D01*
X205643Y8244D01*
X205617Y8237D01*
X205578Y8218D01*
X205494Y8185D01*
X205390Y8153D01*
X205383D01*
X205364Y8146D01*
X205338Y8140D01*
X205299Y8134D01*
X205247Y8120D01*
X205183Y8114D01*
X205111Y8108D01*
X204995D01*
X204956Y8114D01*
X204911D01*
X204852Y8127D01*
X204788Y8140D01*
X204723Y8153D01*
X204652Y8179D01*
X204645Y8185D01*
X204626Y8192D01*
X204587Y8211D01*
X204548Y8231D01*
X204451Y8295D01*
X204347Y8386D01*
X204341Y8393D01*
X204328Y8412D01*
X204302Y8438D01*
X204276Y8477D01*
X204237Y8522D01*
X204205Y8574D01*
X204172Y8639D01*
X204140Y8704D01*
Y8710D01*
X204127Y8736D01*
X204120Y8775D01*
X204107Y8827D01*
X204095Y8891D01*
X204082Y8956D01*
X204075Y9034D01*
X204069Y9111D01*
Y9118D01*
Y9125D01*
Y9163D01*
X204075Y9228D01*
X204088Y9306D01*
X204101Y9390D01*
X204127Y9481D01*
X204159Y9578D01*
X204205Y9668D01*
X204211Y9682D01*
X204230Y9707D01*
X204263Y9753D01*
X204308Y9805D01*
X204373Y9863D01*
X204451Y9921D01*
X204541Y9986D01*
X204645Y10038D01*
X204658Y10044D01*
X204690Y10057D01*
X204749Y10077D01*
X204826Y10102D01*
X204917Y10135D01*
X205021Y10161D01*
X205144Y10187D01*
X205273Y10206D01*
X205293D01*
X205312Y10213D01*
X205338D01*
X205371Y10219D01*
X205409D01*
X205506Y10232D01*
X205623Y10245D01*
X205759Y10258D01*
X205902Y10264D01*
X206057Y10277D01*
Y10374D01*
Y10381D01*
Y10407D01*
Y10439D01*
X206051Y10485D01*
X206031Y10582D01*
X206018Y10634D01*
X205999Y10679D01*
Y10685D01*
X205986Y10698D01*
X205973Y10718D01*
X205960Y10744D01*
X205908Y10802D01*
X205837Y10860D01*
X205830D01*
X205817Y10873D01*
X205798Y10880D01*
X205772Y10893D01*
X205733Y10912D01*
X205694Y10925D01*
X205591Y10944D01*
X205584D01*
X205565Y10951D01*
X205532D01*
X205500Y10957D01*
X205448Y10964D01*
X205403D01*
X205286Y10970D01*
X205215D01*
X205163Y10964D01*
X205098Y10957D01*
X205027Y10944D01*
X204943Y10932D01*
X204852Y10912D01*
X204839D01*
X204807Y10899D01*
X204762Y10886D01*
X204697Y10873D01*
X204626Y10847D01*
X204541Y10821D01*
X204354Y10750D01*
X204328D01*
Y11288D01*
X204334D01*
X204354Y11294D01*
X204386Y11307D01*
X204431Y11320D01*
X204490Y11333D01*
X204561Y11346D01*
X204645Y11365D01*
X204742Y11385D01*
X204755D01*
X204788Y11391D01*
X204846Y11404D01*
X204917Y11411D01*
X205001Y11424D01*
X205092Y11430D01*
X205293Y11437D01*
X205409D01*
X205481Y11430D01*
D02*
G37*
G36*
X200616Y8198D02*
X200085D01*
Y12603D01*
X200616D01*
Y8198D01*
D02*
G37*
G36*
X187941Y11009D02*
X187954Y11016D01*
X187980Y11042D01*
X188025Y11080D01*
X188090Y11132D01*
X188155Y11184D01*
X188239Y11236D01*
X188323Y11288D01*
X188407Y11333D01*
X188420Y11340D01*
X188446Y11353D01*
X188498Y11372D01*
X188556Y11391D01*
X188627Y11411D01*
X188712Y11430D01*
X188802Y11443D01*
X188899Y11450D01*
X188945D01*
X188977Y11443D01*
X189016D01*
X189061Y11437D01*
X189165Y11411D01*
X189282Y11372D01*
X189405Y11320D01*
X189521Y11242D01*
X189580Y11191D01*
X189631Y11139D01*
Y11132D01*
X189644Y11126D01*
X189657Y11106D01*
X189670Y11080D01*
X189696Y11048D01*
X189716Y11009D01*
X189741Y10964D01*
X189767Y10912D01*
X189787Y10854D01*
X189813Y10789D01*
X189839Y10718D01*
X189858Y10634D01*
X189871Y10549D01*
X189884Y10459D01*
X189897Y10355D01*
Y10251D01*
Y8198D01*
X189366D01*
Y9999D01*
Y10012D01*
Y10038D01*
Y10077D01*
Y10128D01*
X189359Y10193D01*
X189353Y10258D01*
X189340Y10400D01*
Y10407D01*
X189333Y10433D01*
Y10465D01*
X189321Y10510D01*
X189301Y10614D01*
X189282Y10660D01*
X189262Y10705D01*
Y10711D01*
X189249Y10724D01*
X189236Y10750D01*
X189217Y10776D01*
X189158Y10834D01*
X189081Y10886D01*
X189074D01*
X189061Y10893D01*
X189035Y10906D01*
X188997Y10919D01*
X188951Y10925D01*
X188899Y10938D01*
X188835Y10944D01*
X188731D01*
X188686Y10938D01*
X188634Y10932D01*
X188576Y10919D01*
X188504Y10899D01*
X188427Y10873D01*
X188349Y10834D01*
X188342Y10828D01*
X188316Y10815D01*
X188271Y10796D01*
X188219Y10763D01*
X188161Y10724D01*
X188090Y10673D01*
X188019Y10621D01*
X187941Y10556D01*
Y8198D01*
X187410D01*
Y12603D01*
X187941D01*
Y11009D01*
D02*
G37*
G36*
X178769Y12408D02*
X178880D01*
X178990Y12402D01*
X179093Y12395D01*
X179184Y12382D01*
X179197D01*
X179223Y12376D01*
X179268Y12369D01*
X179326Y12350D01*
X179391Y12331D01*
X179463Y12311D01*
X179540Y12279D01*
X179618Y12240D01*
X179631Y12233D01*
X179657Y12220D01*
X179696Y12188D01*
X179748Y12156D01*
X179799Y12110D01*
X179851Y12052D01*
X179903Y11994D01*
X179948Y11923D01*
X179955Y11916D01*
X179968Y11890D01*
X179981Y11845D01*
X180007Y11793D01*
X180026Y11722D01*
X180039Y11644D01*
X180052Y11553D01*
X180058Y11456D01*
Y11443D01*
Y11404D01*
X180052Y11353D01*
X180039Y11281D01*
X180019Y11197D01*
X179987Y11106D01*
X179948Y11016D01*
X179896Y10925D01*
X179890Y10912D01*
X179870Y10886D01*
X179832Y10847D01*
X179786Y10789D01*
X179722Y10731D01*
X179650Y10673D01*
X179566Y10614D01*
X179469Y10556D01*
Y10537D01*
X179475D01*
X179488Y10530D01*
X179508Y10524D01*
X179534Y10517D01*
X179599Y10491D01*
X179683Y10452D01*
X179773Y10400D01*
X179870Y10336D01*
X179968Y10258D01*
X180052Y10161D01*
X180058Y10148D01*
X180084Y10115D01*
X180117Y10057D01*
X180156Y9979D01*
X180194Y9882D01*
X180227Y9766D01*
X180253Y9636D01*
X180259Y9487D01*
Y9481D01*
Y9474D01*
Y9435D01*
X180253Y9377D01*
X180246Y9299D01*
X180227Y9215D01*
X180207Y9125D01*
X180175Y9027D01*
X180136Y8930D01*
X180130Y8917D01*
X180117Y8891D01*
X180091Y8846D01*
X180052Y8794D01*
X180007Y8729D01*
X179955Y8665D01*
X179890Y8600D01*
X179819Y8535D01*
X179806Y8529D01*
X179780Y8503D01*
X179728Y8477D01*
X179663Y8438D01*
X179585Y8393D01*
X179501Y8347D01*
X179404Y8308D01*
X179307Y8276D01*
X179294D01*
X179255Y8263D01*
X179197Y8250D01*
X179119Y8237D01*
X179016Y8224D01*
X178899Y8211D01*
X178763Y8205D01*
X178608Y8198D01*
X177403D01*
Y12415D01*
X178672D01*
X178769Y12408D01*
D02*
G37*
G36*
X162065Y8198D02*
X161534D01*
Y11359D01*
X162065D01*
Y8198D01*
D02*
G37*
G36*
X153159Y12408D02*
X153295Y12402D01*
X153444Y12395D01*
X153600Y12376D01*
X153749Y12356D01*
X153885Y12324D01*
X153891D01*
X153898Y12318D01*
X153917D01*
X153943Y12305D01*
X154001Y12285D01*
X154086Y12259D01*
X154176Y12227D01*
X154273Y12182D01*
X154371Y12136D01*
X154461Y12078D01*
X154468D01*
X154481Y12065D01*
X154500Y12052D01*
X154526Y12026D01*
X154604Y11968D01*
X154694Y11884D01*
X154792Y11780D01*
X154902Y11657D01*
X154999Y11521D01*
X155090Y11359D01*
Y11353D01*
X155103Y11340D01*
X155109Y11314D01*
X155128Y11281D01*
X155141Y11236D01*
X155161Y11184D01*
X155180Y11126D01*
X155206Y11061D01*
X155225Y10990D01*
X155245Y10906D01*
X155264Y10821D01*
X155284Y10724D01*
X155310Y10524D01*
X155316Y10297D01*
Y10290D01*
Y10271D01*
Y10238D01*
X155310Y10200D01*
Y10148D01*
X155303Y10089D01*
X155297Y10025D01*
X155290Y9954D01*
X155258Y9792D01*
X155219Y9617D01*
X155161Y9435D01*
X155083Y9254D01*
Y9247D01*
X155070Y9235D01*
X155057Y9209D01*
X155038Y9176D01*
X155018Y9137D01*
X154986Y9092D01*
X154915Y8995D01*
X154830Y8878D01*
X154720Y8755D01*
X154597Y8639D01*
X154455Y8535D01*
X154448D01*
X154442Y8529D01*
X154422Y8516D01*
X154403Y8503D01*
X154338Y8464D01*
X154254Y8425D01*
X154157Y8380D01*
X154047Y8334D01*
X153930Y8295D01*
X153807Y8263D01*
X153794D01*
X153775Y8256D01*
X153749Y8250D01*
X153716D01*
X153678Y8244D01*
X153580Y8231D01*
X153457Y8218D01*
X153315Y8211D01*
X153146Y8198D01*
X152000D01*
Y12415D01*
X153101D01*
X153159Y12408D01*
D02*
G37*
G36*
X186043Y11359D02*
X187021D01*
Y10912D01*
X186043D01*
Y9409D01*
Y9396D01*
Y9371D01*
Y9325D01*
Y9273D01*
Y9150D01*
X186050Y9092D01*
Y9040D01*
Y9034D01*
Y9021D01*
X186056Y8995D01*
X186063Y8963D01*
X186082Y8885D01*
X186114Y8794D01*
Y8788D01*
X186121Y8781D01*
X186153Y8742D01*
X186199Y8691D01*
X186263Y8645D01*
X186270D01*
X186283Y8639D01*
X186309Y8632D01*
X186341Y8626D01*
X186386Y8613D01*
X186438Y8606D01*
X186497Y8600D01*
X186607D01*
X186639Y8606D01*
X186723Y8619D01*
X186807Y8639D01*
X186814D01*
X186827Y8645D01*
X186853Y8652D01*
X186879Y8665D01*
X186937Y8684D01*
X186989Y8704D01*
X187021D01*
Y8224D01*
X187015D01*
X186995Y8218D01*
X186963Y8211D01*
X186924Y8205D01*
X186879Y8192D01*
X186827Y8179D01*
X186710Y8159D01*
X186704D01*
X186684Y8153D01*
X186658D01*
X186620Y8146D01*
X186529Y8140D01*
X186432Y8134D01*
X186393D01*
X186360Y8140D01*
X186322D01*
X186283Y8146D01*
X186186Y8166D01*
X186075Y8192D01*
X185959Y8237D01*
X185849Y8295D01*
X185752Y8380D01*
X185739Y8393D01*
X185713Y8425D01*
X185674Y8483D01*
X185635Y8567D01*
X185590Y8678D01*
X185551Y8814D01*
X185531Y8891D01*
X185525Y8969D01*
X185512Y9060D01*
Y9157D01*
Y10912D01*
X185156D01*
Y11359D01*
X185512D01*
Y12266D01*
X186043D01*
Y11359D01*
D02*
G37*
G36*
X191989Y11443D02*
X192060Y11437D01*
X192138Y11430D01*
X192229Y11411D01*
X192319Y11391D01*
X192404Y11359D01*
X192416Y11353D01*
X192442Y11346D01*
X192481Y11320D01*
X192540Y11294D01*
X192598Y11255D01*
X192669Y11210D01*
X192734Y11158D01*
X192799Y11093D01*
X192805Y11087D01*
X192824Y11061D01*
X192857Y11022D01*
X192896Y10970D01*
X192941Y10906D01*
X192987Y10834D01*
X193025Y10744D01*
X193064Y10653D01*
X193071Y10640D01*
X193077Y10608D01*
X193090Y10549D01*
X193109Y10478D01*
X193129Y10381D01*
X193142Y10271D01*
X193148Y10148D01*
X193155Y10012D01*
Y9727D01*
X190959D01*
Y9720D01*
Y9701D01*
Y9675D01*
X190966Y9636D01*
Y9591D01*
X190972Y9532D01*
X190991Y9409D01*
X191024Y9273D01*
X191076Y9131D01*
X191140Y9001D01*
X191231Y8878D01*
X191238D01*
X191244Y8865D01*
X191283Y8833D01*
X191348Y8788D01*
X191432Y8736D01*
X191542Y8684D01*
X191672Y8639D01*
X191827Y8606D01*
X191911Y8600D01*
X192002Y8593D01*
X192067D01*
X192112Y8600D01*
X192164D01*
X192222Y8613D01*
X192345Y8632D01*
X192352D01*
X192378Y8639D01*
X192410Y8645D01*
X192449Y8658D01*
X192553Y8691D01*
X192656Y8729D01*
X192663D01*
X192682Y8742D01*
X192708Y8755D01*
X192740Y8768D01*
X192818Y8807D01*
X192896Y8852D01*
X192902D01*
X192915Y8865D01*
X192954Y8891D01*
X193012Y8930D01*
X193064Y8975D01*
X193097D01*
Y8393D01*
X193090D01*
X193077Y8386D01*
X193058Y8380D01*
X193032Y8367D01*
X192993Y8354D01*
X192954Y8334D01*
X192857Y8295D01*
X192850D01*
X192831Y8289D01*
X192805Y8276D01*
X192773Y8263D01*
X192695Y8237D01*
X192611Y8211D01*
X192604D01*
X192585Y8205D01*
X192553Y8198D01*
X192520Y8192D01*
X192423Y8172D01*
X192326Y8153D01*
X192319D01*
X192306Y8146D01*
X192274D01*
X192242Y8140D01*
X192196Y8134D01*
X192138D01*
X192080Y8127D01*
X191937D01*
X191885Y8134D01*
X191821Y8140D01*
X191749Y8146D01*
X191665Y8159D01*
X191581Y8179D01*
X191393Y8231D01*
X191296Y8263D01*
X191199Y8302D01*
X191102Y8354D01*
X191005Y8412D01*
X190920Y8477D01*
X190836Y8548D01*
X190830Y8554D01*
X190817Y8567D01*
X190797Y8593D01*
X190771Y8626D01*
X190739Y8671D01*
X190707Y8723D01*
X190668Y8788D01*
X190629Y8859D01*
X190590Y8943D01*
X190551Y9034D01*
X190519Y9131D01*
X190486Y9241D01*
X190460Y9358D01*
X190441Y9481D01*
X190428Y9617D01*
X190422Y9759D01*
Y9766D01*
Y9792D01*
Y9830D01*
X190428Y9889D01*
X190434Y9954D01*
X190441Y10025D01*
X190454Y10109D01*
X190473Y10200D01*
X190519Y10400D01*
X190551Y10504D01*
X190590Y10601D01*
X190635Y10705D01*
X190694Y10802D01*
X190752Y10899D01*
X190823Y10990D01*
X190830Y10996D01*
X190843Y11009D01*
X190868Y11035D01*
X190894Y11061D01*
X190940Y11093D01*
X190985Y11132D01*
X191043Y11178D01*
X191108Y11223D01*
X191179Y11262D01*
X191264Y11307D01*
X191348Y11346D01*
X191445Y11379D01*
X191542Y11404D01*
X191652Y11430D01*
X191769Y11443D01*
X191885Y11450D01*
X191937D01*
X191989Y11443D01*
D02*
G37*
G36*
X170634D02*
X170706Y11437D01*
X170783Y11430D01*
X170874Y11411D01*
X170965Y11391D01*
X171049Y11359D01*
X171062Y11353D01*
X171088Y11346D01*
X171127Y11320D01*
X171185Y11294D01*
X171243Y11255D01*
X171314Y11210D01*
X171379Y11158D01*
X171444Y11093D01*
X171450Y11087D01*
X171470Y11061D01*
X171502Y11022D01*
X171541Y10970D01*
X171586Y10906D01*
X171632Y10834D01*
X171671Y10744D01*
X171709Y10653D01*
X171716Y10640D01*
X171723Y10608D01*
X171735Y10549D01*
X171755Y10478D01*
X171774Y10381D01*
X171787Y10271D01*
X171794Y10148D01*
X171800Y10012D01*
Y9727D01*
X169604D01*
Y9720D01*
Y9701D01*
Y9675D01*
X169611Y9636D01*
Y9591D01*
X169617Y9532D01*
X169637Y9409D01*
X169669Y9273D01*
X169721Y9131D01*
X169786Y9001D01*
X169876Y8878D01*
X169883D01*
X169890Y8865D01*
X169928Y8833D01*
X169993Y8788D01*
X170077Y8736D01*
X170187Y8684D01*
X170317Y8639D01*
X170472Y8606D01*
X170557Y8600D01*
X170647Y8593D01*
X170712D01*
X170757Y8600D01*
X170809D01*
X170868Y8613D01*
X170991Y8632D01*
X170997D01*
X171023Y8639D01*
X171055Y8645D01*
X171094Y8658D01*
X171198Y8691D01*
X171301Y8729D01*
X171308D01*
X171327Y8742D01*
X171353Y8755D01*
X171386Y8768D01*
X171463Y8807D01*
X171541Y8852D01*
X171548D01*
X171560Y8865D01*
X171599Y8891D01*
X171658Y8930D01*
X171709Y8975D01*
X171742D01*
Y8393D01*
X171735D01*
X171723Y8386D01*
X171703Y8380D01*
X171677Y8367D01*
X171638Y8354D01*
X171599Y8334D01*
X171502Y8295D01*
X171496D01*
X171476Y8289D01*
X171450Y8276D01*
X171418Y8263D01*
X171340Y8237D01*
X171256Y8211D01*
X171250D01*
X171230Y8205D01*
X171198Y8198D01*
X171165Y8192D01*
X171068Y8172D01*
X170971Y8153D01*
X170965D01*
X170952Y8146D01*
X170919D01*
X170887Y8140D01*
X170842Y8134D01*
X170783D01*
X170725Y8127D01*
X170583D01*
X170531Y8134D01*
X170466Y8140D01*
X170395Y8146D01*
X170310Y8159D01*
X170226Y8179D01*
X170038Y8231D01*
X169941Y8263D01*
X169844Y8302D01*
X169747Y8354D01*
X169650Y8412D01*
X169566Y8477D01*
X169481Y8548D01*
X169475Y8554D01*
X169462Y8567D01*
X169443Y8593D01*
X169417Y8626D01*
X169384Y8671D01*
X169352Y8723D01*
X169313Y8788D01*
X169274Y8859D01*
X169235Y8943D01*
X169196Y9034D01*
X169164Y9131D01*
X169132Y9241D01*
X169106Y9358D01*
X169086Y9481D01*
X169073Y9617D01*
X169067Y9759D01*
Y9766D01*
Y9792D01*
Y9830D01*
X169073Y9889D01*
X169080Y9954D01*
X169086Y10025D01*
X169099Y10109D01*
X169119Y10200D01*
X169164Y10400D01*
X169196Y10504D01*
X169235Y10601D01*
X169281Y10705D01*
X169339Y10802D01*
X169397Y10899D01*
X169468Y10990D01*
X169475Y10996D01*
X169488Y11009D01*
X169514Y11035D01*
X169540Y11061D01*
X169585Y11093D01*
X169630Y11132D01*
X169689Y11178D01*
X169753Y11223D01*
X169825Y11262D01*
X169909Y11307D01*
X169993Y11346D01*
X170090Y11379D01*
X170187Y11404D01*
X170298Y11430D01*
X170414Y11443D01*
X170531Y11450D01*
X170583D01*
X170634Y11443D01*
D02*
G37*
G36*
X157233D02*
X157305Y11437D01*
X157382Y11430D01*
X157473Y11411D01*
X157564Y11391D01*
X157648Y11359D01*
X157661Y11353D01*
X157687Y11346D01*
X157726Y11320D01*
X157784Y11294D01*
X157842Y11255D01*
X157914Y11210D01*
X157978Y11158D01*
X158043Y11093D01*
X158049Y11087D01*
X158069Y11061D01*
X158101Y11022D01*
X158140Y10970D01*
X158186Y10906D01*
X158231Y10834D01*
X158270Y10744D01*
X158309Y10653D01*
X158315Y10640D01*
X158322Y10608D01*
X158335Y10549D01*
X158354Y10478D01*
X158373Y10381D01*
X158386Y10271D01*
X158393Y10148D01*
X158399Y10012D01*
Y9727D01*
X156204D01*
Y9720D01*
Y9701D01*
Y9675D01*
X156210Y9636D01*
Y9591D01*
X156216Y9532D01*
X156236Y9409D01*
X156268Y9273D01*
X156320Y9131D01*
X156385Y9001D01*
X156476Y8878D01*
X156482D01*
X156489Y8865D01*
X156527Y8833D01*
X156592Y8788D01*
X156676Y8736D01*
X156786Y8684D01*
X156916Y8639D01*
X157072Y8606D01*
X157156Y8600D01*
X157246Y8593D01*
X157311D01*
X157357Y8600D01*
X157408D01*
X157467Y8613D01*
X157590Y8632D01*
X157596D01*
X157622Y8639D01*
X157654Y8645D01*
X157693Y8658D01*
X157797Y8691D01*
X157900Y8729D01*
X157907D01*
X157927Y8742D01*
X157952Y8755D01*
X157985Y8768D01*
X158062Y8807D01*
X158140Y8852D01*
X158147D01*
X158160Y8865D01*
X158198Y8891D01*
X158257Y8930D01*
X158309Y8975D01*
X158341D01*
Y8393D01*
X158335D01*
X158322Y8386D01*
X158302Y8380D01*
X158276Y8367D01*
X158237Y8354D01*
X158198Y8334D01*
X158101Y8295D01*
X158095D01*
X158075Y8289D01*
X158049Y8276D01*
X158017Y8263D01*
X157939Y8237D01*
X157855Y8211D01*
X157849D01*
X157829Y8205D01*
X157797Y8198D01*
X157765Y8192D01*
X157667Y8172D01*
X157570Y8153D01*
X157564D01*
X157551Y8146D01*
X157518D01*
X157486Y8140D01*
X157441Y8134D01*
X157382D01*
X157324Y8127D01*
X157182D01*
X157130Y8134D01*
X157065Y8140D01*
X156994Y8146D01*
X156910Y8159D01*
X156825Y8179D01*
X156637Y8231D01*
X156540Y8263D01*
X156443Y8302D01*
X156346Y8354D01*
X156249Y8412D01*
X156165Y8477D01*
X156081Y8548D01*
X156074Y8554D01*
X156061Y8567D01*
X156042Y8593D01*
X156016Y8626D01*
X155983Y8671D01*
X155951Y8723D01*
X155912Y8788D01*
X155873Y8859D01*
X155834Y8943D01*
X155795Y9034D01*
X155763Y9131D01*
X155731Y9241D01*
X155705Y9358D01*
X155685Y9481D01*
X155673Y9617D01*
X155666Y9759D01*
Y9766D01*
Y9792D01*
Y9830D01*
X155673Y9889D01*
X155679Y9954D01*
X155685Y10025D01*
X155698Y10109D01*
X155718Y10200D01*
X155763Y10400D01*
X155795Y10504D01*
X155834Y10601D01*
X155880Y10705D01*
X155938Y10802D01*
X155996Y10899D01*
X156068Y10990D01*
X156074Y10996D01*
X156087Y11009D01*
X156113Y11035D01*
X156139Y11061D01*
X156184Y11093D01*
X156229Y11132D01*
X156288Y11178D01*
X156353Y11223D01*
X156424Y11262D01*
X156508Y11307D01*
X156592Y11346D01*
X156689Y11379D01*
X156786Y11404D01*
X156897Y11430D01*
X157013Y11443D01*
X157130Y11450D01*
X157182D01*
X157233Y11443D01*
D02*
G37*
G36*
X194988D02*
X195046Y11437D01*
X195104Y11424D01*
X195176Y11411D01*
X195253Y11398D01*
X195415Y11340D01*
X195499Y11307D01*
X195584Y11262D01*
X195674Y11216D01*
X195752Y11152D01*
X195836Y11087D01*
X195908Y11009D01*
X195914Y11003D01*
X195927Y10990D01*
X195946Y10964D01*
X195966Y10925D01*
X195998Y10886D01*
X196031Y10828D01*
X196063Y10763D01*
X196102Y10692D01*
X196141Y10608D01*
X196173Y10517D01*
X196206Y10413D01*
X196238Y10303D01*
X196257Y10180D01*
X196277Y10057D01*
X196290Y9915D01*
X196296Y9772D01*
Y9766D01*
Y9740D01*
Y9694D01*
X196290Y9643D01*
X196283Y9571D01*
X196277Y9500D01*
X196264Y9409D01*
X196251Y9319D01*
X196199Y9125D01*
X196173Y9021D01*
X196134Y8917D01*
X196089Y8814D01*
X196037Y8716D01*
X195979Y8626D01*
X195908Y8541D01*
X195901Y8535D01*
X195888Y8522D01*
X195869Y8503D01*
X195836Y8477D01*
X195798Y8438D01*
X195752Y8406D01*
X195700Y8367D01*
X195636Y8328D01*
X195564Y8282D01*
X195493Y8244D01*
X195409Y8211D01*
X195312Y8179D01*
X195215Y8146D01*
X195111Y8127D01*
X195001Y8114D01*
X194884Y8108D01*
X194819D01*
X194774Y8114D01*
X194722Y8120D01*
X194657Y8134D01*
X194586Y8146D01*
X194509Y8166D01*
X194424Y8185D01*
X194340Y8218D01*
X194256Y8250D01*
X194172Y8295D01*
X194081Y8347D01*
X194003Y8406D01*
X193919Y8477D01*
X193848Y8554D01*
X193841Y8561D01*
X193835Y8574D01*
X193815Y8600D01*
X193790Y8639D01*
X193764Y8684D01*
X193731Y8736D01*
X193692Y8801D01*
X193660Y8872D01*
X193628Y8956D01*
X193589Y9047D01*
X193556Y9150D01*
X193531Y9254D01*
X193505Y9371D01*
X193492Y9500D01*
X193479Y9630D01*
X193472Y9772D01*
Y9779D01*
Y9805D01*
Y9850D01*
X193479Y9902D01*
X193485Y9973D01*
X193492Y10051D01*
X193505Y10135D01*
X193524Y10226D01*
X193569Y10426D01*
X193602Y10530D01*
X193634Y10634D01*
X193680Y10731D01*
X193731Y10828D01*
X193790Y10925D01*
X193861Y11009D01*
X193867Y11016D01*
X193880Y11029D01*
X193900Y11048D01*
X193932Y11080D01*
X193971Y11113D01*
X194016Y11152D01*
X194075Y11191D01*
X194133Y11229D01*
X194204Y11268D01*
X194282Y11314D01*
X194366Y11346D01*
X194457Y11379D01*
X194554Y11411D01*
X194657Y11430D01*
X194768Y11443D01*
X194884Y11450D01*
X194949D01*
X194988Y11443D01*
D02*
G37*
G36*
X164112D02*
X164177Y11437D01*
X164248Y11424D01*
X164319Y11411D01*
X164391Y11391D01*
X164397D01*
X164423Y11379D01*
X164455Y11365D01*
X164507Y11346D01*
X164559Y11327D01*
X164624Y11294D01*
X164760Y11223D01*
X164786Y11359D01*
X165291D01*
Y8554D01*
Y8548D01*
Y8522D01*
Y8477D01*
X165284Y8425D01*
X165278Y8360D01*
X165271Y8282D01*
X165258Y8198D01*
X165245Y8108D01*
X165207Y7920D01*
X165142Y7725D01*
X165103Y7628D01*
X165051Y7538D01*
X164999Y7460D01*
X164935Y7382D01*
X164928Y7376D01*
X164915Y7363D01*
X164896Y7350D01*
X164870Y7324D01*
X164831Y7291D01*
X164786Y7259D01*
X164734Y7227D01*
X164669Y7194D01*
X164598Y7156D01*
X164520Y7123D01*
X164429Y7091D01*
X164332Y7058D01*
X164229Y7032D01*
X164112Y7019D01*
X163989Y7006D01*
X163859Y7000D01*
X163775D01*
X163710Y7006D01*
X163639D01*
X163561Y7019D01*
X163380Y7039D01*
X163367D01*
X163341Y7045D01*
X163296Y7052D01*
X163238Y7065D01*
X163166Y7084D01*
X163089Y7097D01*
X162933Y7143D01*
Y7693D01*
X162959D01*
X162972Y7687D01*
X162998Y7680D01*
X163050Y7661D01*
X163114Y7635D01*
X163121D01*
X163134Y7628D01*
X163153Y7622D01*
X163186Y7609D01*
X163263Y7589D01*
X163354Y7563D01*
X163361D01*
X163380Y7557D01*
X163406Y7551D01*
X163445Y7544D01*
X163529Y7525D01*
X163626Y7505D01*
X163633D01*
X163652Y7499D01*
X163678D01*
X163710Y7492D01*
X163749Y7486D01*
X163801D01*
X163905Y7479D01*
X163944D01*
X163989Y7486D01*
X164047D01*
X164112Y7499D01*
X164183Y7512D01*
X164254Y7525D01*
X164319Y7551D01*
X164326D01*
X164345Y7563D01*
X164377Y7577D01*
X164416Y7596D01*
X164507Y7654D01*
X164552Y7687D01*
X164591Y7725D01*
X164598Y7732D01*
X164604Y7745D01*
X164624Y7771D01*
X164643Y7803D01*
X164662Y7842D01*
X164682Y7887D01*
X164721Y7997D01*
Y8004D01*
X164727Y8023D01*
X164734Y8056D01*
X164740Y8095D01*
X164747Y8146D01*
X164753Y8205D01*
X164760Y8334D01*
Y8613D01*
X164753Y8606D01*
X164721Y8580D01*
X164682Y8548D01*
X164624Y8509D01*
X164559Y8464D01*
X164488Y8418D01*
X164410Y8373D01*
X164332Y8334D01*
X164326Y8328D01*
X164293Y8321D01*
X164248Y8308D01*
X164190Y8295D01*
X164112Y8276D01*
X164028Y8263D01*
X163924Y8256D01*
X163814Y8250D01*
X163762D01*
X163723Y8256D01*
X163678Y8263D01*
X163626Y8270D01*
X163503Y8302D01*
X163361Y8347D01*
X163289Y8380D01*
X163218Y8418D01*
X163147Y8464D01*
X163076Y8522D01*
X163011Y8580D01*
X162946Y8652D01*
X162940Y8658D01*
X162933Y8671D01*
X162920Y8697D01*
X162894Y8729D01*
X162875Y8768D01*
X162849Y8820D01*
X162817Y8878D01*
X162791Y8950D01*
X162758Y9021D01*
X162732Y9111D01*
X162700Y9202D01*
X162681Y9306D01*
X162661Y9422D01*
X162642Y9539D01*
X162635Y9668D01*
X162629Y9805D01*
Y9811D01*
Y9824D01*
Y9843D01*
Y9869D01*
X162635Y9947D01*
X162642Y10038D01*
X162655Y10148D01*
X162674Y10264D01*
X162700Y10388D01*
X162739Y10504D01*
Y10510D01*
X162745Y10517D01*
X162758Y10556D01*
X162784Y10614D01*
X162817Y10685D01*
X162862Y10763D01*
X162914Y10854D01*
X162972Y10938D01*
X163037Y11022D01*
X163043Y11029D01*
X163069Y11055D01*
X163108Y11093D01*
X163153Y11139D01*
X163218Y11184D01*
X163289Y11236D01*
X163367Y11288D01*
X163458Y11333D01*
X163471Y11340D01*
X163503Y11353D01*
X163549Y11372D01*
X163613Y11391D01*
X163691Y11411D01*
X163775Y11430D01*
X163866Y11443D01*
X163963Y11450D01*
X164054D01*
X164112Y11443D01*
D02*
G37*
G36*
X165801Y186761D02*
X165857D01*
X165921Y186752D01*
X166069Y186715D01*
X166236Y186660D01*
X166411Y186586D01*
X166578Y186475D01*
X166661Y186401D01*
X166735Y186327D01*
Y186318D01*
X166754Y186308D01*
X166772Y186281D01*
X166791Y186244D01*
X166828Y186197D01*
X166855Y186142D01*
X166892Y186077D01*
X166929Y186003D01*
X166957Y185920D01*
X166994Y185828D01*
X167031Y185726D01*
X167059Y185606D01*
X167077Y185486D01*
X167096Y185356D01*
X167114Y185208D01*
Y185060D01*
Y182129D01*
X166356D01*
Y184700D01*
Y184718D01*
Y184755D01*
Y184811D01*
Y184885D01*
X166347Y184977D01*
X166338Y185070D01*
X166319Y185273D01*
Y185282D01*
X166310Y185319D01*
Y185365D01*
X166291Y185430D01*
X166264Y185578D01*
X166236Y185643D01*
X166208Y185707D01*
Y185717D01*
X166189Y185735D01*
X166171Y185772D01*
X166143Y185809D01*
X166060Y185892D01*
X165949Y185966D01*
X165940D01*
X165921Y185976D01*
X165884Y185994D01*
X165829Y186013D01*
X165764Y186022D01*
X165690Y186040D01*
X165598Y186050D01*
X165450D01*
X165385Y186040D01*
X165311Y186031D01*
X165228Y186013D01*
X165126Y185985D01*
X165015Y185948D01*
X164904Y185892D01*
X164895Y185883D01*
X164858Y185865D01*
X164793Y185837D01*
X164720Y185791D01*
X164636Y185735D01*
X164535Y185661D01*
X164433Y185587D01*
X164322Y185495D01*
Y182129D01*
X163564D01*
Y186641D01*
X164322D01*
Y186142D01*
X164340Y186151D01*
X164377Y186188D01*
X164442Y186244D01*
X164535Y186318D01*
X164627Y186392D01*
X164747Y186466D01*
X164867Y186540D01*
X164988Y186604D01*
X165006Y186614D01*
X165043Y186632D01*
X165117Y186660D01*
X165200Y186688D01*
X165302Y186715D01*
X165422Y186743D01*
X165552Y186761D01*
X165690Y186771D01*
X165755D01*
X165801Y186761D01*
D02*
G37*
G36*
X140746Y186632D02*
X140755D01*
X140792Y186623D01*
X140829D01*
X140884Y186614D01*
Y185818D01*
X140820D01*
X140783Y185828D01*
X140727Y185837D01*
X140653Y185846D01*
X140635D01*
X140589Y185855D01*
X140376D01*
X140320Y185846D01*
X140237Y185837D01*
X140145Y185818D01*
X140034Y185800D01*
X139923Y185763D01*
X139812Y185717D01*
X139803Y185707D01*
X139756Y185689D01*
X139701Y185661D01*
X139627Y185615D01*
X139535Y185560D01*
X139442Y185495D01*
X139340Y185412D01*
X139239Y185319D01*
Y182129D01*
X138481D01*
Y186641D01*
X139239D01*
Y185966D01*
X139248D01*
X139257Y185985D01*
X139313Y186031D01*
X139387Y186096D01*
X139488Y186170D01*
X139599Y186253D01*
X139719Y186345D01*
X139840Y186419D01*
X139960Y186484D01*
X139978Y186493D01*
X140015Y186512D01*
X140071Y186530D01*
X140154Y186567D01*
X140246Y186595D01*
X140348Y186614D01*
X140459Y186632D01*
X140570Y186641D01*
X140699D01*
X140746Y186632D01*
D02*
G37*
G36*
X132314Y182129D02*
X131611D01*
X130511Y185606D01*
X129410Y182129D01*
X128708D01*
X127561Y186641D01*
X128338D01*
X129142Y183146D01*
X130215Y186641D01*
X130844D01*
X131944Y183146D01*
X132693Y186641D01*
X133460D01*
X132314Y182129D01*
D02*
G37*
G36*
X152451D02*
X151692D01*
Y182619D01*
X151674Y182610D01*
X151628Y182573D01*
X151563Y182518D01*
X151470Y182444D01*
X151369Y182370D01*
X151258Y182296D01*
X151138Y182222D01*
X151018Y182157D01*
X150999Y182148D01*
X150962Y182129D01*
X150897Y182111D01*
X150814Y182083D01*
X150712Y182046D01*
X150592Y182028D01*
X150454Y182009D01*
X150315Y182000D01*
X150269D01*
X150204Y182009D01*
X150139D01*
X150047Y182019D01*
X149954Y182037D01*
X149760Y182092D01*
X149751Y182102D01*
X149714Y182111D01*
X149668Y182129D01*
X149603Y182166D01*
X149538Y182203D01*
X149464Y182259D01*
X149381Y182324D01*
X149307Y182398D01*
X149298Y182407D01*
X149279Y182435D01*
X149242Y182481D01*
X149196Y182546D01*
X149150Y182619D01*
X149094Y182712D01*
X149048Y182814D01*
X149002Y182925D01*
Y182943D01*
X148983Y182980D01*
X148974Y183054D01*
X148956Y183146D01*
X148937Y183257D01*
X148919Y183387D01*
X148910Y183535D01*
X148900Y183701D01*
Y186641D01*
X149658D01*
Y184062D01*
Y184043D01*
Y184006D01*
Y183932D01*
Y183849D01*
X149668Y183757D01*
Y183655D01*
Y183553D01*
X149677Y183461D01*
Y183452D01*
X149686Y183424D01*
X149695Y183378D01*
X149705Y183322D01*
X149742Y183193D01*
X149797Y183054D01*
Y183045D01*
X149816Y183026D01*
X149834Y182999D01*
X149862Y182952D01*
X149945Y182869D01*
X150047Y182795D01*
X150056D01*
X150075Y182786D01*
X150111Y182777D01*
X150167Y182758D01*
X150232Y182749D01*
X150315Y182730D01*
X150407Y182721D01*
X150555D01*
X150620Y182730D01*
X150694Y182740D01*
X150786Y182758D01*
X150888Y182786D01*
X150990Y182823D01*
X151110Y182878D01*
X151129Y182888D01*
X151165Y182906D01*
X151221Y182943D01*
X151304Y182989D01*
X151387Y183045D01*
X151489Y183109D01*
X151692Y183267D01*
Y186641D01*
X152451D01*
Y182129D01*
D02*
G37*
G36*
X146071Y188139D02*
X146228D01*
X146385Y188130D01*
X146533Y188121D01*
X146663Y188102D01*
X146681D01*
X146718Y188093D01*
X146783Y188084D01*
X146866Y188056D01*
X146959Y188028D01*
X147060Y188000D01*
X147171Y187954D01*
X147282Y187899D01*
X147301Y187889D01*
X147338Y187871D01*
X147393Y187825D01*
X147467Y187778D01*
X147541Y187714D01*
X147615Y187631D01*
X147689Y187547D01*
X147754Y187446D01*
X147763Y187436D01*
X147781Y187399D01*
X147800Y187335D01*
X147837Y187261D01*
X147865Y187159D01*
X147883Y187048D01*
X147902Y186919D01*
X147911Y186780D01*
Y186761D01*
Y186706D01*
X147902Y186632D01*
X147883Y186530D01*
X147856Y186410D01*
X147809Y186281D01*
X147754Y186151D01*
X147680Y186022D01*
X147671Y186003D01*
X147643Y185966D01*
X147587Y185911D01*
X147523Y185828D01*
X147430Y185744D01*
X147329Y185661D01*
X147208Y185578D01*
X147070Y185495D01*
Y185467D01*
X147079D01*
X147097Y185458D01*
X147125Y185449D01*
X147162Y185439D01*
X147254Y185402D01*
X147375Y185347D01*
X147504Y185273D01*
X147643Y185180D01*
X147781Y185070D01*
X147902Y184931D01*
X147911Y184912D01*
X147948Y184866D01*
X147994Y184783D01*
X148050Y184672D01*
X148105Y184533D01*
X148151Y184367D01*
X148188Y184182D01*
X148198Y183969D01*
Y183960D01*
Y183951D01*
Y183895D01*
X148188Y183812D01*
X148179Y183701D01*
X148151Y183581D01*
X148124Y183452D01*
X148077Y183313D01*
X148022Y183174D01*
X148013Y183156D01*
X147994Y183119D01*
X147957Y183054D01*
X147902Y182980D01*
X147837Y182888D01*
X147763Y182795D01*
X147671Y182703D01*
X147569Y182610D01*
X147550Y182601D01*
X147513Y182564D01*
X147439Y182527D01*
X147347Y182472D01*
X147236Y182407D01*
X147116Y182342D01*
X146977Y182287D01*
X146839Y182240D01*
X146820D01*
X146764Y182222D01*
X146681Y182203D01*
X146570Y182185D01*
X146422Y182166D01*
X146256Y182148D01*
X146062Y182139D01*
X145840Y182129D01*
X144120D01*
Y188148D01*
X145932D01*
X146071Y188139D01*
D02*
G37*
G36*
X120821D02*
X120960Y188130D01*
X121108Y188111D01*
X121256Y188084D01*
X121404Y188056D01*
X121422D01*
X121469Y188037D01*
X121543Y188019D01*
X121626Y187982D01*
X121737Y187945D01*
X121848Y187899D01*
X121959Y187834D01*
X122070Y187769D01*
X122088Y187760D01*
X122125Y187732D01*
X122190Y187677D01*
X122264Y187612D01*
X122347Y187529D01*
X122439Y187427D01*
X122523Y187316D01*
X122597Y187187D01*
X122606Y187168D01*
X122624Y187122D01*
X122661Y187048D01*
X122698Y186946D01*
X122726Y186826D01*
X122763Y186678D01*
X122781Y186512D01*
X122791Y186327D01*
Y186308D01*
Y186262D01*
X122781Y186188D01*
X122772Y186087D01*
X122754Y185976D01*
X122726Y185855D01*
X122689Y185717D01*
X122643Y185587D01*
X122633Y185569D01*
X122615Y185532D01*
X122587Y185467D01*
X122541Y185384D01*
X122486Y185291D01*
X122421Y185190D01*
X122347Y185088D01*
X122264Y184996D01*
X122245Y184986D01*
X122208Y184949D01*
X122143Y184894D01*
X122051Y184820D01*
X121949Y184746D01*
X121820Y184672D01*
X121681Y184598D01*
X121533Y184533D01*
X121515Y184524D01*
X121459Y184506D01*
X121367Y184487D01*
X121247Y184459D01*
X121089Y184422D01*
X120914Y184404D01*
X120710Y184385D01*
X120479Y184376D01*
X119804D01*
Y182129D01*
X119000D01*
Y188148D01*
X120692D01*
X120821Y188139D01*
D02*
G37*
G36*
X157120Y186641D02*
X158516D01*
Y186003D01*
X157120D01*
Y183858D01*
Y183840D01*
Y183803D01*
Y183738D01*
Y183664D01*
Y183489D01*
X157129Y183405D01*
Y183331D01*
Y183322D01*
Y183304D01*
X157138Y183267D01*
X157147Y183220D01*
X157175Y183109D01*
X157221Y182980D01*
Y182971D01*
X157231Y182962D01*
X157277Y182906D01*
X157341Y182832D01*
X157434Y182767D01*
X157443D01*
X157462Y182758D01*
X157499Y182749D01*
X157545Y182740D01*
X157610Y182721D01*
X157684Y182712D01*
X157767Y182703D01*
X157924D01*
X157970Y182712D01*
X158090Y182730D01*
X158211Y182758D01*
X158220D01*
X158238Y182767D01*
X158275Y182777D01*
X158312Y182795D01*
X158396Y182823D01*
X158469Y182851D01*
X158516D01*
Y182166D01*
X158506D01*
X158479Y182157D01*
X158433Y182148D01*
X158377Y182139D01*
X158312Y182120D01*
X158238Y182102D01*
X158072Y182074D01*
X158063D01*
X158035Y182065D01*
X157998D01*
X157942Y182055D01*
X157813Y182046D01*
X157674Y182037D01*
X157619D01*
X157573Y182046D01*
X157517D01*
X157462Y182055D01*
X157323Y182083D01*
X157166Y182120D01*
X156999Y182185D01*
X156842Y182268D01*
X156704Y182388D01*
X156685Y182407D01*
X156648Y182453D01*
X156593Y182536D01*
X156537Y182656D01*
X156472Y182814D01*
X156417Y183008D01*
X156389Y183119D01*
X156380Y183230D01*
X156362Y183359D01*
Y183498D01*
Y186003D01*
X155853D01*
Y186641D01*
X156362D01*
Y187936D01*
X157120D01*
Y186641D01*
D02*
G37*
G36*
X154355D02*
X155751D01*
Y186003D01*
X154355D01*
Y183858D01*
Y183840D01*
Y183803D01*
Y183738D01*
Y183664D01*
Y183489D01*
X154364Y183405D01*
Y183331D01*
Y183322D01*
Y183304D01*
X154374Y183267D01*
X154383Y183220D01*
X154411Y183109D01*
X154457Y182980D01*
Y182971D01*
X154466Y182962D01*
X154512Y182906D01*
X154577Y182832D01*
X154670Y182767D01*
X154679D01*
X154697Y182758D01*
X154734Y182749D01*
X154781Y182740D01*
X154845Y182721D01*
X154919Y182712D01*
X155002Y182703D01*
X155160D01*
X155206Y182712D01*
X155326Y182730D01*
X155446Y182758D01*
X155455D01*
X155474Y182767D01*
X155511Y182777D01*
X155548Y182795D01*
X155631Y182823D01*
X155705Y182851D01*
X155751D01*
Y182166D01*
X155742D01*
X155714Y182157D01*
X155668Y182148D01*
X155613Y182139D01*
X155548Y182120D01*
X155474Y182102D01*
X155308Y182074D01*
X155298D01*
X155271Y182065D01*
X155233D01*
X155178Y182055D01*
X155049Y182046D01*
X154910Y182037D01*
X154854D01*
X154808Y182046D01*
X154753D01*
X154697Y182055D01*
X154559Y182083D01*
X154401Y182120D01*
X154235Y182185D01*
X154078Y182268D01*
X153939Y182388D01*
X153921Y182407D01*
X153884Y182453D01*
X153828Y182536D01*
X153773Y182656D01*
X153708Y182814D01*
X153652Y183008D01*
X153625Y183119D01*
X153616Y183230D01*
X153597Y183359D01*
Y183498D01*
Y186003D01*
X153089D01*
Y186641D01*
X153597D01*
Y187936D01*
X154355D01*
Y186641D01*
D02*
G37*
G36*
X136049Y186761D02*
X136151Y186752D01*
X136262Y186743D01*
X136391Y186715D01*
X136520Y186688D01*
X136641Y186641D01*
X136659Y186632D01*
X136696Y186623D01*
X136751Y186586D01*
X136835Y186549D01*
X136918Y186493D01*
X137020Y186429D01*
X137112Y186355D01*
X137205Y186262D01*
X137214Y186253D01*
X137242Y186216D01*
X137288Y186161D01*
X137343Y186087D01*
X137408Y185994D01*
X137473Y185892D01*
X137528Y185763D01*
X137584Y185634D01*
X137593Y185615D01*
X137602Y185569D01*
X137621Y185486D01*
X137648Y185384D01*
X137676Y185245D01*
X137695Y185088D01*
X137704Y184912D01*
X137713Y184718D01*
Y184311D01*
X134579D01*
Y184302D01*
Y184274D01*
Y184237D01*
X134588Y184182D01*
Y184117D01*
X134597Y184034D01*
X134625Y183858D01*
X134671Y183664D01*
X134745Y183461D01*
X134838Y183276D01*
X134967Y183100D01*
X134976D01*
X134986Y183082D01*
X135041Y183036D01*
X135134Y182971D01*
X135254Y182897D01*
X135411Y182823D01*
X135596Y182758D01*
X135818Y182712D01*
X135938Y182703D01*
X136067Y182693D01*
X136160D01*
X136224Y182703D01*
X136299D01*
X136382Y182721D01*
X136557Y182749D01*
X136567D01*
X136604Y182758D01*
X136650Y182767D01*
X136705Y182786D01*
X136853Y182832D01*
X137001Y182888D01*
X137010D01*
X137038Y182906D01*
X137075Y182925D01*
X137121Y182943D01*
X137232Y182999D01*
X137343Y183063D01*
X137353D01*
X137371Y183082D01*
X137427Y183119D01*
X137510Y183174D01*
X137584Y183239D01*
X137630D01*
Y182407D01*
X137621D01*
X137602Y182398D01*
X137574Y182388D01*
X137537Y182370D01*
X137482Y182351D01*
X137427Y182324D01*
X137288Y182268D01*
X137278D01*
X137251Y182259D01*
X137214Y182240D01*
X137168Y182222D01*
X137057Y182185D01*
X136937Y182148D01*
X136927D01*
X136899Y182139D01*
X136853Y182129D01*
X136807Y182120D01*
X136668Y182092D01*
X136530Y182065D01*
X136520D01*
X136502Y182055D01*
X136456D01*
X136410Y182046D01*
X136345Y182037D01*
X136262D01*
X136178Y182028D01*
X135975D01*
X135901Y182037D01*
X135808Y182046D01*
X135707Y182055D01*
X135587Y182074D01*
X135466Y182102D01*
X135198Y182176D01*
X135060Y182222D01*
X134921Y182277D01*
X134782Y182351D01*
X134643Y182435D01*
X134523Y182527D01*
X134403Y182629D01*
X134394Y182638D01*
X134375Y182656D01*
X134348Y182693D01*
X134311Y182740D01*
X134264Y182804D01*
X134218Y182878D01*
X134163Y182971D01*
X134107Y183072D01*
X134052Y183193D01*
X133996Y183322D01*
X133950Y183461D01*
X133904Y183618D01*
X133867Y183784D01*
X133839Y183960D01*
X133821Y184154D01*
X133811Y184358D01*
Y184367D01*
Y184404D01*
Y184459D01*
X133821Y184543D01*
X133830Y184635D01*
X133839Y184737D01*
X133858Y184857D01*
X133885Y184986D01*
X133950Y185273D01*
X133996Y185421D01*
X134052Y185560D01*
X134116Y185707D01*
X134200Y185846D01*
X134283Y185985D01*
X134385Y186114D01*
X134394Y186124D01*
X134412Y186142D01*
X134449Y186179D01*
X134486Y186216D01*
X134551Y186262D01*
X134616Y186318D01*
X134699Y186382D01*
X134791Y186447D01*
X134893Y186503D01*
X135013Y186567D01*
X135134Y186623D01*
X135272Y186669D01*
X135411Y186706D01*
X135568Y186743D01*
X135735Y186761D01*
X135901Y186771D01*
X135975D01*
X136049Y186761D01*
D02*
G37*
G36*
X160919D02*
X161003Y186752D01*
X161086Y186734D01*
X161188Y186715D01*
X161299Y186697D01*
X161530Y186614D01*
X161650Y186567D01*
X161770Y186503D01*
X161900Y186438D01*
X162010Y186345D01*
X162131Y186253D01*
X162232Y186142D01*
X162242Y186133D01*
X162260Y186114D01*
X162288Y186077D01*
X162316Y186022D01*
X162362Y185966D01*
X162408Y185883D01*
X162454Y185791D01*
X162510Y185689D01*
X162565Y185569D01*
X162612Y185439D01*
X162658Y185291D01*
X162704Y185134D01*
X162732Y184959D01*
X162759Y184783D01*
X162778Y184580D01*
X162787Y184376D01*
Y184367D01*
Y184330D01*
Y184265D01*
X162778Y184191D01*
X162769Y184090D01*
X162759Y183988D01*
X162741Y183858D01*
X162722Y183729D01*
X162649Y183452D01*
X162612Y183304D01*
X162556Y183156D01*
X162491Y183008D01*
X162417Y182869D01*
X162334Y182740D01*
X162232Y182619D01*
X162223Y182610D01*
X162205Y182592D01*
X162177Y182564D01*
X162131Y182527D01*
X162075Y182472D01*
X162010Y182425D01*
X161937Y182370D01*
X161844Y182314D01*
X161742Y182250D01*
X161641Y182194D01*
X161521Y182148D01*
X161382Y182102D01*
X161243Y182055D01*
X161095Y182028D01*
X160938Y182009D01*
X160772Y182000D01*
X160679D01*
X160614Y182009D01*
X160541Y182019D01*
X160448Y182037D01*
X160346Y182055D01*
X160235Y182083D01*
X160115Y182111D01*
X159995Y182157D01*
X159875Y182203D01*
X159755Y182268D01*
X159625Y182342D01*
X159514Y182425D01*
X159394Y182527D01*
X159292Y182638D01*
X159283Y182647D01*
X159274Y182666D01*
X159246Y182703D01*
X159209Y182758D01*
X159172Y182823D01*
X159126Y182897D01*
X159070Y182989D01*
X159024Y183091D01*
X158978Y183211D01*
X158923Y183341D01*
X158876Y183489D01*
X158839Y183636D01*
X158802Y183803D01*
X158784Y183988D01*
X158765Y184173D01*
X158756Y184376D01*
Y184385D01*
Y184422D01*
Y184487D01*
X158765Y184561D01*
X158775Y184663D01*
X158784Y184774D01*
X158802Y184894D01*
X158830Y185023D01*
X158895Y185310D01*
X158941Y185458D01*
X158987Y185606D01*
X159052Y185744D01*
X159126Y185883D01*
X159209Y186022D01*
X159311Y186142D01*
X159320Y186151D01*
X159339Y186170D01*
X159366Y186197D01*
X159412Y186244D01*
X159468Y186290D01*
X159533Y186345D01*
X159616Y186401D01*
X159699Y186456D01*
X159801Y186512D01*
X159912Y186577D01*
X160032Y186623D01*
X160161Y186669D01*
X160300Y186715D01*
X160448Y186743D01*
X160605Y186761D01*
X160772Y186771D01*
X160864D01*
X160919Y186761D01*
D02*
G37*
G36*
X125343D02*
X125426Y186752D01*
X125509Y186734D01*
X125611Y186715D01*
X125722Y186697D01*
X125953Y186614D01*
X126073Y186567D01*
X126193Y186503D01*
X126322Y186438D01*
X126433Y186345D01*
X126554Y186253D01*
X126655Y186142D01*
X126665Y186133D01*
X126683Y186114D01*
X126711Y186077D01*
X126739Y186022D01*
X126785Y185966D01*
X126831Y185883D01*
X126877Y185791D01*
X126933Y185689D01*
X126988Y185569D01*
X127034Y185439D01*
X127081Y185291D01*
X127127Y185134D01*
X127155Y184959D01*
X127182Y184783D01*
X127201Y184580D01*
X127210Y184376D01*
Y184367D01*
Y184330D01*
Y184265D01*
X127201Y184191D01*
X127192Y184090D01*
X127182Y183988D01*
X127164Y183858D01*
X127145Y183729D01*
X127071Y183452D01*
X127034Y183304D01*
X126979Y183156D01*
X126914Y183008D01*
X126840Y182869D01*
X126757Y182740D01*
X126655Y182619D01*
X126646Y182610D01*
X126628Y182592D01*
X126600Y182564D01*
X126554Y182527D01*
X126498Y182472D01*
X126433Y182425D01*
X126360Y182370D01*
X126267Y182314D01*
X126165Y182250D01*
X126064Y182194D01*
X125943Y182148D01*
X125805Y182102D01*
X125666Y182055D01*
X125518Y182028D01*
X125361Y182009D01*
X125195Y182000D01*
X125102D01*
X125037Y182009D01*
X124963Y182019D01*
X124871Y182037D01*
X124769Y182055D01*
X124658Y182083D01*
X124538Y182111D01*
X124418Y182157D01*
X124298Y182203D01*
X124178Y182268D01*
X124048Y182342D01*
X123937Y182425D01*
X123817Y182527D01*
X123715Y182638D01*
X123706Y182647D01*
X123697Y182666D01*
X123669Y182703D01*
X123632Y182758D01*
X123595Y182823D01*
X123549Y182897D01*
X123493Y182989D01*
X123447Y183091D01*
X123401Y183211D01*
X123345Y183341D01*
X123299Y183489D01*
X123262Y183636D01*
X123225Y183803D01*
X123207Y183988D01*
X123188Y184173D01*
X123179Y184376D01*
Y184385D01*
Y184422D01*
Y184487D01*
X123188Y184561D01*
X123197Y184663D01*
X123207Y184774D01*
X123225Y184894D01*
X123253Y185023D01*
X123318Y185310D01*
X123364Y185458D01*
X123410Y185606D01*
X123475Y185744D01*
X123549Y185883D01*
X123632Y186022D01*
X123734Y186142D01*
X123743Y186151D01*
X123762Y186170D01*
X123789Y186197D01*
X123835Y186244D01*
X123891Y186290D01*
X123956Y186345D01*
X124039Y186401D01*
X124122Y186456D01*
X124224Y186512D01*
X124335Y186577D01*
X124455Y186623D01*
X124584Y186669D01*
X124723Y186715D01*
X124871Y186743D01*
X125028Y186761D01*
X125195Y186771D01*
X125287D01*
X125343Y186761D01*
D02*
G37*
G36*
X278364Y81129D02*
X277560D01*
Y84079D01*
X274804D01*
Y81129D01*
X274000D01*
Y87148D01*
X274804D01*
Y84791D01*
X277560D01*
Y87148D01*
X278364D01*
Y81129D01*
D02*
G37*
G36*
X291206Y87139D02*
X291400Y87130D01*
X291613Y87121D01*
X291835Y87093D01*
X292047Y87065D01*
X292242Y87019D01*
X292251D01*
X292260Y87010D01*
X292288D01*
X292325Y86991D01*
X292408Y86963D01*
X292528Y86926D01*
X292658Y86880D01*
X292796Y86816D01*
X292935Y86751D01*
X293064Y86667D01*
X293074D01*
X293092Y86649D01*
X293120Y86631D01*
X293157Y86594D01*
X293268Y86510D01*
X293397Y86390D01*
X293536Y86242D01*
X293693Y86067D01*
X293832Y85872D01*
X293961Y85641D01*
Y85632D01*
X293980Y85613D01*
X293989Y85577D01*
X294017Y85530D01*
X294035Y85466D01*
X294063Y85392D01*
X294091Y85308D01*
X294128Y85216D01*
X294155Y85114D01*
X294183Y84994D01*
X294211Y84874D01*
X294239Y84735D01*
X294276Y84449D01*
X294285Y84125D01*
Y84116D01*
Y84088D01*
Y84042D01*
X294276Y83986D01*
Y83912D01*
X294266Y83829D01*
X294257Y83737D01*
X294248Y83635D01*
X294202Y83404D01*
X294146Y83154D01*
X294063Y82895D01*
X293952Y82636D01*
Y82627D01*
X293934Y82609D01*
X293915Y82572D01*
X293887Y82526D01*
X293860Y82470D01*
X293813Y82405D01*
X293712Y82267D01*
X293591Y82100D01*
X293434Y81925D01*
X293259Y81758D01*
X293055Y81610D01*
X293046D01*
X293037Y81601D01*
X293009Y81582D01*
X292981Y81564D01*
X292889Y81509D01*
X292769Y81453D01*
X292630Y81388D01*
X292473Y81324D01*
X292306Y81268D01*
X292131Y81222D01*
X292112D01*
X292084Y81213D01*
X292047Y81203D01*
X292001D01*
X291946Y81194D01*
X291807Y81176D01*
X291631Y81157D01*
X291428Y81148D01*
X291188Y81129D01*
X289551D01*
Y87148D01*
X291123D01*
X291206Y87139D01*
D02*
G37*
G36*
X286241Y81841D02*
X288922D01*
Y81129D01*
X285437D01*
Y87148D01*
X286241D01*
Y81841D01*
D02*
G37*
G36*
X282053Y87268D02*
X282118D01*
X282266Y87250D01*
X282432Y87222D01*
X282617Y87185D01*
X282811Y87130D01*
X282996Y87056D01*
X283005D01*
X283015Y87047D01*
X283042Y87037D01*
X283079Y87019D01*
X283172Y86973D01*
X283292Y86899D01*
X283421Y86816D01*
X283560Y86714D01*
X283699Y86594D01*
X283828Y86455D01*
X283847Y86436D01*
X283884Y86381D01*
X283948Y86298D01*
X284022Y86187D01*
X284105Y86039D01*
X284198Y85872D01*
X284290Y85678D01*
X284364Y85466D01*
Y85456D01*
X284374Y85438D01*
X284383Y85410D01*
X284392Y85364D01*
X284411Y85308D01*
X284429Y85244D01*
X284447Y85170D01*
X284466Y85077D01*
X284494Y84883D01*
X284531Y84661D01*
X284549Y84402D01*
X284559Y84134D01*
Y84125D01*
Y84107D01*
Y84060D01*
Y84014D01*
X284549Y83949D01*
Y83875D01*
X284540Y83792D01*
X284531Y83700D01*
X284512Y83487D01*
X284475Y83265D01*
X284429Y83043D01*
X284364Y82812D01*
Y82803D01*
X284355Y82784D01*
X284346Y82757D01*
X284327Y82710D01*
X284309Y82664D01*
X284290Y82599D01*
X284226Y82470D01*
X284152Y82313D01*
X284059Y82137D01*
X283948Y81971D01*
X283828Y81814D01*
X283810Y81795D01*
X283763Y81749D01*
X283689Y81675D01*
X283588Y81582D01*
X283458Y81481D01*
X283320Y81379D01*
X283153Y81277D01*
X282978Y81194D01*
X282968D01*
X282959Y81185D01*
X282931Y81176D01*
X282894Y81166D01*
X282793Y81129D01*
X282663Y81102D01*
X282497Y81065D01*
X282312Y81028D01*
X282108Y81009D01*
X281896Y81000D01*
X281794D01*
X281739Y81009D01*
X281674D01*
X281526Y81028D01*
X281360Y81046D01*
X281175Y81083D01*
X280980Y81139D01*
X280795Y81203D01*
X280786D01*
X280777Y81213D01*
X280749Y81222D01*
X280712Y81240D01*
X280620Y81287D01*
X280509Y81361D01*
X280380Y81444D01*
X280231Y81545D01*
X280093Y81675D01*
X279954Y81814D01*
Y81823D01*
X279936Y81832D01*
X279899Y81888D01*
X279834Y81971D01*
X279760Y82091D01*
X279677Y82230D01*
X279584Y82405D01*
X279501Y82590D01*
X279427Y82803D01*
Y82812D01*
X279418Y82831D01*
X279409Y82858D01*
X279399Y82905D01*
X279381Y82960D01*
X279372Y83034D01*
X279353Y83108D01*
X279335Y83191D01*
X279298Y83385D01*
X279270Y83617D01*
X279251Y83866D01*
X279242Y84134D01*
Y84143D01*
Y84171D01*
Y84208D01*
Y84264D01*
X279251Y84328D01*
Y84402D01*
X279261Y84495D01*
X279270Y84587D01*
X279289Y84791D01*
X279316Y85013D01*
X279363Y85244D01*
X279427Y85466D01*
Y85475D01*
X279436Y85493D01*
X279446Y85521D01*
X279464Y85558D01*
X279501Y85669D01*
X279566Y85808D01*
X279640Y85956D01*
X279732Y86122D01*
X279843Y86298D01*
X279963Y86455D01*
Y86464D01*
X279982Y86473D01*
X280028Y86520D01*
X280102Y86594D01*
X280195Y86677D01*
X280315Y86778D01*
X280463Y86880D01*
X280620Y86982D01*
X280795Y87065D01*
X280805D01*
X280814Y87074D01*
X280842Y87084D01*
X280879Y87102D01*
X280925Y87111D01*
X280980Y87130D01*
X281119Y87176D01*
X281276Y87213D01*
X281471Y87241D01*
X281674Y87268D01*
X281896Y87278D01*
X281998D01*
X282053Y87268D01*
D02*
G37*
G36*
X296746Y144000D02*
X295840D01*
X293196Y149187D01*
Y144000D01*
X292447D01*
Y150019D01*
X293575D01*
X295998Y145248D01*
Y150019D01*
X296746D01*
Y144000D01*
D02*
G37*
G36*
X272791D02*
X271894D01*
X270665Y148993D01*
X269481Y144000D01*
X268584D01*
X267050Y150019D01*
X267872D01*
X269084Y145035D01*
X270285Y150019D01*
X271099D01*
X272310Y144962D01*
X273521Y150019D01*
X274307D01*
X272791Y144000D01*
D02*
G37*
G36*
X291846Y149307D02*
X289821D01*
Y144000D01*
X289017D01*
Y149307D01*
X286992D01*
Y150019D01*
X291846D01*
Y149307D01*
D02*
G37*
G36*
X284690Y150010D02*
X284847D01*
X285005Y150000D01*
X285152Y149991D01*
X285282Y149973D01*
X285300D01*
X285337Y149963D01*
X285402Y149954D01*
X285485Y149926D01*
X285578Y149899D01*
X285679Y149871D01*
X285790Y149825D01*
X285901Y149769D01*
X285920Y149760D01*
X285957Y149741D01*
X286012Y149695D01*
X286086Y149649D01*
X286160Y149584D01*
X286234Y149501D01*
X286308Y149418D01*
X286373Y149316D01*
X286382Y149307D01*
X286401Y149270D01*
X286419Y149205D01*
X286456Y149131D01*
X286484Y149030D01*
X286502Y148919D01*
X286521Y148789D01*
X286530Y148651D01*
Y148632D01*
Y148577D01*
X286521Y148503D01*
X286502Y148401D01*
X286475Y148281D01*
X286428Y148151D01*
X286373Y148022D01*
X286299Y147892D01*
X286290Y147874D01*
X286262Y147837D01*
X286206Y147781D01*
X286142Y147698D01*
X286049Y147615D01*
X285948Y147532D01*
X285827Y147449D01*
X285689Y147365D01*
Y147338D01*
X285698D01*
X285716Y147328D01*
X285744Y147319D01*
X285781Y147310D01*
X285874Y147273D01*
X285994Y147218D01*
X286123Y147143D01*
X286262Y147051D01*
X286401Y146940D01*
X286521Y146801D01*
X286530Y146783D01*
X286567Y146737D01*
X286613Y146653D01*
X286669Y146543D01*
X286724Y146404D01*
X286770Y146237D01*
X286807Y146053D01*
X286817Y145840D01*
Y145831D01*
Y145821D01*
Y145766D01*
X286807Y145683D01*
X286798Y145572D01*
X286770Y145452D01*
X286743Y145322D01*
X286696Y145183D01*
X286641Y145045D01*
X286632Y145026D01*
X286613Y144989D01*
X286576Y144925D01*
X286521Y144851D01*
X286456Y144758D01*
X286382Y144666D01*
X286290Y144573D01*
X286188Y144481D01*
X286169Y144472D01*
X286133Y144434D01*
X286059Y144398D01*
X285966Y144342D01*
X285855Y144277D01*
X285735Y144213D01*
X285596Y144157D01*
X285458Y144111D01*
X285439D01*
X285384Y144092D01*
X285300Y144074D01*
X285189Y144056D01*
X285042Y144037D01*
X284875Y144018D01*
X284681Y144009D01*
X284459Y144000D01*
X282739D01*
Y150019D01*
X284552D01*
X284690Y150010D01*
D02*
G37*
G36*
X276868D02*
X277007Y150000D01*
X277146Y149991D01*
X277294Y149973D01*
X277432Y149954D01*
X277451D01*
X277497Y149945D01*
X277562Y149926D01*
X277645Y149899D01*
X277747Y149871D01*
X277858Y149825D01*
X277978Y149769D01*
X278098Y149695D01*
X278117Y149686D01*
X278153Y149658D01*
X278209Y149612D01*
X278283Y149557D01*
X278357Y149473D01*
X278440Y149390D01*
X278523Y149289D01*
X278597Y149168D01*
X278607Y149150D01*
X278625Y149113D01*
X278653Y149048D01*
X278690Y148956D01*
X278727Y148835D01*
X278755Y148706D01*
X278773Y148549D01*
X278782Y148382D01*
Y148373D01*
Y148355D01*
Y148318D01*
X278773Y148272D01*
Y148216D01*
X278764Y148151D01*
X278736Y147994D01*
X278699Y147818D01*
X278634Y147633D01*
X278551Y147449D01*
X278440Y147273D01*
Y147264D01*
X278422Y147254D01*
X278375Y147199D01*
X278302Y147125D01*
X278200Y147023D01*
X278070Y146922D01*
X277913Y146811D01*
X277728Y146709D01*
X277525Y146616D01*
X279670Y144000D01*
X278625D01*
X276730Y146395D01*
X275824D01*
Y144000D01*
X275019D01*
Y150019D01*
X276748D01*
X276868Y150010D01*
D02*
G37*
G36*
X264821D02*
X264960Y150000D01*
X265108Y149982D01*
X265256Y149954D01*
X265404Y149926D01*
X265422D01*
X265469Y149908D01*
X265543Y149889D01*
X265626Y149853D01*
X265737Y149816D01*
X265848Y149769D01*
X265959Y149705D01*
X266070Y149640D01*
X266088Y149631D01*
X266125Y149603D01*
X266190Y149547D01*
X266264Y149483D01*
X266347Y149399D01*
X266439Y149298D01*
X266523Y149187D01*
X266597Y149057D01*
X266606Y149039D01*
X266624Y148993D01*
X266661Y148919D01*
X266698Y148817D01*
X266726Y148697D01*
X266763Y148549D01*
X266782Y148382D01*
X266791Y148197D01*
Y148179D01*
Y148133D01*
X266782Y148059D01*
X266772Y147957D01*
X266754Y147846D01*
X266726Y147726D01*
X266689Y147587D01*
X266643Y147458D01*
X266633Y147439D01*
X266615Y147402D01*
X266587Y147338D01*
X266541Y147254D01*
X266486Y147162D01*
X266421Y147060D01*
X266347Y146959D01*
X266264Y146866D01*
X266245Y146857D01*
X266208Y146820D01*
X266143Y146764D01*
X266051Y146691D01*
X265949Y146616D01*
X265820Y146543D01*
X265681Y146469D01*
X265533Y146404D01*
X265515Y146395D01*
X265459Y146376D01*
X265367Y146358D01*
X265247Y146330D01*
X265089Y146293D01*
X264914Y146274D01*
X264710Y146256D01*
X264479Y146247D01*
X263804D01*
Y144000D01*
X263000D01*
Y150019D01*
X264692D01*
X264821Y150010D01*
D02*
G37*
G36*
X274475Y19385D02*
Y19376D01*
Y19358D01*
Y19321D01*
Y19284D01*
Y19228D01*
X274466Y19164D01*
X274457Y19016D01*
X274447Y18849D01*
X274420Y18664D01*
X274392Y18479D01*
X274346Y18304D01*
Y18294D01*
X274337Y18285D01*
X274318Y18230D01*
X274290Y18146D01*
X274244Y18045D01*
X274179Y17925D01*
X274096Y17795D01*
X274004Y17666D01*
X273893Y17545D01*
X273884Y17536D01*
X273847Y17499D01*
X273782Y17453D01*
X273699Y17388D01*
X273606Y17324D01*
X273495Y17250D01*
X273366Y17185D01*
X273227Y17129D01*
X273209Y17120D01*
X273162Y17111D01*
X273079Y17092D01*
X272968Y17065D01*
X272830Y17037D01*
X272672Y17019D01*
X272497Y17009D01*
X272293Y17000D01*
X272201D01*
X272099Y17009D01*
X271979Y17019D01*
X271831Y17037D01*
X271674Y17055D01*
X271517Y17092D01*
X271360Y17139D01*
X271341Y17148D01*
X271295Y17166D01*
X271221Y17194D01*
X271128Y17240D01*
X271027Y17296D01*
X270916Y17370D01*
X270805Y17453D01*
X270694Y17545D01*
X270685Y17564D01*
X270638Y17601D01*
X270583Y17675D01*
X270518Y17758D01*
X270444Y17869D01*
X270370Y17998D01*
X270296Y18146D01*
X270241Y18304D01*
Y18313D01*
X270231Y18322D01*
Y18350D01*
X270222Y18387D01*
X270204Y18479D01*
X270185Y18609D01*
X270158Y18766D01*
X270139Y18951D01*
X270130Y19154D01*
X270121Y19385D01*
Y23148D01*
X270925D01*
Y19395D01*
Y19376D01*
Y19330D01*
Y19247D01*
X270934Y19154D01*
Y19043D01*
X270944Y18923D01*
X270953Y18803D01*
X270971Y18692D01*
Y18683D01*
X270980Y18646D01*
X270999Y18590D01*
X271017Y18526D01*
X271045Y18442D01*
X271082Y18359D01*
X271175Y18183D01*
X271184Y18174D01*
X271202Y18146D01*
X271239Y18100D01*
X271295Y18045D01*
X271360Y17989D01*
X271434Y17925D01*
X271517Y17869D01*
X271618Y17814D01*
X271628Y17804D01*
X271665Y17795D01*
X271729Y17777D01*
X271803Y17758D01*
X271905Y17730D01*
X272016Y17712D01*
X272155Y17703D01*
X272293Y17693D01*
X272358D01*
X272423Y17703D01*
X272515Y17712D01*
X272617Y17721D01*
X272728Y17749D01*
X272839Y17777D01*
X272950Y17814D01*
X272959Y17823D01*
X272996Y17841D01*
X273051Y17869D01*
X273116Y17906D01*
X273190Y17961D01*
X273273Y18026D01*
X273347Y18100D01*
X273412Y18183D01*
X273421Y18193D01*
X273440Y18220D01*
X273458Y18276D01*
X273495Y18331D01*
X273523Y18405D01*
X273560Y18498D01*
X273615Y18692D01*
Y18701D01*
X273625Y18738D01*
X273634Y18803D01*
X273643Y18886D01*
X273652Y18979D01*
X273662Y19099D01*
X273671Y19228D01*
Y19376D01*
Y23148D01*
X274475D01*
Y19385D01*
D02*
G37*
G36*
X279856Y22436D02*
X277831D01*
Y17129D01*
X277027D01*
Y22436D01*
X275002D01*
Y23148D01*
X279856D01*
Y22436D01*
D02*
G37*
G36*
X266811Y23268D02*
X266875D01*
X267023Y23250D01*
X267190Y23222D01*
X267375Y23185D01*
X267569Y23130D01*
X267754Y23056D01*
X267763D01*
X267772Y23047D01*
X267800Y23037D01*
X267837Y23019D01*
X267929Y22973D01*
X268050Y22899D01*
X268179Y22815D01*
X268318Y22714D01*
X268456Y22594D01*
X268586Y22455D01*
X268604Y22436D01*
X268641Y22381D01*
X268706Y22298D01*
X268780Y22187D01*
X268863Y22039D01*
X268956Y21872D01*
X269048Y21678D01*
X269122Y21466D01*
Y21456D01*
X269131Y21438D01*
X269141Y21410D01*
X269150Y21364D01*
X269168Y21308D01*
X269187Y21244D01*
X269205Y21170D01*
X269224Y21077D01*
X269251Y20883D01*
X269289Y20661D01*
X269307Y20402D01*
X269316Y20134D01*
Y20125D01*
Y20106D01*
Y20060D01*
Y20014D01*
X269307Y19949D01*
Y19875D01*
X269298Y19792D01*
X269289Y19700D01*
X269270Y19487D01*
X269233Y19265D01*
X269187Y19043D01*
X269122Y18812D01*
Y18803D01*
X269113Y18784D01*
X269104Y18757D01*
X269085Y18710D01*
X269067Y18664D01*
X269048Y18599D01*
X268983Y18470D01*
X268909Y18313D01*
X268817Y18137D01*
X268706Y17971D01*
X268586Y17814D01*
X268567Y17795D01*
X268521Y17749D01*
X268447Y17675D01*
X268345Y17582D01*
X268216Y17481D01*
X268077Y17379D01*
X267911Y17277D01*
X267735Y17194D01*
X267726D01*
X267717Y17185D01*
X267689Y17176D01*
X267652Y17166D01*
X267550Y17129D01*
X267421Y17102D01*
X267255Y17065D01*
X267069Y17028D01*
X266866Y17009D01*
X266653Y17000D01*
X266552D01*
X266496Y17009D01*
X266432D01*
X266284Y17028D01*
X266117Y17046D01*
X265932Y17083D01*
X265738Y17139D01*
X265553Y17203D01*
X265544D01*
X265535Y17213D01*
X265507Y17222D01*
X265470Y17240D01*
X265378Y17287D01*
X265267Y17361D01*
X265137Y17444D01*
X264989Y17545D01*
X264851Y17675D01*
X264712Y17814D01*
Y17823D01*
X264693Y17832D01*
X264656Y17888D01*
X264592Y17971D01*
X264518Y18091D01*
X264435Y18230D01*
X264342Y18405D01*
X264259Y18590D01*
X264185Y18803D01*
Y18812D01*
X264176Y18831D01*
X264166Y18858D01*
X264157Y18905D01*
X264139Y18960D01*
X264129Y19034D01*
X264111Y19108D01*
X264093Y19191D01*
X264056Y19385D01*
X264028Y19617D01*
X264009Y19866D01*
X264000Y20134D01*
Y20143D01*
Y20171D01*
Y20208D01*
Y20264D01*
X264009Y20328D01*
Y20402D01*
X264018Y20495D01*
X264028Y20587D01*
X264046Y20791D01*
X264074Y21013D01*
X264120Y21244D01*
X264185Y21466D01*
Y21475D01*
X264194Y21493D01*
X264203Y21521D01*
X264222Y21558D01*
X264259Y21669D01*
X264324Y21808D01*
X264398Y21956D01*
X264490Y22122D01*
X264601Y22298D01*
X264721Y22455D01*
Y22464D01*
X264740Y22473D01*
X264786Y22520D01*
X264860Y22594D01*
X264952Y22677D01*
X265072Y22778D01*
X265220Y22880D01*
X265378Y22982D01*
X265553Y23065D01*
X265562D01*
X265572Y23074D01*
X265599Y23084D01*
X265637Y23102D01*
X265683Y23111D01*
X265738Y23130D01*
X265877Y23176D01*
X266034Y23213D01*
X266228Y23241D01*
X266432Y23268D01*
X266653Y23278D01*
X266755D01*
X266811Y23268D01*
D02*
G37*
G36*
X66302Y15167D02*
X66311D01*
X66348Y15158D01*
X66385D01*
X66441Y15148D01*
Y14353D01*
X66376D01*
X66339Y14362D01*
X66283Y14372D01*
X66209Y14381D01*
X66191D01*
X66145Y14390D01*
X65932D01*
X65877Y14381D01*
X65793Y14372D01*
X65701Y14353D01*
X65590Y14335D01*
X65479Y14298D01*
X65368Y14252D01*
X65359Y14242D01*
X65313Y14224D01*
X65257Y14196D01*
X65183Y14150D01*
X65091Y14094D01*
X64998Y14030D01*
X64896Y13946D01*
X64795Y13854D01*
Y10664D01*
X64037D01*
Y15176D01*
X64795D01*
Y14501D01*
X64804D01*
X64813Y14520D01*
X64869Y14566D01*
X64943Y14631D01*
X65044Y14705D01*
X65155Y14788D01*
X65276Y14880D01*
X65396Y14954D01*
X65516Y15019D01*
X65535Y15028D01*
X65571Y15047D01*
X65627Y15065D01*
X65710Y15102D01*
X65803Y15130D01*
X65904Y15148D01*
X66015Y15167D01*
X66126Y15176D01*
X66256D01*
X66302Y15167D01*
D02*
G37*
G36*
X68142Y9000D02*
X67328D01*
X68142Y10886D01*
X66505Y15176D01*
X67310D01*
X68549Y11820D01*
X69778Y15176D01*
X70573D01*
X68142Y9000D01*
D02*
G37*
G36*
X51509Y15278D02*
X51638Y15268D01*
X51768Y15259D01*
X51897Y15241D01*
X52017Y15213D01*
X52036D01*
X52073Y15195D01*
X52138Y15176D01*
X52212Y15148D01*
X52304Y15111D01*
X52396Y15065D01*
X52498Y15010D01*
X52600Y14945D01*
X52609Y14936D01*
X52637Y14908D01*
X52683Y14871D01*
X52739Y14815D01*
X52794Y14751D01*
X52849Y14668D01*
X52914Y14566D01*
X52961Y14464D01*
X52970Y14455D01*
X52979Y14409D01*
X52997Y14344D01*
X53025Y14261D01*
X53053Y14159D01*
X53071Y14039D01*
X53081Y13900D01*
X53090Y13743D01*
Y10664D01*
X52332D01*
Y11136D01*
X52313Y11127D01*
X52258Y11090D01*
X52184Y11025D01*
X52073Y10942D01*
X52064Y10932D01*
X52045Y10923D01*
X52017Y10895D01*
X51980Y10877D01*
X51888Y10812D01*
X51777Y10747D01*
X51768D01*
X51740Y10729D01*
X51703Y10720D01*
X51648Y10692D01*
X51527Y10646D01*
X51379Y10599D01*
X51370D01*
X51343Y10590D01*
X51305Y10581D01*
X51250Y10572D01*
X51176Y10553D01*
X51084Y10544D01*
X50982Y10535D01*
X50816D01*
X50760Y10544D01*
X50695D01*
X50612Y10562D01*
X50520Y10581D01*
X50427Y10599D01*
X50325Y10637D01*
X50316Y10646D01*
X50289Y10655D01*
X50233Y10683D01*
X50177Y10710D01*
X50039Y10803D01*
X49891Y10932D01*
X49882Y10942D01*
X49863Y10969D01*
X49826Y11006D01*
X49789Y11062D01*
X49734Y11127D01*
X49688Y11200D01*
X49641Y11293D01*
X49595Y11385D01*
Y11395D01*
X49577Y11432D01*
X49567Y11487D01*
X49549Y11561D01*
X49530Y11653D01*
X49512Y11746D01*
X49503Y11857D01*
X49493Y11968D01*
Y11977D01*
Y11986D01*
Y12042D01*
X49503Y12134D01*
X49521Y12245D01*
X49540Y12365D01*
X49577Y12495D01*
X49623Y12634D01*
X49688Y12763D01*
X49697Y12781D01*
X49724Y12818D01*
X49771Y12883D01*
X49836Y12957D01*
X49928Y13040D01*
X50039Y13124D01*
X50168Y13216D01*
X50316Y13290D01*
X50335Y13299D01*
X50381Y13318D01*
X50464Y13345D01*
X50575Y13382D01*
X50704Y13429D01*
X50852Y13466D01*
X51028Y13503D01*
X51213Y13530D01*
X51241D01*
X51269Y13540D01*
X51305D01*
X51352Y13549D01*
X51407D01*
X51546Y13567D01*
X51712Y13586D01*
X51906Y13604D01*
X52110Y13614D01*
X52332Y13632D01*
Y13771D01*
Y13780D01*
Y13817D01*
Y13863D01*
X52323Y13928D01*
X52295Y14067D01*
X52276Y14141D01*
X52249Y14205D01*
Y14215D01*
X52230Y14233D01*
X52212Y14261D01*
X52193Y14298D01*
X52119Y14381D01*
X52017Y14464D01*
X52008D01*
X51990Y14483D01*
X51962Y14492D01*
X51925Y14510D01*
X51870Y14538D01*
X51814Y14557D01*
X51666Y14584D01*
X51657D01*
X51629Y14594D01*
X51583D01*
X51537Y14603D01*
X51463Y14612D01*
X51398D01*
X51231Y14621D01*
X51130D01*
X51056Y14612D01*
X50963Y14603D01*
X50862Y14584D01*
X50742Y14566D01*
X50612Y14538D01*
X50594D01*
X50547Y14520D01*
X50483Y14501D01*
X50390Y14483D01*
X50289Y14446D01*
X50168Y14409D01*
X49900Y14307D01*
X49863D01*
Y15074D01*
X49872D01*
X49900Y15084D01*
X49946Y15102D01*
X50011Y15121D01*
X50094Y15139D01*
X50196Y15158D01*
X50316Y15185D01*
X50455Y15213D01*
X50473D01*
X50520Y15222D01*
X50603Y15241D01*
X50704Y15250D01*
X50825Y15268D01*
X50954Y15278D01*
X51241Y15287D01*
X51407D01*
X51509Y15278D01*
D02*
G37*
G36*
X46951Y16674D02*
X47108D01*
X47265Y16665D01*
X47413Y16655D01*
X47543Y16637D01*
X47561D01*
X47598Y16628D01*
X47663Y16618D01*
X47746Y16591D01*
X47838Y16563D01*
X47940Y16535D01*
X48051Y16489D01*
X48162Y16434D01*
X48180Y16424D01*
X48218Y16406D01*
X48273Y16359D01*
X48347Y16313D01*
X48421Y16249D01*
X48495Y16165D01*
X48569Y16082D01*
X48633Y15980D01*
X48643Y15971D01*
X48661Y15934D01*
X48680Y15869D01*
X48717Y15796D01*
X48745Y15694D01*
X48763Y15583D01*
X48781Y15453D01*
X48791Y15315D01*
Y15296D01*
Y15241D01*
X48781Y15167D01*
X48763Y15065D01*
X48735Y14945D01*
X48689Y14815D01*
X48633Y14686D01*
X48560Y14557D01*
X48550Y14538D01*
X48523Y14501D01*
X48467Y14446D01*
X48402Y14362D01*
X48310Y14279D01*
X48208Y14196D01*
X48088Y14113D01*
X47949Y14030D01*
Y14002D01*
X47959D01*
X47977Y13993D01*
X48005Y13983D01*
X48042Y13974D01*
X48134Y13937D01*
X48254Y13882D01*
X48384Y13808D01*
X48523Y13715D01*
X48661Y13604D01*
X48781Y13466D01*
X48791Y13447D01*
X48828Y13401D01*
X48874Y13318D01*
X48929Y13207D01*
X48985Y13068D01*
X49031Y12902D01*
X49068Y12717D01*
X49077Y12504D01*
Y12495D01*
Y12486D01*
Y12430D01*
X49068Y12347D01*
X49059Y12236D01*
X49031Y12116D01*
X49003Y11986D01*
X48957Y11848D01*
X48902Y11709D01*
X48892Y11690D01*
X48874Y11653D01*
X48837Y11589D01*
X48781Y11515D01*
X48717Y11422D01*
X48643Y11330D01*
X48550Y11237D01*
X48449Y11145D01*
X48430Y11136D01*
X48393Y11099D01*
X48319Y11062D01*
X48227Y11006D01*
X48116Y10942D01*
X47996Y10877D01*
X47857Y10821D01*
X47718Y10775D01*
X47700D01*
X47644Y10757D01*
X47561Y10738D01*
X47450Y10720D01*
X47302Y10701D01*
X47136Y10683D01*
X46942Y10674D01*
X46720Y10664D01*
X45000D01*
Y16683D01*
X46812D01*
X46951Y16674D01*
D02*
G37*
G36*
X57731Y15176D02*
X59127D01*
Y14538D01*
X57731D01*
Y12393D01*
Y12375D01*
Y12338D01*
Y12273D01*
Y12199D01*
Y12023D01*
X57740Y11940D01*
Y11866D01*
Y11857D01*
Y11838D01*
X57750Y11801D01*
X57759Y11755D01*
X57787Y11644D01*
X57833Y11515D01*
Y11506D01*
X57842Y11496D01*
X57888Y11441D01*
X57953Y11367D01*
X58046Y11302D01*
X58055D01*
X58073Y11293D01*
X58110Y11284D01*
X58156Y11274D01*
X58221Y11256D01*
X58295Y11247D01*
X58378Y11237D01*
X58536D01*
X58582Y11247D01*
X58702Y11265D01*
X58822Y11293D01*
X58831D01*
X58850Y11302D01*
X58887Y11311D01*
X58924Y11330D01*
X59007Y11358D01*
X59081Y11385D01*
X59127D01*
Y10701D01*
X59118D01*
X59090Y10692D01*
X59044Y10683D01*
X58989Y10674D01*
X58924Y10655D01*
X58850Y10637D01*
X58684Y10609D01*
X58674D01*
X58646Y10599D01*
X58609D01*
X58554Y10590D01*
X58425Y10581D01*
X58286Y10572D01*
X58231D01*
X58184Y10581D01*
X58129D01*
X58073Y10590D01*
X57935Y10618D01*
X57777Y10655D01*
X57611Y10720D01*
X57454Y10803D01*
X57315Y10923D01*
X57297Y10942D01*
X57260Y10988D01*
X57204Y11071D01*
X57149Y11191D01*
X57084Y11348D01*
X57028Y11543D01*
X57001Y11653D01*
X56992Y11764D01*
X56973Y11894D01*
Y12033D01*
Y14538D01*
X56465D01*
Y15176D01*
X56973D01*
Y16471D01*
X57731D01*
Y15176D01*
D02*
G37*
G36*
X54967D02*
X56363D01*
Y14538D01*
X54967D01*
Y12393D01*
Y12375D01*
Y12338D01*
Y12273D01*
Y12199D01*
Y12023D01*
X54976Y11940D01*
Y11866D01*
Y11857D01*
Y11838D01*
X54985Y11801D01*
X54995Y11755D01*
X55022Y11644D01*
X55068Y11515D01*
Y11506D01*
X55078Y11496D01*
X55124Y11441D01*
X55189Y11367D01*
X55281Y11302D01*
X55290D01*
X55309Y11293D01*
X55346Y11284D01*
X55392Y11274D01*
X55457Y11256D01*
X55531Y11247D01*
X55614Y11237D01*
X55771D01*
X55817Y11247D01*
X55938Y11265D01*
X56058Y11293D01*
X56067D01*
X56086Y11302D01*
X56122Y11311D01*
X56160Y11330D01*
X56243Y11358D01*
X56317Y11385D01*
X56363D01*
Y10701D01*
X56354D01*
X56326Y10692D01*
X56280Y10683D01*
X56224Y10674D01*
X56160Y10655D01*
X56086Y10637D01*
X55919Y10609D01*
X55910D01*
X55882Y10599D01*
X55845D01*
X55790Y10590D01*
X55660Y10581D01*
X55521Y10572D01*
X55466D01*
X55420Y10581D01*
X55364D01*
X55309Y10590D01*
X55170Y10618D01*
X55013Y10655D01*
X54847Y10720D01*
X54689Y10803D01*
X54551Y10923D01*
X54532Y10942D01*
X54495Y10988D01*
X54440Y11071D01*
X54384Y11191D01*
X54320Y11348D01*
X54264Y11543D01*
X54236Y11653D01*
X54227Y11764D01*
X54209Y11894D01*
Y12033D01*
Y14538D01*
X53700D01*
Y15176D01*
X54209D01*
Y16471D01*
X54967D01*
Y15176D01*
D02*
G37*
G36*
X61605Y15296D02*
X61707Y15287D01*
X61818Y15278D01*
X61947Y15250D01*
X62077Y15222D01*
X62197Y15176D01*
X62215Y15167D01*
X62252Y15158D01*
X62308Y15121D01*
X62391Y15084D01*
X62474Y15028D01*
X62576Y14963D01*
X62668Y14890D01*
X62761Y14797D01*
X62770Y14788D01*
X62798Y14751D01*
X62844Y14695D01*
X62899Y14621D01*
X62964Y14529D01*
X63029Y14427D01*
X63084Y14298D01*
X63140Y14168D01*
X63149Y14150D01*
X63158Y14104D01*
X63177Y14020D01*
X63205Y13919D01*
X63232Y13780D01*
X63251Y13623D01*
X63260Y13447D01*
X63269Y13253D01*
Y12846D01*
X60135D01*
Y12837D01*
Y12809D01*
Y12772D01*
X60144Y12717D01*
Y12652D01*
X60153Y12569D01*
X60181Y12393D01*
X60227Y12199D01*
X60301Y11996D01*
X60394Y11811D01*
X60523Y11635D01*
X60533D01*
X60542Y11616D01*
X60597Y11570D01*
X60690Y11506D01*
X60810Y11432D01*
X60967Y11358D01*
X61152Y11293D01*
X61374Y11247D01*
X61494Y11237D01*
X61624Y11228D01*
X61716D01*
X61781Y11237D01*
X61855D01*
X61938Y11256D01*
X62114Y11284D01*
X62123D01*
X62160Y11293D01*
X62206Y11302D01*
X62262Y11321D01*
X62410Y11367D01*
X62557Y11422D01*
X62567D01*
X62594Y11441D01*
X62631Y11459D01*
X62678Y11478D01*
X62789Y11533D01*
X62899Y11598D01*
X62909D01*
X62927Y11616D01*
X62983Y11653D01*
X63066Y11709D01*
X63140Y11774D01*
X63186D01*
Y10942D01*
X63177D01*
X63158Y10932D01*
X63131Y10923D01*
X63094Y10905D01*
X63038Y10886D01*
X62983Y10858D01*
X62844Y10803D01*
X62835D01*
X62807Y10794D01*
X62770Y10775D01*
X62724Y10757D01*
X62613Y10720D01*
X62493Y10683D01*
X62483D01*
X62456Y10674D01*
X62410Y10664D01*
X62363Y10655D01*
X62225Y10627D01*
X62086Y10599D01*
X62077D01*
X62058Y10590D01*
X62012D01*
X61966Y10581D01*
X61901Y10572D01*
X61818D01*
X61734Y10562D01*
X61531D01*
X61457Y10572D01*
X61365Y10581D01*
X61263Y10590D01*
X61143Y10609D01*
X61023Y10637D01*
X60754Y10710D01*
X60616Y10757D01*
X60477Y10812D01*
X60339Y10886D01*
X60200Y10969D01*
X60080Y11062D01*
X59959Y11164D01*
X59950Y11173D01*
X59932Y11191D01*
X59904Y11228D01*
X59867Y11274D01*
X59821Y11339D01*
X59774Y11413D01*
X59719Y11506D01*
X59664Y11607D01*
X59608Y11727D01*
X59553Y11857D01*
X59506Y11996D01*
X59460Y12153D01*
X59423Y12319D01*
X59395Y12495D01*
X59377Y12689D01*
X59368Y12892D01*
Y12902D01*
Y12939D01*
Y12994D01*
X59377Y13077D01*
X59386Y13170D01*
X59395Y13271D01*
X59414Y13392D01*
X59442Y13521D01*
X59506Y13808D01*
X59553Y13956D01*
X59608Y14094D01*
X59673Y14242D01*
X59756Y14381D01*
X59839Y14520D01*
X59941Y14649D01*
X59950Y14658D01*
X59969Y14677D01*
X60006Y14714D01*
X60043Y14751D01*
X60107Y14797D01*
X60172Y14852D01*
X60255Y14917D01*
X60348Y14982D01*
X60449Y15037D01*
X60570Y15102D01*
X60690Y15158D01*
X60828Y15204D01*
X60967Y15241D01*
X61124Y15278D01*
X61291Y15296D01*
X61457Y15306D01*
X61531D01*
X61605Y15296D01*
D02*
G37*
%LPC*%
G36*
X173542Y10957D02*
X173504D01*
X173478Y10951D01*
X173400Y10944D01*
X173309Y10919D01*
X173206Y10880D01*
X173102Y10828D01*
X172998Y10750D01*
X172947Y10698D01*
X172901Y10647D01*
Y10640D01*
X172888Y10634D01*
X172882Y10614D01*
X172862Y10588D01*
X172850Y10556D01*
X172830Y10517D01*
X172804Y10472D01*
X172785Y10420D01*
X172765Y10362D01*
X172739Y10297D01*
X172720Y10226D01*
X172707Y10141D01*
X172687Y10057D01*
X172681Y9966D01*
X172668Y9863D01*
Y9759D01*
Y9753D01*
Y9733D01*
Y9707D01*
Y9668D01*
X172675Y9623D01*
Y9565D01*
X172687Y9442D01*
X172713Y9306D01*
X172739Y9163D01*
X172785Y9027D01*
X172843Y8904D01*
X172850Y8891D01*
X172875Y8859D01*
X172921Y8814D01*
X172985Y8762D01*
X173063Y8704D01*
X173160Y8658D01*
X173283Y8626D01*
X173348Y8619D01*
X173419Y8613D01*
X173458D01*
X173497Y8619D01*
X173556Y8626D01*
X173614Y8632D01*
X173685Y8652D01*
X173763Y8671D01*
X173840Y8704D01*
X173853Y8710D01*
X173879Y8723D01*
X173918Y8742D01*
X173970Y8775D01*
X174035Y8807D01*
X174106Y8852D01*
X174177Y8904D01*
X174249Y8963D01*
Y10789D01*
X174242Y10796D01*
X174216Y10802D01*
X174177Y10821D01*
X174125Y10841D01*
X174074Y10867D01*
X174009Y10886D01*
X173886Y10919D01*
X173879D01*
X173860Y10925D01*
X173827Y10932D01*
X173782Y10938D01*
X173737Y10944D01*
X173678Y10951D01*
X173542Y10957D01*
D02*
G37*
G36*
X206057Y9850D02*
X206051D01*
X206025Y9843D01*
X205979D01*
X205921Y9837D01*
X205856Y9830D01*
X205772Y9818D01*
X205675Y9811D01*
X205571Y9798D01*
X205558D01*
X205526Y9792D01*
X205474Y9785D01*
X205409Y9779D01*
X205332Y9766D01*
X205254Y9753D01*
X205176Y9733D01*
X205105Y9714D01*
X205098D01*
X205072Y9701D01*
X205027Y9688D01*
X204982Y9662D01*
X204924Y9636D01*
X204865Y9604D01*
X204807Y9558D01*
X204755Y9513D01*
X204749Y9507D01*
X204736Y9487D01*
X204710Y9461D01*
X204690Y9416D01*
X204664Y9364D01*
X204639Y9306D01*
X204626Y9228D01*
X204619Y9144D01*
Y9131D01*
Y9099D01*
X204626Y9053D01*
X204639Y8989D01*
X204658Y8924D01*
X204684Y8859D01*
X204716Y8794D01*
X204768Y8736D01*
X204775Y8729D01*
X204794Y8716D01*
X204833Y8691D01*
X204885Y8671D01*
X204943Y8645D01*
X205021Y8619D01*
X205111Y8606D01*
X205215Y8600D01*
X205260D01*
X205306Y8606D01*
X205364Y8613D01*
X205435Y8626D01*
X205513Y8645D01*
X205591Y8671D01*
X205668Y8704D01*
X205675Y8710D01*
X205701Y8723D01*
X205746Y8749D01*
X205798Y8781D01*
X205856Y8820D01*
X205921Y8865D01*
X206057Y8969D01*
Y9850D01*
D02*
G37*
G36*
X178692Y11929D02*
X177966D01*
Y10698D01*
X178685D01*
X178743Y10705D01*
X178873Y10711D01*
X178931Y10718D01*
X178983Y10724D01*
X178990D01*
X179003Y10731D01*
X179028Y10737D01*
X179061Y10750D01*
X179145Y10783D01*
X179236Y10834D01*
X179242Y10841D01*
X179255Y10847D01*
X179281Y10867D01*
X179307Y10893D01*
X179365Y10957D01*
X179398Y10996D01*
X179417Y11042D01*
Y11048D01*
X179424Y11068D01*
X179437Y11093D01*
X179450Y11132D01*
X179456Y11184D01*
X179469Y11242D01*
X179475Y11307D01*
Y11379D01*
Y11385D01*
Y11404D01*
Y11430D01*
X179469Y11469D01*
X179456Y11553D01*
X179424Y11638D01*
Y11644D01*
X179417Y11657D01*
X179404Y11676D01*
X179385Y11702D01*
X179333Y11761D01*
X179255Y11819D01*
X179249Y11825D01*
X179236Y11832D01*
X179203Y11845D01*
X179171Y11858D01*
X179126Y11871D01*
X179074Y11890D01*
X178957Y11910D01*
X178951D01*
X178925Y11916D01*
X178886D01*
X178834Y11923D01*
X178769D01*
X178692Y11929D01*
D02*
G37*
G36*
X178705Y10232D02*
X177966D01*
Y8684D01*
X178543D01*
X178627Y8691D01*
X178718D01*
X178815Y8697D01*
X178912Y8704D01*
X178996Y8716D01*
X179003D01*
X179035Y8723D01*
X179074Y8736D01*
X179126Y8749D01*
X179177Y8768D01*
X179242Y8788D01*
X179307Y8820D01*
X179365Y8859D01*
X179372Y8865D01*
X179391Y8878D01*
X179424Y8904D01*
X179456Y8930D01*
X179534Y9008D01*
X179566Y9053D01*
X179599Y9105D01*
X179605Y9111D01*
X179611Y9131D01*
X179624Y9163D01*
X179637Y9202D01*
X179650Y9254D01*
X179663Y9319D01*
X179676Y9390D01*
Y9468D01*
Y9481D01*
Y9507D01*
X179670Y9552D01*
Y9604D01*
X179657Y9668D01*
X179644Y9733D01*
X179631Y9798D01*
X179605Y9856D01*
Y9863D01*
X179592Y9882D01*
X179573Y9915D01*
X179547Y9947D01*
X179508Y9992D01*
X179463Y10031D01*
X179404Y10077D01*
X179333Y10122D01*
X179326D01*
X179307Y10135D01*
X179281Y10141D01*
X179249Y10154D01*
X179203Y10174D01*
X179152Y10187D01*
X179042Y10206D01*
X179035D01*
X179016Y10213D01*
X178977D01*
X178931Y10219D01*
X178867Y10226D01*
X178789D01*
X178705Y10232D01*
D02*
G37*
G36*
X153120Y11929D02*
X152563D01*
Y8684D01*
X153049D01*
X153120Y8691D01*
X153205D01*
X153308Y8697D01*
X153419Y8710D01*
X153529Y8723D01*
X153639Y8742D01*
X153652D01*
X153684Y8755D01*
X153736Y8768D01*
X153807Y8794D01*
X153885Y8820D01*
X153969Y8859D01*
X154060Y8904D01*
X154144Y8963D01*
X154150D01*
X154157Y8969D01*
X154189Y9001D01*
X154241Y9040D01*
X154306Y9099D01*
X154377Y9176D01*
X154455Y9267D01*
X154526Y9371D01*
X154584Y9487D01*
Y9494D01*
X154591Y9500D01*
X154597Y9520D01*
X154610Y9546D01*
X154617Y9578D01*
X154630Y9617D01*
X154662Y9714D01*
X154688Y9830D01*
X154707Y9973D01*
X154727Y10135D01*
X154733Y10310D01*
Y10316D01*
Y10329D01*
Y10355D01*
Y10394D01*
X154727Y10433D01*
Y10485D01*
X154714Y10595D01*
X154694Y10724D01*
X154662Y10867D01*
X154623Y11003D01*
X154571Y11139D01*
Y11145D01*
X154565Y11152D01*
X154552Y11171D01*
X154539Y11197D01*
X154507Y11255D01*
X154448Y11333D01*
X154383Y11417D01*
X154299Y11508D01*
X154202Y11592D01*
X154092Y11670D01*
X154079Y11676D01*
X154053Y11689D01*
X154008Y11715D01*
X153950Y11748D01*
X153878Y11780D01*
X153801Y11812D01*
X153710Y11838D01*
X153619Y11864D01*
X153606D01*
X153574Y11877D01*
X153522Y11884D01*
X153444Y11897D01*
X153354Y11910D01*
X153244Y11916D01*
X153120Y11929D01*
D02*
G37*
G36*
X191931Y11009D02*
X191775D01*
X191730Y11003D01*
X191672Y10996D01*
X191607Y10983D01*
X191490Y10944D01*
X191484D01*
X191464Y10932D01*
X191439Y10919D01*
X191400Y10899D01*
X191315Y10841D01*
X191218Y10757D01*
X191212Y10750D01*
X191199Y10737D01*
X191173Y10711D01*
X191147Y10679D01*
X191121Y10634D01*
X191089Y10588D01*
X191030Y10478D01*
Y10472D01*
X191024Y10452D01*
X191011Y10420D01*
X190998Y10381D01*
X190985Y10329D01*
X190979Y10271D01*
X190966Y10206D01*
X190959Y10135D01*
X192637D01*
Y10141D01*
Y10174D01*
X192630Y10213D01*
Y10264D01*
X192624Y10316D01*
X192611Y10381D01*
X192585Y10504D01*
Y10510D01*
X192578Y10530D01*
X192565Y10556D01*
X192553Y10595D01*
X192507Y10679D01*
X192449Y10763D01*
X192442Y10770D01*
X192429Y10783D01*
X192410Y10802D01*
X192384Y10828D01*
X192352Y10860D01*
X192313Y10886D01*
X192209Y10944D01*
X192203D01*
X192183Y10957D01*
X192151Y10964D01*
X192112Y10977D01*
X192060Y10990D01*
X192002Y10996D01*
X191931Y11009D01*
D02*
G37*
G36*
X170576D02*
X170421D01*
X170375Y11003D01*
X170317Y10996D01*
X170252Y10983D01*
X170136Y10944D01*
X170129D01*
X170110Y10932D01*
X170084Y10919D01*
X170045Y10899D01*
X169961Y10841D01*
X169864Y10757D01*
X169857Y10750D01*
X169844Y10737D01*
X169818Y10711D01*
X169792Y10679D01*
X169766Y10634D01*
X169734Y10588D01*
X169676Y10478D01*
Y10472D01*
X169669Y10452D01*
X169656Y10420D01*
X169643Y10381D01*
X169630Y10329D01*
X169624Y10271D01*
X169611Y10206D01*
X169604Y10135D01*
X171282D01*
Y10141D01*
Y10174D01*
X171276Y10213D01*
Y10264D01*
X171269Y10316D01*
X171256Y10381D01*
X171230Y10504D01*
Y10510D01*
X171224Y10530D01*
X171211Y10556D01*
X171198Y10595D01*
X171152Y10679D01*
X171094Y10763D01*
X171088Y10770D01*
X171075Y10783D01*
X171055Y10802D01*
X171029Y10828D01*
X170997Y10860D01*
X170958Y10886D01*
X170854Y10944D01*
X170848D01*
X170829Y10957D01*
X170796Y10964D01*
X170757Y10977D01*
X170706Y10990D01*
X170647Y10996D01*
X170576Y11009D01*
D02*
G37*
G36*
X157175D02*
X157020D01*
X156974Y11003D01*
X156916Y10996D01*
X156851Y10983D01*
X156735Y10944D01*
X156728D01*
X156709Y10932D01*
X156683Y10919D01*
X156644Y10899D01*
X156560Y10841D01*
X156463Y10757D01*
X156456Y10750D01*
X156443Y10737D01*
X156417Y10711D01*
X156391Y10679D01*
X156365Y10634D01*
X156333Y10588D01*
X156275Y10478D01*
Y10472D01*
X156268Y10452D01*
X156255Y10420D01*
X156242Y10381D01*
X156229Y10329D01*
X156223Y10271D01*
X156210Y10206D01*
X156204Y10135D01*
X157881D01*
Y10141D01*
Y10174D01*
X157875Y10213D01*
Y10264D01*
X157868Y10316D01*
X157855Y10381D01*
X157829Y10504D01*
Y10510D01*
X157823Y10530D01*
X157810Y10556D01*
X157797Y10595D01*
X157752Y10679D01*
X157693Y10763D01*
X157687Y10770D01*
X157674Y10783D01*
X157654Y10802D01*
X157628Y10828D01*
X157596Y10860D01*
X157557Y10886D01*
X157454Y10944D01*
X157447D01*
X157428Y10957D01*
X157395Y10964D01*
X157357Y10977D01*
X157305Y10990D01*
X157246Y10996D01*
X157175Y11009D01*
D02*
G37*
G36*
X194962Y10983D02*
X194845D01*
X194813Y10977D01*
X194742Y10970D01*
X194651Y10944D01*
X194547Y10912D01*
X194437Y10860D01*
X194334Y10783D01*
X194288Y10737D01*
X194243Y10685D01*
Y10679D01*
X194237Y10673D01*
X194224Y10653D01*
X194211Y10627D01*
X194191Y10595D01*
X194172Y10556D01*
X194152Y10510D01*
X194133Y10459D01*
X194114Y10400D01*
X194094Y10329D01*
X194075Y10258D01*
X194055Y10174D01*
X194042Y10083D01*
X194029Y9986D01*
X194023Y9882D01*
Y9772D01*
Y9766D01*
Y9746D01*
Y9714D01*
X194029Y9675D01*
Y9623D01*
X194036Y9571D01*
X194049Y9442D01*
X194075Y9293D01*
X194114Y9144D01*
X194172Y9001D01*
X194204Y8937D01*
X194243Y8878D01*
X194256Y8865D01*
X194288Y8833D01*
X194334Y8781D01*
X194411Y8729D01*
X194502Y8671D01*
X194612Y8619D01*
X194735Y8587D01*
X194806Y8580D01*
X194884Y8574D01*
X194923D01*
X194949Y8580D01*
X195027Y8587D01*
X195117Y8613D01*
X195221Y8645D01*
X195325Y8697D01*
X195428Y8775D01*
X195474Y8820D01*
X195519Y8872D01*
Y8878D01*
X195532Y8885D01*
X195538Y8904D01*
X195558Y8930D01*
X195571Y8963D01*
X195590Y8995D01*
X195610Y9047D01*
X195636Y9099D01*
X195655Y9157D01*
X195674Y9222D01*
X195694Y9299D01*
X195713Y9377D01*
X195726Y9468D01*
X195739Y9558D01*
X195746Y9662D01*
Y9772D01*
Y9779D01*
Y9798D01*
Y9830D01*
X195739Y9876D01*
Y9921D01*
X195733Y9986D01*
X195720Y10115D01*
X195687Y10264D01*
X195648Y10420D01*
X195597Y10562D01*
X195558Y10627D01*
X195519Y10685D01*
Y10692D01*
X195506Y10698D01*
X195480Y10731D01*
X195428Y10783D01*
X195357Y10834D01*
X195266Y10886D01*
X195156Y10938D01*
X195033Y10970D01*
X194962Y10983D01*
D02*
G37*
G36*
X164047Y10970D02*
X164008D01*
X163983Y10964D01*
X163911Y10957D01*
X163820Y10932D01*
X163717Y10899D01*
X163613Y10847D01*
X163510Y10770D01*
X163458Y10724D01*
X163412Y10673D01*
Y10666D01*
X163400Y10660D01*
X163393Y10640D01*
X163374Y10621D01*
X163361Y10588D01*
X163341Y10549D01*
X163315Y10504D01*
X163296Y10452D01*
X163277Y10394D01*
X163251Y10336D01*
X163218Y10187D01*
X163192Y10012D01*
X163179Y9818D01*
Y9811D01*
Y9792D01*
Y9766D01*
Y9733D01*
X163186Y9688D01*
Y9636D01*
X163199Y9520D01*
X163225Y9390D01*
X163251Y9254D01*
X163296Y9125D01*
X163354Y9014D01*
X163361Y9001D01*
X163387Y8969D01*
X163432Y8930D01*
X163490Y8878D01*
X163574Y8827D01*
X163672Y8788D01*
X163788Y8755D01*
X163931Y8742D01*
X163969D01*
X164008Y8749D01*
X164060Y8755D01*
X164125Y8762D01*
X164196Y8775D01*
X164274Y8794D01*
X164358Y8820D01*
X164371Y8827D01*
X164397Y8833D01*
X164436Y8852D01*
X164494Y8878D01*
X164552Y8917D01*
X164624Y8956D01*
X164688Y9001D01*
X164760Y9053D01*
Y10789D01*
X164753Y10796D01*
X164727Y10802D01*
X164688Y10821D01*
X164637Y10841D01*
X164578Y10867D01*
X164514Y10886D01*
X164384Y10925D01*
X164377D01*
X164358Y10932D01*
X164319Y10938D01*
X164280Y10951D01*
X164229Y10957D01*
X164170Y10964D01*
X164047Y10970D01*
D02*
G37*
G36*
X145960Y187455D02*
X144925D01*
Y185698D01*
X145951D01*
X146034Y185707D01*
X146219Y185717D01*
X146302Y185726D01*
X146376Y185735D01*
X146385D01*
X146404Y185744D01*
X146441Y185754D01*
X146487Y185772D01*
X146607Y185818D01*
X146737Y185892D01*
X146746Y185902D01*
X146764Y185911D01*
X146802Y185939D01*
X146839Y185976D01*
X146922Y186068D01*
X146968Y186124D01*
X146996Y186188D01*
Y186197D01*
X147005Y186225D01*
X147023Y186262D01*
X147042Y186318D01*
X147051Y186392D01*
X147070Y186475D01*
X147079Y186567D01*
Y186669D01*
Y186678D01*
Y186706D01*
Y186743D01*
X147070Y186798D01*
X147051Y186919D01*
X147005Y187039D01*
Y187048D01*
X146996Y187067D01*
X146977Y187094D01*
X146949Y187131D01*
X146875Y187215D01*
X146764Y187298D01*
X146755Y187307D01*
X146737Y187316D01*
X146691Y187335D01*
X146644Y187353D01*
X146580Y187372D01*
X146506Y187399D01*
X146339Y187427D01*
X146330D01*
X146293Y187436D01*
X146237D01*
X146164Y187446D01*
X146071D01*
X145960Y187455D01*
D02*
G37*
G36*
X145979Y185033D02*
X144925D01*
Y182823D01*
X145747D01*
X145868Y182832D01*
X145997D01*
X146136Y182841D01*
X146274Y182851D01*
X146395Y182869D01*
X146404D01*
X146450Y182878D01*
X146506Y182897D01*
X146580Y182915D01*
X146654Y182943D01*
X146746Y182971D01*
X146839Y183017D01*
X146922Y183072D01*
X146931Y183082D01*
X146959Y183100D01*
X147005Y183137D01*
X147051Y183174D01*
X147162Y183285D01*
X147208Y183350D01*
X147254Y183424D01*
X147264Y183433D01*
X147273Y183461D01*
X147291Y183507D01*
X147310Y183563D01*
X147329Y183636D01*
X147347Y183729D01*
X147366Y183831D01*
Y183942D01*
Y183960D01*
Y183997D01*
X147356Y184062D01*
Y184136D01*
X147338Y184228D01*
X147319Y184321D01*
X147301Y184413D01*
X147264Y184496D01*
Y184506D01*
X147245Y184533D01*
X147218Y184580D01*
X147181Y184626D01*
X147125Y184690D01*
X147060Y184746D01*
X146977Y184811D01*
X146875Y184875D01*
X146866D01*
X146839Y184894D01*
X146802Y184903D01*
X146755Y184922D01*
X146691Y184949D01*
X146617Y184968D01*
X146459Y184996D01*
X146450D01*
X146422Y185005D01*
X146367D01*
X146302Y185014D01*
X146210Y185023D01*
X146099D01*
X145979Y185033D01*
D02*
G37*
G36*
X120590Y187455D02*
X119804D01*
Y185070D01*
X120507D01*
X120618Y185079D01*
X120738Y185088D01*
X120868Y185097D01*
X120997Y185116D01*
X121117Y185144D01*
X121126D01*
X121173Y185162D01*
X121228Y185180D01*
X121293Y185208D01*
X121376Y185245D01*
X121459Y185291D01*
X121543Y185347D01*
X121616Y185421D01*
X121626Y185430D01*
X121644Y185458D01*
X121681Y185495D01*
X121718Y185541D01*
X121755Y185597D01*
X121801Y185671D01*
X121875Y185818D01*
Y185828D01*
X121885Y185855D01*
X121903Y185902D01*
X121922Y185957D01*
X121931Y186031D01*
X121949Y186114D01*
X121959Y186207D01*
Y186308D01*
Y186327D01*
Y186364D01*
X121949Y186419D01*
Y186493D01*
X121931Y186577D01*
X121912Y186669D01*
X121885Y186761D01*
X121848Y186845D01*
X121838Y186854D01*
X121829Y186882D01*
X121801Y186928D01*
X121764Y186983D01*
X121718Y187039D01*
X121663Y187104D01*
X121598Y187168D01*
X121524Y187224D01*
X121515Y187233D01*
X121487Y187242D01*
X121450Y187261D01*
X121404Y187288D01*
X121339Y187316D01*
X121256Y187353D01*
X121173Y187372D01*
X121080Y187399D01*
X121071D01*
X121034Y187409D01*
X120978Y187418D01*
X120914Y187427D01*
X120821Y187436D01*
X120710Y187446D01*
X120590Y187455D01*
D02*
G37*
G36*
X135966Y186142D02*
X135744D01*
X135679Y186133D01*
X135596Y186124D01*
X135503Y186105D01*
X135337Y186050D01*
X135328D01*
X135300Y186031D01*
X135263Y186013D01*
X135208Y185985D01*
X135087Y185902D01*
X134949Y185781D01*
X134939Y185772D01*
X134921Y185754D01*
X134884Y185717D01*
X134847Y185671D01*
X134810Y185606D01*
X134764Y185541D01*
X134681Y185384D01*
Y185375D01*
X134671Y185347D01*
X134653Y185301D01*
X134634Y185245D01*
X134616Y185171D01*
X134607Y185088D01*
X134588Y184996D01*
X134579Y184894D01*
X136973D01*
Y184903D01*
Y184949D01*
X136964Y185005D01*
Y185079D01*
X136955Y185153D01*
X136937Y185245D01*
X136899Y185421D01*
Y185430D01*
X136890Y185458D01*
X136872Y185495D01*
X136853Y185550D01*
X136789Y185671D01*
X136705Y185791D01*
X136696Y185800D01*
X136678Y185818D01*
X136650Y185846D01*
X136613Y185883D01*
X136567Y185929D01*
X136511Y185966D01*
X136363Y186050D01*
X136354D01*
X136326Y186068D01*
X136280Y186077D01*
X136224Y186096D01*
X136151Y186114D01*
X136067Y186124D01*
X135966Y186142D01*
D02*
G37*
G36*
X160883Y186105D02*
X160716D01*
X160670Y186096D01*
X160568Y186087D01*
X160439Y186050D01*
X160291Y186003D01*
X160134Y185929D01*
X159986Y185818D01*
X159921Y185754D01*
X159856Y185680D01*
Y185671D01*
X159847Y185661D01*
X159829Y185634D01*
X159810Y185597D01*
X159782Y185550D01*
X159755Y185495D01*
X159727Y185430D01*
X159699Y185356D01*
X159671Y185273D01*
X159644Y185171D01*
X159616Y185070D01*
X159588Y184949D01*
X159570Y184820D01*
X159551Y184681D01*
X159542Y184533D01*
Y184376D01*
Y184367D01*
Y184339D01*
Y184293D01*
X159551Y184237D01*
Y184163D01*
X159560Y184090D01*
X159579Y183905D01*
X159616Y183692D01*
X159671Y183479D01*
X159755Y183276D01*
X159801Y183183D01*
X159856Y183100D01*
X159875Y183082D01*
X159921Y183036D01*
X159986Y182962D01*
X160097Y182888D01*
X160226Y182804D01*
X160383Y182730D01*
X160559Y182684D01*
X160661Y182675D01*
X160772Y182666D01*
X160827D01*
X160864Y182675D01*
X160975Y182684D01*
X161105Y182721D01*
X161252Y182767D01*
X161400Y182841D01*
X161548Y182952D01*
X161613Y183017D01*
X161678Y183091D01*
Y183100D01*
X161696Y183109D01*
X161705Y183137D01*
X161733Y183174D01*
X161752Y183220D01*
X161779Y183267D01*
X161807Y183341D01*
X161844Y183415D01*
X161872Y183498D01*
X161900Y183590D01*
X161927Y183701D01*
X161955Y183812D01*
X161973Y183942D01*
X161992Y184071D01*
X162001Y184219D01*
Y184376D01*
Y184385D01*
Y184413D01*
Y184459D01*
X161992Y184524D01*
Y184589D01*
X161983Y184681D01*
X161964Y184866D01*
X161918Y185079D01*
X161863Y185301D01*
X161789Y185504D01*
X161733Y185597D01*
X161678Y185680D01*
Y185689D01*
X161659Y185698D01*
X161622Y185744D01*
X161548Y185818D01*
X161446Y185892D01*
X161317Y185966D01*
X161160Y186040D01*
X160984Y186087D01*
X160883Y186105D01*
D02*
G37*
G36*
X125306D02*
X125139D01*
X125093Y186096D01*
X124991Y186087D01*
X124862Y186050D01*
X124714Y186003D01*
X124557Y185929D01*
X124409Y185818D01*
X124344Y185754D01*
X124279Y185680D01*
Y185671D01*
X124270Y185661D01*
X124251Y185634D01*
X124233Y185597D01*
X124205Y185550D01*
X124178Y185495D01*
X124150Y185430D01*
X124122Y185356D01*
X124094Y185273D01*
X124067Y185171D01*
X124039Y185070D01*
X124011Y184949D01*
X123993Y184820D01*
X123974Y184681D01*
X123965Y184533D01*
Y184376D01*
Y184367D01*
Y184339D01*
Y184293D01*
X123974Y184237D01*
Y184163D01*
X123983Y184090D01*
X124002Y183905D01*
X124039Y183692D01*
X124094Y183479D01*
X124178Y183276D01*
X124224Y183183D01*
X124279Y183100D01*
X124298Y183082D01*
X124344Y183036D01*
X124409Y182962D01*
X124520Y182888D01*
X124649Y182804D01*
X124806Y182730D01*
X124982Y182684D01*
X125084Y182675D01*
X125195Y182666D01*
X125250D01*
X125287Y182675D01*
X125398Y182684D01*
X125527Y182721D01*
X125675Y182767D01*
X125823Y182841D01*
X125971Y182952D01*
X126036Y183017D01*
X126101Y183091D01*
Y183100D01*
X126119Y183109D01*
X126128Y183137D01*
X126156Y183174D01*
X126175Y183220D01*
X126202Y183267D01*
X126230Y183341D01*
X126267Y183415D01*
X126295Y183498D01*
X126322Y183590D01*
X126350Y183701D01*
X126378Y183812D01*
X126397Y183942D01*
X126415Y184071D01*
X126424Y184219D01*
Y184376D01*
Y184385D01*
Y184413D01*
Y184459D01*
X126415Y184524D01*
Y184589D01*
X126406Y184681D01*
X126387Y184866D01*
X126341Y185079D01*
X126285Y185301D01*
X126212Y185504D01*
X126156Y185597D01*
X126101Y185680D01*
Y185689D01*
X126082Y185698D01*
X126045Y185744D01*
X125971Y185818D01*
X125870Y185892D01*
X125740Y185966D01*
X125583Y186040D01*
X125407Y186087D01*
X125306Y186105D01*
D02*
G37*
G36*
X291151Y86455D02*
X290355D01*
Y81823D01*
X291049D01*
X291151Y81832D01*
X291271D01*
X291419Y81841D01*
X291576Y81860D01*
X291733Y81878D01*
X291890Y81906D01*
X291909D01*
X291955Y81925D01*
X292029Y81943D01*
X292131Y81980D01*
X292242Y82017D01*
X292362Y82072D01*
X292491Y82137D01*
X292611Y82220D01*
X292621D01*
X292630Y82230D01*
X292676Y82276D01*
X292750Y82331D01*
X292843Y82415D01*
X292944Y82526D01*
X293055Y82655D01*
X293157Y82803D01*
X293240Y82969D01*
Y82978D01*
X293249Y82988D01*
X293259Y83015D01*
X293277Y83053D01*
X293286Y83099D01*
X293305Y83154D01*
X293351Y83293D01*
X293388Y83459D01*
X293416Y83663D01*
X293444Y83894D01*
X293453Y84143D01*
Y84153D01*
Y84171D01*
Y84208D01*
Y84264D01*
X293444Y84319D01*
Y84393D01*
X293425Y84550D01*
X293397Y84735D01*
X293351Y84939D01*
X293296Y85133D01*
X293222Y85327D01*
Y85336D01*
X293212Y85345D01*
X293194Y85373D01*
X293175Y85410D01*
X293129Y85493D01*
X293046Y85604D01*
X292953Y85724D01*
X292833Y85854D01*
X292695Y85974D01*
X292537Y86085D01*
X292519Y86094D01*
X292482Y86113D01*
X292417Y86150D01*
X292334Y86196D01*
X292232Y86242D01*
X292121Y86288D01*
X291992Y86326D01*
X291863Y86362D01*
X291844D01*
X291798Y86381D01*
X291724Y86390D01*
X291613Y86409D01*
X291483Y86427D01*
X291326Y86436D01*
X291151Y86455D01*
D02*
G37*
G36*
X281896Y86584D02*
X281822D01*
X281739Y86575D01*
X281637Y86566D01*
X281517Y86547D01*
X281397Y86520D01*
X281267Y86483D01*
X281138Y86427D01*
X281119Y86418D01*
X281082Y86399D01*
X281027Y86362D01*
X280944Y86316D01*
X280860Y86251D01*
X280758Y86168D01*
X280657Y86067D01*
X280564Y85956D01*
X280555Y85946D01*
X280527Y85900D01*
X280481Y85835D01*
X280426Y85743D01*
X280370Y85632D01*
X280306Y85503D01*
X280250Y85345D01*
X280195Y85179D01*
Y85170D01*
X280185Y85161D01*
Y85133D01*
X280176Y85096D01*
X280158Y85003D01*
X280139Y84874D01*
X280111Y84717D01*
X280093Y84541D01*
X280084Y84347D01*
X280074Y84134D01*
Y84125D01*
Y84079D01*
Y84023D01*
X280084Y83940D01*
X280093Y83838D01*
X280102Y83727D01*
X280111Y83598D01*
X280139Y83469D01*
X280195Y83173D01*
X280278Y82868D01*
X280333Y82720D01*
X280407Y82581D01*
X280481Y82442D01*
X280564Y82322D01*
X280574Y82313D01*
X280592Y82294D01*
X280620Y82267D01*
X280657Y82220D01*
X280703Y82174D01*
X280768Y82128D01*
X280842Y82063D01*
X280916Y82008D01*
X281008Y81952D01*
X281110Y81897D01*
X281221Y81841D01*
X281341Y81795D01*
X281461Y81749D01*
X281600Y81721D01*
X281748Y81703D01*
X281896Y81693D01*
X281979D01*
X282034Y81703D01*
X282108Y81712D01*
X282192Y81730D01*
X282376Y81777D01*
X282589Y81851D01*
X282700Y81897D01*
X282811Y81961D01*
X282922Y82036D01*
X283033Y82119D01*
X283135Y82211D01*
X283227Y82322D01*
X283236Y82331D01*
X283246Y82350D01*
X283273Y82387D01*
X283301Y82442D01*
X283347Y82507D01*
X283384Y82581D01*
X283431Y82673D01*
X283477Y82784D01*
X283523Y82905D01*
X283569Y83043D01*
X283615Y83191D01*
X283652Y83348D01*
X283680Y83524D01*
X283708Y83718D01*
X283717Y83922D01*
X283726Y84134D01*
Y84143D01*
Y84162D01*
Y84190D01*
Y84236D01*
Y84291D01*
X283717Y84347D01*
X283708Y84495D01*
X283699Y84652D01*
X283671Y84837D01*
X283643Y85013D01*
X283597Y85188D01*
Y85197D01*
X283588Y85207D01*
X283569Y85262D01*
X283542Y85355D01*
X283505Y85456D01*
X283449Y85577D01*
X283384Y85706D01*
X283310Y85835D01*
X283227Y85956D01*
X283218Y85974D01*
X283190Y86011D01*
X283135Y86067D01*
X283070Y86131D01*
X282987Y86205D01*
X282885Y86288D01*
X282774Y86362D01*
X282654Y86427D01*
X282635Y86436D01*
X282598Y86455D01*
X282525Y86473D01*
X282432Y86510D01*
X282321Y86538D01*
X282192Y86557D01*
X282053Y86575D01*
X281896Y86584D01*
D02*
G37*
G36*
X284579Y149326D02*
X283544D01*
Y147569D01*
X284570D01*
X284653Y147578D01*
X284838Y147587D01*
X284921Y147597D01*
X284995Y147606D01*
X285005D01*
X285023Y147615D01*
X285060Y147624D01*
X285106Y147643D01*
X285226Y147689D01*
X285356Y147763D01*
X285365Y147772D01*
X285384Y147781D01*
X285421Y147809D01*
X285458Y147846D01*
X285541Y147939D01*
X285587Y147994D01*
X285615Y148059D01*
Y148068D01*
X285624Y148096D01*
X285643Y148133D01*
X285661Y148188D01*
X285670Y148262D01*
X285689Y148345D01*
X285698Y148438D01*
Y148540D01*
Y148549D01*
Y148577D01*
Y148614D01*
X285689Y148669D01*
X285670Y148789D01*
X285624Y148909D01*
Y148919D01*
X285615Y148937D01*
X285596Y148965D01*
X285569Y149002D01*
X285495Y149085D01*
X285384Y149168D01*
X285374Y149178D01*
X285356Y149187D01*
X285310Y149205D01*
X285263Y149224D01*
X285199Y149242D01*
X285125Y149270D01*
X284958Y149298D01*
X284949D01*
X284912Y149307D01*
X284857D01*
X284783Y149316D01*
X284690D01*
X284579Y149326D01*
D02*
G37*
G36*
X284598Y146903D02*
X283544D01*
Y144693D01*
X284367D01*
X284487Y144703D01*
X284616D01*
X284755Y144712D01*
X284894Y144721D01*
X285014Y144740D01*
X285023D01*
X285069Y144749D01*
X285125Y144767D01*
X285199Y144786D01*
X285273Y144814D01*
X285365Y144841D01*
X285458Y144888D01*
X285541Y144943D01*
X285550Y144952D01*
X285578Y144971D01*
X285624Y145008D01*
X285670Y145045D01*
X285781Y145156D01*
X285827Y145220D01*
X285874Y145294D01*
X285883Y145304D01*
X285892Y145331D01*
X285911Y145378D01*
X285929Y145433D01*
X285948Y145507D01*
X285966Y145599D01*
X285985Y145701D01*
Y145812D01*
Y145831D01*
Y145868D01*
X285975Y145932D01*
Y146006D01*
X285957Y146099D01*
X285938Y146191D01*
X285920Y146284D01*
X285883Y146367D01*
Y146376D01*
X285864Y146404D01*
X285837Y146450D01*
X285800Y146496D01*
X285744Y146561D01*
X285679Y146616D01*
X285596Y146681D01*
X285495Y146746D01*
X285485D01*
X285458Y146764D01*
X285421Y146774D01*
X285374Y146792D01*
X285310Y146820D01*
X285236Y146838D01*
X285079Y146866D01*
X285069D01*
X285042Y146875D01*
X284986D01*
X284921Y146885D01*
X284829Y146894D01*
X284718D01*
X284598Y146903D01*
D02*
G37*
G36*
X276730Y149326D02*
X275824D01*
Y147060D01*
X276646D01*
X276730Y147070D01*
X276822D01*
X276924Y147088D01*
X277136Y147116D01*
X277146D01*
X277183Y147125D01*
X277238Y147143D01*
X277303Y147171D01*
X277377Y147208D01*
X277451Y147245D01*
X277534Y147301D01*
X277608Y147365D01*
X277617Y147375D01*
X277636Y147393D01*
X277673Y147430D01*
X277710Y147476D01*
X277747Y147532D01*
X277793Y147606D01*
X277867Y147763D01*
Y147772D01*
X277876Y147809D01*
X277895Y147855D01*
X277913Y147920D01*
X277922Y148003D01*
X277941Y148096D01*
X277950Y148207D01*
Y148318D01*
Y148327D01*
Y148364D01*
X277941Y148410D01*
Y148475D01*
X277922Y148549D01*
X277904Y148623D01*
X277885Y148706D01*
X277848Y148780D01*
Y148789D01*
X277830Y148817D01*
X277812Y148854D01*
X277775Y148900D01*
X277738Y148946D01*
X277691Y149011D01*
X277626Y149057D01*
X277562Y149113D01*
X277553Y149122D01*
X277534Y149131D01*
X277497Y149150D01*
X277451Y149178D01*
X277395Y149196D01*
X277321Y149224D01*
X277164Y149270D01*
X277155D01*
X277127Y149279D01*
X277081Y149289D01*
X277016Y149298D01*
X276933Y149307D01*
X276841Y149316D01*
X276730Y149326D01*
D02*
G37*
G36*
X264590D02*
X263804D01*
Y146940D01*
X264507D01*
X264618Y146949D01*
X264738Y146959D01*
X264868Y146968D01*
X264997Y146986D01*
X265117Y147014D01*
X265126D01*
X265173Y147032D01*
X265228Y147051D01*
X265293Y147079D01*
X265376Y147116D01*
X265459Y147162D01*
X265543Y147218D01*
X265616Y147291D01*
X265626Y147301D01*
X265644Y147328D01*
X265681Y147365D01*
X265718Y147412D01*
X265755Y147467D01*
X265801Y147541D01*
X265875Y147689D01*
Y147698D01*
X265885Y147726D01*
X265903Y147772D01*
X265922Y147828D01*
X265931Y147902D01*
X265949Y147985D01*
X265959Y148077D01*
Y148179D01*
Y148197D01*
Y148235D01*
X265949Y148290D01*
Y148364D01*
X265931Y148447D01*
X265912Y148540D01*
X265885Y148632D01*
X265848Y148715D01*
X265838Y148724D01*
X265829Y148752D01*
X265801Y148799D01*
X265764Y148854D01*
X265718Y148909D01*
X265663Y148974D01*
X265598Y149039D01*
X265524Y149094D01*
X265515Y149104D01*
X265487Y149113D01*
X265450Y149131D01*
X265404Y149159D01*
X265339Y149187D01*
X265256Y149224D01*
X265173Y149242D01*
X265080Y149270D01*
X265071D01*
X265034Y149279D01*
X264979Y149289D01*
X264914Y149298D01*
X264821Y149307D01*
X264710Y149316D01*
X264590Y149326D01*
D02*
G37*
G36*
X266653Y22584D02*
X266579D01*
X266496Y22575D01*
X266395Y22566D01*
X266274Y22547D01*
X266154Y22520D01*
X266025Y22483D01*
X265895Y22427D01*
X265877Y22418D01*
X265840Y22399D01*
X265784Y22362D01*
X265701Y22316D01*
X265618Y22252D01*
X265516Y22168D01*
X265415Y22067D01*
X265322Y21956D01*
X265313Y21946D01*
X265285Y21900D01*
X265239Y21835D01*
X265183Y21743D01*
X265128Y21632D01*
X265063Y21503D01*
X265008Y21345D01*
X264952Y21179D01*
Y21170D01*
X264943Y21161D01*
Y21133D01*
X264934Y21096D01*
X264915Y21003D01*
X264897Y20874D01*
X264869Y20717D01*
X264851Y20541D01*
X264841Y20347D01*
X264832Y20134D01*
Y20125D01*
Y20079D01*
Y20023D01*
X264841Y19940D01*
X264851Y19838D01*
X264860Y19727D01*
X264869Y19598D01*
X264897Y19469D01*
X264952Y19173D01*
X265035Y18868D01*
X265091Y18720D01*
X265165Y18581D01*
X265239Y18442D01*
X265322Y18322D01*
X265331Y18313D01*
X265350Y18294D01*
X265378Y18267D01*
X265415Y18220D01*
X265461Y18174D01*
X265525Y18128D01*
X265599Y18063D01*
X265674Y18008D01*
X265766Y17952D01*
X265868Y17897D01*
X265979Y17841D01*
X266099Y17795D01*
X266219Y17749D01*
X266358Y17721D01*
X266506Y17703D01*
X266653Y17693D01*
X266737D01*
X266792Y17703D01*
X266866Y17712D01*
X266949Y17730D01*
X267134Y17777D01*
X267347Y17851D01*
X267458Y17897D01*
X267569Y17961D01*
X267680Y18036D01*
X267791Y18119D01*
X267892Y18211D01*
X267985Y18322D01*
X267994Y18331D01*
X268003Y18350D01*
X268031Y18387D01*
X268059Y18442D01*
X268105Y18507D01*
X268142Y18581D01*
X268188Y18673D01*
X268235Y18784D01*
X268281Y18905D01*
X268327Y19043D01*
X268373Y19191D01*
X268410Y19348D01*
X268438Y19524D01*
X268466Y19718D01*
X268475Y19922D01*
X268484Y20134D01*
Y20143D01*
Y20162D01*
Y20190D01*
Y20236D01*
Y20291D01*
X268475Y20347D01*
X268466Y20495D01*
X268456Y20652D01*
X268429Y20837D01*
X268401Y21013D01*
X268355Y21188D01*
Y21198D01*
X268345Y21207D01*
X268327Y21262D01*
X268299Y21355D01*
X268262Y21456D01*
X268207Y21577D01*
X268142Y21706D01*
X268068Y21835D01*
X267985Y21956D01*
X267976Y21974D01*
X267948Y22011D01*
X267892Y22067D01*
X267828Y22131D01*
X267745Y22205D01*
X267643Y22288D01*
X267532Y22362D01*
X267412Y22427D01*
X267393Y22436D01*
X267356Y22455D01*
X267282Y22473D01*
X267190Y22510D01*
X267079Y22538D01*
X266949Y22557D01*
X266811Y22575D01*
X266653Y22584D01*
D02*
G37*
G36*
X52332Y13022D02*
X52323D01*
X52285Y13013D01*
X52221D01*
X52138Y13003D01*
X52045Y12994D01*
X51925Y12976D01*
X51786Y12966D01*
X51638Y12948D01*
X51620D01*
X51574Y12939D01*
X51500Y12929D01*
X51407Y12920D01*
X51296Y12902D01*
X51185Y12883D01*
X51074Y12855D01*
X50973Y12828D01*
X50963D01*
X50926Y12809D01*
X50862Y12791D01*
X50797Y12754D01*
X50714Y12717D01*
X50631Y12671D01*
X50547Y12606D01*
X50473Y12541D01*
X50464Y12532D01*
X50446Y12504D01*
X50409Y12467D01*
X50381Y12402D01*
X50344Y12328D01*
X50307Y12245D01*
X50289Y12134D01*
X50279Y12014D01*
Y11996D01*
Y11949D01*
X50289Y11885D01*
X50307Y11792D01*
X50335Y11700D01*
X50372Y11607D01*
X50418Y11515D01*
X50492Y11432D01*
X50501Y11422D01*
X50529Y11404D01*
X50584Y11367D01*
X50658Y11339D01*
X50742Y11302D01*
X50852Y11265D01*
X50982Y11247D01*
X51130Y11237D01*
X51195D01*
X51259Y11247D01*
X51343Y11256D01*
X51444Y11274D01*
X51555Y11302D01*
X51666Y11339D01*
X51777Y11385D01*
X51786Y11395D01*
X51823Y11413D01*
X51888Y11450D01*
X51962Y11496D01*
X52045Y11552D01*
X52138Y11616D01*
X52332Y11764D01*
Y13022D01*
D02*
G37*
G36*
X46840Y15990D02*
X45804D01*
Y14233D01*
X46831D01*
X46914Y14242D01*
X47099Y14252D01*
X47182Y14261D01*
X47256Y14270D01*
X47265D01*
X47284Y14279D01*
X47321Y14289D01*
X47367Y14307D01*
X47487Y14353D01*
X47617Y14427D01*
X47626Y14436D01*
X47644Y14446D01*
X47681Y14473D01*
X47718Y14510D01*
X47801Y14603D01*
X47848Y14658D01*
X47875Y14723D01*
Y14732D01*
X47885Y14760D01*
X47903Y14797D01*
X47922Y14852D01*
X47931Y14926D01*
X47949Y15010D01*
X47959Y15102D01*
Y15204D01*
Y15213D01*
Y15241D01*
Y15278D01*
X47949Y15333D01*
X47931Y15453D01*
X47885Y15574D01*
Y15583D01*
X47875Y15601D01*
X47857Y15629D01*
X47829Y15666D01*
X47755Y15749D01*
X47644Y15833D01*
X47635Y15842D01*
X47617Y15851D01*
X47570Y15869D01*
X47524Y15888D01*
X47459Y15906D01*
X47385Y15934D01*
X47219Y15962D01*
X47210D01*
X47173Y15971D01*
X47117D01*
X47043Y15980D01*
X46951D01*
X46840Y15990D01*
D02*
G37*
G36*
X46858Y13567D02*
X45804D01*
Y11358D01*
X46627D01*
X46747Y11367D01*
X46877D01*
X47016Y11376D01*
X47154Y11385D01*
X47274Y11404D01*
X47284D01*
X47330Y11413D01*
X47385Y11432D01*
X47459Y11450D01*
X47533Y11478D01*
X47626Y11506D01*
X47718Y11552D01*
X47801Y11607D01*
X47811Y11616D01*
X47838Y11635D01*
X47885Y11672D01*
X47931Y11709D01*
X48042Y11820D01*
X48088Y11885D01*
X48134Y11959D01*
X48144Y11968D01*
X48153Y11996D01*
X48171Y12042D01*
X48190Y12097D01*
X48208Y12171D01*
X48227Y12264D01*
X48245Y12365D01*
Y12476D01*
Y12495D01*
Y12532D01*
X48236Y12596D01*
Y12671D01*
X48218Y12763D01*
X48199Y12855D01*
X48180Y12948D01*
X48144Y13031D01*
Y13040D01*
X48125Y13068D01*
X48097Y13114D01*
X48060Y13161D01*
X48005Y13225D01*
X47940Y13281D01*
X47857Y13345D01*
X47755Y13410D01*
X47746D01*
X47718Y13429D01*
X47681Y13438D01*
X47635Y13456D01*
X47570Y13484D01*
X47496Y13503D01*
X47339Y13530D01*
X47330D01*
X47302Y13540D01*
X47247D01*
X47182Y13549D01*
X47090Y13558D01*
X46979D01*
X46858Y13567D01*
D02*
G37*
G36*
X61522Y14677D02*
X61300D01*
X61235Y14668D01*
X61152Y14658D01*
X61060Y14640D01*
X60893Y14584D01*
X60884D01*
X60856Y14566D01*
X60819Y14547D01*
X60764Y14520D01*
X60644Y14436D01*
X60505Y14316D01*
X60496Y14307D01*
X60477Y14289D01*
X60440Y14252D01*
X60403Y14205D01*
X60366Y14141D01*
X60320Y14076D01*
X60237Y13919D01*
Y13909D01*
X60227Y13882D01*
X60209Y13836D01*
X60191Y13780D01*
X60172Y13706D01*
X60163Y13623D01*
X60144Y13530D01*
X60135Y13429D01*
X62530D01*
Y13438D01*
Y13484D01*
X62520Y13540D01*
Y13614D01*
X62511Y13687D01*
X62493Y13780D01*
X62456Y13956D01*
Y13965D01*
X62446Y13993D01*
X62428Y14030D01*
X62410Y14085D01*
X62345Y14205D01*
X62262Y14325D01*
X62252Y14335D01*
X62234Y14353D01*
X62206Y14381D01*
X62169Y14418D01*
X62123Y14464D01*
X62067Y14501D01*
X61919Y14584D01*
X61910D01*
X61883Y14603D01*
X61836Y14612D01*
X61781Y14631D01*
X61707Y14649D01*
X61624Y14658D01*
X61522Y14677D01*
D02*
G37*
%LPD*%
D10*
X235500Y132900D02*
G03*
X235500Y132900I-1250J0D01*
G01*
X232150Y64750D02*
G03*
X232150Y64750I-1250J0D01*
G01*
X170750Y62500D02*
G03*
X170750Y62500I-1250J0D01*
G01*
D11*
X130379Y111371D02*
G03*
X130379Y111371I-500J0D01*
G01*
X261000Y146000D02*
Y198000D01*
X172000Y146000D02*
X231000D01*
X261000D01*
X243000Y62000D02*
Y68000D01*
Y36000D02*
X246000D01*
X243000Y33000D02*
Y36000D01*
Y33000D02*
Y39000D01*
Y36000D02*
Y39000D01*
Y36000D02*
X245000D01*
X240000D02*
X245000D01*
X109000Y57000D02*
X115000D01*
X83000Y54000D02*
Y57000D01*
X80000D02*
X83000D01*
X80000D02*
X86000D01*
X83000D02*
X86000D01*
X83000Y55000D02*
Y57000D01*
Y55000D02*
Y60000D01*
X132000Y87000D02*
X134000D01*
X167000D01*
X132000Y113000D02*
X167000D01*
X64000Y72000D02*
Y82000D01*
Y118000D02*
Y128000D01*
X34000Y60000D02*
X47000D01*
X34000Y140000D02*
X46000D01*
X171000Y146000D02*
Y197000D01*
Y146000D02*
X171000Y146000D01*
X172000D01*
X122167Y77666D02*
X121334Y78499D01*
X119668D01*
X118835Y77666D01*
Y74334D01*
X119668Y73501D01*
X121334D01*
X122167Y74334D01*
X127165Y78499D02*
X123833D01*
Y76000D01*
X125499Y76833D01*
X126332D01*
X127165Y76000D01*
Y74334D01*
X126332Y73501D01*
X124666D01*
X123833Y74334D01*
X154501Y155666D02*
X153668Y156499D01*
X152002D01*
X151169Y155666D01*
Y154833D01*
X152002Y154000D01*
X153668D01*
X154501Y153167D01*
Y152334D01*
X153668Y151501D01*
X152002D01*
X151169Y152334D01*
X156167Y156499D02*
Y151501D01*
X157833Y153167D01*
X159499Y151501D01*
Y156499D01*
X161165Y151501D02*
X162831D01*
X161998D01*
Y156499D01*
X161165Y155666D01*
X154835Y130501D02*
Y135499D01*
X157334D01*
X158167Y134666D01*
Y133000D01*
X157334Y132167D01*
X154835D01*
X156501D02*
X158167Y130501D01*
X163165Y135499D02*
X159833D01*
Y133000D01*
X161499Y133833D01*
X162332D01*
X163165Y133000D01*
Y131334D01*
X162332Y130501D01*
X160666D01*
X159833Y131334D01*
X176835Y120501D02*
Y125499D01*
X179334D01*
X180167Y124666D01*
Y123000D01*
X179334Y122167D01*
X176835D01*
X178501D02*
X180167Y120501D01*
X185165D02*
X181833D01*
X185165Y123833D01*
Y124666D01*
X184332Y125499D01*
X182666D01*
X181833Y124666D01*
X194000Y113334D02*
Y116666D01*
X193167Y117499D01*
X191501D01*
X190668Y116666D01*
Y113334D01*
X191501Y112501D01*
X193167D01*
X192334Y114167D02*
X194000Y112501D01*
X193167D02*
X194000Y113334D01*
X195666Y112501D02*
X197332D01*
X196499D01*
Y117499D01*
X195666Y116666D01*
X201668Y95499D02*
Y90501D01*
X204167D01*
X205000Y91334D01*
Y94666D01*
X204167Y95499D01*
X201668D01*
X206666Y90501D02*
X208332D01*
X207499D01*
Y95499D01*
X206666Y94666D01*
X245668Y122501D02*
Y127499D01*
X248167D01*
X249000Y126666D01*
Y125000D01*
X248167Y124167D01*
X245668D01*
X247334D02*
X249000Y122501D01*
X250666D02*
X252332D01*
X251499D01*
Y127499D01*
X250666Y126666D01*
X258167Y115499D02*
X256501D01*
X257334D01*
Y111334D01*
X256501Y110501D01*
X255668D01*
X254835Y111334D01*
X263165Y110501D02*
X259833D01*
X263165Y113833D01*
Y114666D01*
X262332Y115499D01*
X260666D01*
X259833Y114666D01*
X247000Y27499D02*
X245334D01*
X246167D01*
Y23334D01*
X245334Y22501D01*
X244501D01*
X243668Y23334D01*
X248666Y22501D02*
X250332D01*
X249499D01*
Y27499D01*
X248666Y26666D01*
X231167Y39666D02*
X230334Y40499D01*
X228668D01*
X227835Y39666D01*
Y36334D01*
X228668Y35501D01*
X230334D01*
X231167Y36334D01*
X235332Y35501D02*
Y40499D01*
X232833Y38000D01*
X236165D01*
X203167Y32666D02*
X202334Y33499D01*
X200668D01*
X199835Y32666D01*
Y29334D01*
X200668Y28501D01*
X202334D01*
X203167Y29334D01*
X204833Y32666D02*
X205666Y33499D01*
X207332D01*
X208165Y32666D01*
Y31833D01*
X207332Y31000D01*
X206499D01*
X207332D01*
X208165Y30167D01*
Y29334D01*
X207332Y28501D01*
X205666D01*
X204833Y29334D01*
X176668Y33499D02*
Y29334D01*
X177501Y28501D01*
X179167D01*
X180000Y29334D01*
Y33499D01*
X181666Y28501D02*
X183332D01*
X182499D01*
Y33499D01*
X181666Y32666D01*
X154000Y38666D02*
X153167Y39499D01*
X151501D01*
X150668Y38666D01*
Y35334D01*
X151501Y34501D01*
X153167D01*
X154000Y35334D01*
X155666Y34501D02*
X157332D01*
X156499D01*
Y39499D01*
X155666Y38666D01*
X138167Y37666D02*
X137334Y38499D01*
X135668D01*
X134835Y37666D01*
Y34334D01*
X135668Y33501D01*
X137334D01*
X138167Y34334D01*
X143165Y33501D02*
X139833D01*
X143165Y36833D01*
Y37666D01*
X142332Y38499D01*
X140666D01*
X139833Y37666D01*
X63167Y29499D02*
X61501D01*
X62334D01*
Y25334D01*
X61501Y24501D01*
X60668D01*
X59835Y25334D01*
X67332Y24501D02*
Y29499D01*
X64833Y27000D01*
X68165D01*
X98167Y78666D02*
X97334Y79499D01*
X95668D01*
X94835Y78666D01*
Y75334D01*
X95668Y74501D01*
X97334D01*
X98167Y75334D01*
X103165Y79499D02*
X101499Y78666D01*
X99833Y77000D01*
Y75334D01*
X100666Y74501D01*
X102332D01*
X103165Y75334D01*
Y76167D01*
X102332Y77000D01*
X99833D01*
X137835Y121499D02*
Y117334D01*
X138668Y116501D01*
X140334D01*
X141167Y117334D01*
Y121499D01*
X146165Y116501D02*
X142833D01*
X146165Y119833D01*
Y120666D01*
X145332Y121499D01*
X143666D01*
X142833Y120666D01*
X117084Y116666D02*
X116251Y117499D01*
X114585D01*
X113752Y116666D01*
Y113334D01*
X114585Y112501D01*
X116251D01*
X117084Y113334D01*
X118750Y112501D02*
X120416D01*
X119584D01*
Y117499D01*
X118750Y116666D01*
X122916D02*
X123749Y117499D01*
X125415D01*
X126248Y116666D01*
Y113334D01*
X125415Y112501D01*
X123749D01*
X122916Y113334D01*
Y116666D01*
X104167D02*
X103334Y117499D01*
X101668D01*
X100835Y116666D01*
Y113334D01*
X101668Y112501D01*
X103334D01*
X104167Y113334D01*
X105833D02*
X106666Y112501D01*
X108332D01*
X109165Y113334D01*
Y116666D01*
X108332Y117499D01*
X106666D01*
X105833Y116666D01*
Y115833D01*
X106666Y115000D01*
X109165D01*
X90167Y89666D02*
X89334Y90499D01*
X87668D01*
X86835Y89666D01*
Y86334D01*
X87668Y85501D01*
X89334D01*
X90167Y86334D01*
X91833Y89666D02*
X92666Y90499D01*
X94332D01*
X95165Y89666D01*
Y88833D01*
X94332Y88000D01*
X95165Y87167D01*
Y86334D01*
X94332Y85501D01*
X92666D01*
X91833Y86334D01*
Y87167D01*
X92666Y88000D01*
X91833Y88833D01*
Y89666D01*
X92666Y88000D02*
X94332D01*
X79167Y116666D02*
X78334Y117499D01*
X76668D01*
X75835Y116666D01*
Y113334D01*
X76668Y112501D01*
X78334D01*
X79167Y113334D01*
X80833Y117499D02*
X84165D01*
Y116666D01*
X80833Y113334D01*
Y112501D01*
X86835Y140501D02*
Y145499D01*
X89334D01*
X90167Y144666D01*
Y143000D01*
X89334Y142167D01*
X86835D01*
X88501D02*
X90167Y140501D01*
X94332D02*
Y145499D01*
X91833Y143000D01*
X95165D01*
X63167Y153499D02*
X61501D01*
X62334D01*
Y149334D01*
X61501Y148501D01*
X60668D01*
X59835Y149334D01*
X64833Y152666D02*
X65666Y153499D01*
X67332D01*
X68165Y152666D01*
Y151833D01*
X67332Y151000D01*
X66499D01*
X67332D01*
X68165Y150167D01*
Y149334D01*
X67332Y148501D01*
X65666D01*
X64833Y149334D01*
X29835Y177499D02*
Y172501D01*
X32334D01*
X33167Y173334D01*
Y176666D01*
X32334Y177499D01*
X29835D01*
X38165Y172501D02*
X34833D01*
X38165Y175833D01*
Y176666D01*
X37332Y177499D01*
X35666D01*
X34833Y176666D01*
X174980Y93954D02*
Y98952D01*
X177479D01*
X178312Y98119D01*
Y96453D01*
X177479Y95620D01*
X174980D01*
X176646D02*
X178312Y93954D01*
X179978Y98119D02*
X180811Y98952D01*
X182477D01*
X183311Y98119D01*
Y97286D01*
X182477Y96453D01*
X181644D01*
X182477D01*
X183311Y95620D01*
Y94787D01*
X182477Y93954D01*
X180811D01*
X179978Y94787D01*
D12*
X232500Y113850D02*
Y123850D01*
X223750Y113850D02*
X232500D01*
X201500D02*
Y123850D01*
Y113850D02*
X210250D01*
X211850Y88750D02*
Y97500D01*
X221850D01*
X211850Y66500D02*
Y75250D01*
Y66500D02*
X221850D01*
X271500Y90500D02*
Y140500D01*
X296500D01*
Y90500D02*
Y140500D01*
X271500Y90500D02*
X296500D01*
X182500Y38000D02*
Y58000D01*
X177500Y38000D02*
Y58000D01*
Y38000D02*
X182500D01*
X177500Y58000D02*
X182500D01*
X17000Y153260D02*
Y168500D01*
X19250Y168620D02*
X49970D01*
X19250Y153380D02*
Y168620D01*
Y153380D02*
X49970D01*
D13*
X253500Y31000D02*
X275630D01*
X253500Y71000D02*
X276970D01*
X296000Y43330D02*
Y58220D01*
X253500Y31000D02*
Y39550D01*
Y62000D02*
Y71000D01*
X78000Y24370D02*
Y46500D01*
X118000Y23030D02*
Y46500D01*
X90330Y4000D02*
X105220D01*
X78000Y46500D02*
X86550D01*
X109000D02*
X118000D01*
M02*
