G04*
G04 #@! TF.GenerationSoftware,Altium Limited,Altium Designer,21.6.4 (81)*
G04*
G04 Layer_Color=16711935*
%FSLAX44Y44*%
%MOMM*%
G71*
G04*
G04 #@! TF.SameCoordinates,8A05593B-3552-4C3B-B2EF-5CC55372FEEF*
G04*
G04*
G04 #@! TF.FilePolarity,Positive*
G04*
G01*
G75*
%ADD11C,0.1000*%
%ADD12C,0.2000*%
%ADD13C,0.2540*%
G36*
X232083Y202166D02*
X230737D01*
X228962Y209655D01*
X227118Y202166D01*
X225772D01*
X223498Y211195D01*
X224677D01*
X226494Y203609D01*
X228310Y211195D01*
X229531D01*
X231334Y203720D01*
X233151Y211195D01*
X234385D01*
X232083Y202166D01*
D02*
G37*
G36*
X220156Y210973D02*
X220211Y210751D01*
X220294Y210585D01*
X220378Y210446D01*
X220475Y210349D01*
X220544Y210279D01*
X220600Y210238D01*
X220613Y210224D01*
X220794Y210141D01*
X221016Y210071D01*
X221238Y210030D01*
X221459Y209988D01*
X221654Y209974D01*
X221820Y209960D01*
X221973D01*
Y209142D01*
X220336D01*
Y203082D01*
X221973D01*
Y202166D01*
X217576D01*
Y203082D01*
X219171D01*
Y211222D01*
X220114D01*
X220156Y210973D01*
D02*
G37*
G36*
X238143Y211347D02*
X238365Y211333D01*
X238795Y211250D01*
X238989Y211195D01*
X239169Y211125D01*
X239336Y211056D01*
X239488Y210987D01*
X239627Y210917D01*
X239738Y210848D01*
X239849Y210793D01*
X239932Y210723D01*
X240002Y210682D01*
X240043Y210640D01*
X240071Y210626D01*
X240085Y210612D01*
X240237Y210474D01*
X240362Y210321D01*
X240473Y210168D01*
X240570Y210002D01*
X240653Y209849D01*
X240723Y209697D01*
X240820Y209406D01*
X240889Y209156D01*
X240903Y209045D01*
X240917Y208948D01*
X240931Y208879D01*
Y208823D01*
Y208782D01*
Y208768D01*
X240917Y208574D01*
X240903Y208407D01*
X240875Y208241D01*
X240847Y208102D01*
X240820Y207991D01*
X240806Y207908D01*
X240778Y207852D01*
Y207839D01*
X240709Y207700D01*
X240639Y207561D01*
X240570Y207436D01*
X240501Y207339D01*
X240445Y207256D01*
X240390Y207187D01*
X240362Y207145D01*
X240348Y207131D01*
X240126Y206937D01*
X239918Y206785D01*
X239821Y206729D01*
X239752Y206688D01*
X239710Y206660D01*
X239696Y206646D01*
X239405Y206521D01*
X239266Y206466D01*
X239128Y206424D01*
X239017Y206382D01*
X238934Y206369D01*
X238864Y206341D01*
X238850D01*
X238670Y206285D01*
X238504Y206244D01*
X238351Y206216D01*
X238226Y206174D01*
X238129Y206147D01*
X238046Y206133D01*
X238004Y206119D01*
X237990D01*
X237727Y206063D01*
X237588Y206022D01*
X237477Y205994D01*
X237367Y205966D01*
X237283Y205952D01*
X237228Y205925D01*
X237214D01*
X237006Y205855D01*
X236840Y205772D01*
X236687Y205689D01*
X236576Y205606D01*
X236479Y205536D01*
X236423Y205467D01*
X236382Y205425D01*
X236368Y205412D01*
X236271Y205273D01*
X236201Y205134D01*
X236160Y204996D01*
X236118Y204857D01*
X236104Y204732D01*
X236091Y204635D01*
Y204566D01*
Y204538D01*
X236118Y204302D01*
X236174Y204080D01*
X236257Y203900D01*
X236340Y203734D01*
X236437Y203609D01*
X236521Y203512D01*
X236576Y203456D01*
X236604Y203442D01*
X236812Y203304D01*
X237061Y203207D01*
X237311Y203137D01*
X237547Y203096D01*
X237769Y203068D01*
X237866Y203054D01*
X237949Y203040D01*
X238115D01*
X238379Y203054D01*
X238642Y203082D01*
X238892Y203137D01*
X239114Y203193D01*
X239294Y203234D01*
X239447Y203290D01*
X239502Y203304D01*
X239544Y203318D01*
X239558Y203331D01*
X239571D01*
X239849Y203456D01*
X240098Y203595D01*
X240320Y203747D01*
X240528Y203886D01*
X240695Y204011D01*
X240806Y204108D01*
X240889Y204177D01*
X240903Y204205D01*
X241000D01*
Y202693D01*
X240542Y202499D01*
X240334Y202402D01*
X240126Y202333D01*
X239960Y202277D01*
X239821Y202236D01*
X239780Y202222D01*
X239738Y202208D01*
X239724Y202194D01*
X239710D01*
X239433Y202125D01*
X239156Y202083D01*
X238878Y202042D01*
X238615Y202028D01*
X238379Y202014D01*
X238282Y202000D01*
X238032D01*
X237741Y202014D01*
X237477Y202028D01*
X237242Y202069D01*
X237034Y202111D01*
X236881Y202139D01*
X236756Y202180D01*
X236687Y202194D01*
X236659Y202208D01*
X236451Y202291D01*
X236271Y202388D01*
X236104Y202499D01*
X235952Y202596D01*
X235841Y202680D01*
X235744Y202749D01*
X235688Y202804D01*
X235674Y202818D01*
X235536Y202957D01*
X235411Y203096D01*
X235314Y203248D01*
X235217Y203373D01*
X235161Y203498D01*
X235106Y203595D01*
X235078Y203650D01*
X235064Y203678D01*
X234995Y203872D01*
X234939Y204066D01*
X234898Y204247D01*
X234870Y204399D01*
X234856Y204538D01*
X234842Y204649D01*
Y204704D01*
Y204732D01*
X234856Y205037D01*
X234912Y205315D01*
X234981Y205550D01*
X235064Y205758D01*
X235147Y205925D01*
X235217Y206049D01*
X235272Y206119D01*
X235286Y206147D01*
X235466Y206355D01*
X235674Y206521D01*
X235910Y206674D01*
X236132Y206798D01*
X236326Y206882D01*
X236493Y206951D01*
X236562Y206979D01*
X236604Y206993D01*
X236631Y207006D01*
X236645D01*
X236784Y207048D01*
X236936Y207090D01*
X237089Y207131D01*
X237242Y207173D01*
X237367Y207201D01*
X237463Y207228D01*
X237533Y207242D01*
X237561D01*
X237755Y207298D01*
X237935Y207339D01*
X238102Y207381D01*
X238240Y207409D01*
X238351Y207436D01*
X238434Y207464D01*
X238490Y207478D01*
X238504D01*
X238712Y207547D01*
X238892Y207631D01*
X239044Y207714D01*
X239169Y207797D01*
X239266Y207866D01*
X239336Y207922D01*
X239377Y207963D01*
X239391Y207977D01*
X239488Y208116D01*
X239558Y208269D01*
X239613Y208421D01*
X239641Y208560D01*
X239669Y208698D01*
X239683Y208796D01*
Y208865D01*
Y208893D01*
X239655Y209114D01*
X239599Y209322D01*
X239516Y209503D01*
X239419Y209641D01*
X239336Y209766D01*
X239253Y209849D01*
X239197Y209905D01*
X239169Y209919D01*
X238961Y210058D01*
X238739Y210155D01*
X238517Y210224D01*
X238296Y210266D01*
X238102Y210307D01*
X237949Y210321D01*
X237810D01*
X237533Y210307D01*
X237283Y210279D01*
X237034Y210224D01*
X236826Y210168D01*
X236645Y210113D01*
X236507Y210058D01*
X236465Y210044D01*
X236423Y210030D01*
X236409Y210016D01*
X236396D01*
X236146Y209905D01*
X235938Y209794D01*
X235744Y209669D01*
X235591Y209572D01*
X235453Y209475D01*
X235369Y209406D01*
X235300Y209350D01*
X235286Y209336D01*
X235189D01*
Y210765D01*
X235633Y210959D01*
X235841Y211028D01*
X236035Y211098D01*
X236201Y211139D01*
X236340Y211181D01*
X236423Y211209D01*
X236451D01*
X236715Y211264D01*
X236964Y211292D01*
X237200Y211320D01*
X237422Y211347D01*
X237616D01*
X237769Y211361D01*
X237894D01*
X238143Y211347D01*
D02*
G37*
G36*
X198011Y141059D02*
X198196Y141036D01*
X198427Y141012D01*
X198682Y140966D01*
X198936Y140920D01*
X199538Y140758D01*
X200139Y140527D01*
X200440Y140388D01*
X200741Y140226D01*
X201019Y140017D01*
X201273Y139786D01*
X201296Y139763D01*
X201343Y139740D01*
X201389Y139647D01*
X201481Y139555D01*
X201597Y139439D01*
X201713Y139277D01*
X201829Y139115D01*
X201967Y138907D01*
X202199Y138467D01*
X202430Y137912D01*
X202523Y137634D01*
X202569Y137310D01*
X202615Y136986D01*
X202638Y136639D01*
Y136593D01*
Y136477D01*
X202615Y136292D01*
X202592Y136038D01*
X202546Y135760D01*
X202453Y135436D01*
X202361Y135089D01*
X202222Y134742D01*
X202199Y134695D01*
X202153Y134580D01*
X202060Y134395D01*
X201921Y134140D01*
X201736Y133862D01*
X201505Y133515D01*
X201227Y133168D01*
X200903Y132775D01*
X200857Y132729D01*
X200741Y132590D01*
X200625Y132474D01*
X200510Y132358D01*
X200371Y132219D01*
X200186Y132034D01*
X200000Y131849D01*
X199769Y131641D01*
X199538Y131410D01*
X199260Y131155D01*
X198959Y130900D01*
X198635Y130600D01*
X198265Y130299D01*
X197895Y129975D01*
X197872Y129952D01*
X197825Y129906D01*
X197733Y129836D01*
X197617Y129744D01*
X197478Y129605D01*
X197316Y129466D01*
X196946Y129165D01*
X196553Y128818D01*
X196182Y128471D01*
X195859Y128170D01*
X195720Y128054D01*
X195604Y127939D01*
X195581Y127915D01*
X195511Y127846D01*
X195419Y127754D01*
X195303Y127615D01*
X195187Y127453D01*
X195049Y127291D01*
X194771Y126897D01*
X202662D01*
Y125000D01*
X192041D01*
Y125023D01*
Y125116D01*
Y125254D01*
X192064Y125440D01*
X192087Y125648D01*
X192133Y125879D01*
X192179Y126111D01*
X192272Y126365D01*
Y126388D01*
X192295Y126412D01*
X192341Y126550D01*
X192434Y126759D01*
X192573Y127036D01*
X192758Y127360D01*
X192989Y127730D01*
X193244Y128101D01*
X193568Y128494D01*
Y128517D01*
X193614Y128540D01*
X193730Y128679D01*
X193938Y128887D01*
X194239Y129188D01*
X194586Y129535D01*
X195026Y129952D01*
X195558Y130415D01*
X196136Y130900D01*
X196159Y130924D01*
X196252Y130993D01*
X196391Y131109D01*
X196553Y131248D01*
X196761Y131433D01*
X197016Y131641D01*
X197270Y131872D01*
X197571Y132127D01*
X198149Y132682D01*
X198728Y133238D01*
X199006Y133515D01*
X199260Y133793D01*
X199492Y134047D01*
X199677Y134302D01*
Y134325D01*
X199723Y134348D01*
X199769Y134418D01*
X199815Y134510D01*
X199977Y134765D01*
X200163Y135066D01*
X200324Y135436D01*
X200487Y135829D01*
X200579Y136269D01*
X200625Y136685D01*
Y136708D01*
Y136732D01*
X200602Y136870D01*
X200579Y137102D01*
X200510Y137356D01*
X200417Y137680D01*
X200255Y138004D01*
X200047Y138328D01*
X199769Y138652D01*
X199723Y138699D01*
X199607Y138791D01*
X199445Y138907D01*
X199191Y139069D01*
X198867Y139208D01*
X198496Y139346D01*
X198057Y139439D01*
X197571Y139462D01*
X197432D01*
X197339Y139439D01*
X197062Y139416D01*
X196738Y139346D01*
X196391Y139254D01*
X195997Y139092D01*
X195627Y138884D01*
X195280Y138606D01*
X195234Y138560D01*
X195141Y138444D01*
X195002Y138259D01*
X194864Y137981D01*
X194702Y137657D01*
X194563Y137241D01*
X194470Y136778D01*
X194424Y136246D01*
X192411Y136454D01*
Y136477D01*
X192434Y136546D01*
Y136662D01*
X192457Y136824D01*
X192503Y137009D01*
X192550Y137218D01*
X192619Y137472D01*
X192689Y137727D01*
X192874Y138282D01*
X193151Y138837D01*
X193313Y139115D01*
X193521Y139393D01*
X193730Y139647D01*
X193961Y139879D01*
X193984Y139902D01*
X194031Y139925D01*
X194100Y139994D01*
X194216Y140064D01*
X194354Y140156D01*
X194517Y140249D01*
X194702Y140365D01*
X194933Y140480D01*
X195187Y140596D01*
X195465Y140712D01*
X195766Y140804D01*
X196090Y140897D01*
X196437Y140966D01*
X196807Y141036D01*
X197201Y141059D01*
X197617Y141082D01*
X197849D01*
X198011Y141059D01*
D02*
G37*
G36*
X184613Y140989D02*
X184821D01*
X185307Y140966D01*
X185816Y140897D01*
X186371Y140827D01*
X186880Y140712D01*
X187135Y140642D01*
X187343Y140573D01*
X187366D01*
X187390Y140550D01*
X187528Y140480D01*
X187737Y140388D01*
X187991Y140226D01*
X188269Y140017D01*
X188570Y139740D01*
X188847Y139416D01*
X189125Y139046D01*
Y139023D01*
X189148Y138999D01*
X189241Y138861D01*
X189333Y138629D01*
X189472Y138328D01*
X189588Y137981D01*
X189704Y137565D01*
X189773Y137125D01*
X189796Y136639D01*
Y136616D01*
Y136570D01*
Y136477D01*
X189773Y136361D01*
Y136199D01*
X189750Y136038D01*
X189657Y135644D01*
X189518Y135181D01*
X189333Y134695D01*
X189056Y134209D01*
X188871Y133978D01*
X188685Y133747D01*
X188662Y133723D01*
X188639Y133700D01*
X188570Y133631D01*
X188477Y133562D01*
X188361Y133469D01*
X188223Y133376D01*
X188037Y133261D01*
X187852Y133122D01*
X187621Y133006D01*
X187366Y132891D01*
X187089Y132752D01*
X186788Y132636D01*
X186441Y132543D01*
X186094Y132428D01*
X185700Y132358D01*
X185284Y132289D01*
X185330Y132266D01*
X185423Y132219D01*
X185562Y132127D01*
X185747Y132034D01*
X186163Y131780D01*
X186371Y131618D01*
X186556Y131479D01*
X186603Y131433D01*
X186719Y131317D01*
X186904Y131132D01*
X187135Y130900D01*
X187390Y130577D01*
X187690Y130230D01*
X187991Y129813D01*
X188315Y129350D01*
X191069Y125000D01*
X188431D01*
X186325Y128332D01*
Y128355D01*
X186279Y128401D01*
X186233Y128471D01*
X186163Y128563D01*
X186001Y128818D01*
X185793Y129142D01*
X185538Y129489D01*
X185284Y129859D01*
X185029Y130206D01*
X184798Y130530D01*
X184775Y130553D01*
X184705Y130646D01*
X184590Y130785D01*
X184428Y130947D01*
X184081Y131294D01*
X183895Y131456D01*
X183710Y131595D01*
X183687Y131618D01*
X183641Y131641D01*
X183548Y131687D01*
X183410Y131757D01*
X183271Y131826D01*
X183109Y131896D01*
X182738Y132011D01*
X182715D01*
X182669Y132034D01*
X182577D01*
X182461Y132058D01*
X182299Y132081D01*
X182114D01*
X181859Y132104D01*
X179129D01*
Y125000D01*
X177000D01*
Y129208D01*
X170766D01*
X169910Y124881D01*
X169933Y124904D01*
X169979Y124927D01*
X170049Y124973D01*
X170164Y125042D01*
X170303Y125112D01*
X170465Y125204D01*
X170835Y125390D01*
X171298Y125575D01*
X171807Y125737D01*
X172363Y125852D01*
X172640Y125899D01*
X173149D01*
X173288Y125876D01*
X173473Y125852D01*
X173682Y125829D01*
X173913Y125783D01*
X174167Y125714D01*
X174723Y125552D01*
X175024Y125436D01*
X175324Y125274D01*
X175625Y125112D01*
X175926Y124927D01*
X176204Y124695D01*
X176481Y124441D01*
X176505Y124418D01*
X176551Y124372D01*
X176620Y124302D01*
X176713Y124186D01*
X176829Y124024D01*
X176944Y123862D01*
X177083Y123654D01*
X177222Y123423D01*
X177338Y123168D01*
X177477Y122891D01*
X177592Y122567D01*
X177708Y122243D01*
X177800Y121896D01*
X177870Y121502D01*
X177916Y121109D01*
X177939Y120692D01*
Y120669D01*
Y120600D01*
Y120484D01*
X177916Y120322D01*
X177893Y120137D01*
X177870Y119929D01*
X177824Y119674D01*
X177777Y119420D01*
X177638Y118818D01*
X177407Y118193D01*
X177268Y117869D01*
X177083Y117569D01*
X176898Y117245D01*
X176667Y116944D01*
X176644Y116921D01*
X176597Y116851D01*
X176505Y116759D01*
X176389Y116643D01*
X176227Y116504D01*
X176042Y116319D01*
X175810Y116157D01*
X175556Y115972D01*
X175278Y115787D01*
X174954Y115625D01*
X174607Y115463D01*
X174237Y115301D01*
X173844Y115185D01*
X173404Y115093D01*
X172941Y115023D01*
X172455Y115000D01*
X172247D01*
X172085Y115023D01*
X171900Y115046D01*
X171692Y115069D01*
X171437Y115093D01*
X171183Y115162D01*
X170604Y115301D01*
X170026Y115509D01*
X169725Y115648D01*
X169424Y115810D01*
X169146Y115995D01*
X168869Y116203D01*
X168846Y116226D01*
X168799Y116250D01*
X168753Y116342D01*
X168660Y116435D01*
X168545Y116550D01*
X168429Y116689D01*
X168290Y116874D01*
X168174Y117083D01*
X168036Y117291D01*
X167897Y117545D01*
X167642Y118101D01*
X167434Y118749D01*
X167365Y119096D01*
X167318Y119466D01*
X169378Y119628D01*
Y119605D01*
Y119558D01*
X169401Y119489D01*
X169424Y119373D01*
X169493Y119119D01*
X169586Y118772D01*
X169725Y118425D01*
X169910Y118031D01*
X170141Y117684D01*
X170419Y117360D01*
X170465Y117337D01*
X170558Y117245D01*
X170743Y117129D01*
X170997Y116990D01*
X171275Y116851D01*
X171622Y116735D01*
X172016Y116643D01*
X172455Y116620D01*
X172594D01*
X172687Y116643D01*
X172964Y116666D01*
X173288Y116759D01*
X173682Y116874D01*
X174075Y117059D01*
X174492Y117337D01*
X174677Y117499D01*
X174862Y117684D01*
X174885Y117707D01*
X174908Y117730D01*
X174954Y117800D01*
X175024Y117869D01*
X175186Y118124D01*
X175371Y118448D01*
X175533Y118841D01*
X175695Y119327D01*
X175810Y119906D01*
X175857Y120206D01*
Y120530D01*
Y120554D01*
Y120600D01*
Y120692D01*
X175834Y120808D01*
Y120947D01*
X175810Y121109D01*
X175741Y121479D01*
X175625Y121919D01*
X175463Y122358D01*
X175232Y122775D01*
X174908Y123168D01*
Y123191D01*
X174862Y123215D01*
X174746Y123330D01*
X174538Y123492D01*
X174260Y123677D01*
X173890Y123839D01*
X173473Y124001D01*
X172987Y124117D01*
X172710Y124163D01*
X172270D01*
X172085Y124140D01*
X171854Y124117D01*
X171576Y124047D01*
X171298Y123978D01*
X170997Y123862D01*
X170697Y123724D01*
X170674Y123700D01*
X170581Y123654D01*
X170442Y123538D01*
X170257Y123423D01*
X170072Y123261D01*
X169887Y123053D01*
X169678Y122844D01*
X169517Y122590D01*
X167665Y122844D01*
X169216Y131082D01*
X177000D01*
Y141012D01*
X184428D01*
X184613Y140989D01*
D02*
G37*
G36*
X159613Y131267D02*
X159821D01*
X160307Y131244D01*
X160816Y131174D01*
X161371Y131105D01*
X161880Y130989D01*
X162135Y130920D01*
X162343Y130850D01*
X162367D01*
X162390Y130827D01*
X162528Y130758D01*
X162737Y130665D01*
X162991Y130503D01*
X163269Y130295D01*
X163570Y130017D01*
X163847Y129693D01*
X164125Y129323D01*
Y129300D01*
X164148Y129277D01*
X164241Y129138D01*
X164333Y128907D01*
X164472Y128606D01*
X164588Y128259D01*
X164704Y127842D01*
X164773Y127403D01*
X164796Y126917D01*
Y126894D01*
Y126847D01*
Y126755D01*
X164773Y126639D01*
Y126477D01*
X164750Y126315D01*
X164657Y125922D01*
X164518Y125459D01*
X164333Y124973D01*
X164056Y124487D01*
X163871Y124256D01*
X163685Y124024D01*
X163662Y124001D01*
X163639Y123978D01*
X163570Y123909D01*
X163477Y123839D01*
X163361Y123747D01*
X163223Y123654D01*
X163037Y123538D01*
X162852Y123400D01*
X162621Y123284D01*
X162367Y123168D01*
X162089Y123029D01*
X161788Y122914D01*
X161441Y122821D01*
X161094Y122705D01*
X160700Y122636D01*
X160284Y122567D01*
X160330Y122543D01*
X160423Y122497D01*
X160562Y122405D01*
X160747Y122312D01*
X161163Y122058D01*
X161371Y121896D01*
X161557Y121757D01*
X161603Y121710D01*
X161719Y121595D01*
X161904Y121410D01*
X162135Y121178D01*
X162390Y120854D01*
X162690Y120507D01*
X162991Y120091D01*
X163315Y119628D01*
X166069Y115278D01*
X163431D01*
X161325Y118610D01*
Y118633D01*
X161279Y118679D01*
X161233Y118749D01*
X161163Y118841D01*
X161001Y119096D01*
X160793Y119420D01*
X160538Y119767D01*
X160284Y120137D01*
X160029Y120484D01*
X159798Y120808D01*
X159775Y120831D01*
X159705Y120924D01*
X159590Y121062D01*
X159428Y121224D01*
X159081Y121572D01*
X158896Y121734D01*
X158710Y121872D01*
X158687Y121896D01*
X158641Y121919D01*
X158548Y121965D01*
X158410Y122034D01*
X158271Y122104D01*
X158109Y122173D01*
X157739Y122289D01*
X157715D01*
X157669Y122312D01*
X157577D01*
X157461Y122335D01*
X157299Y122358D01*
X157114D01*
X156859Y122381D01*
X154129D01*
Y115278D01*
X152000D01*
Y131290D01*
X159428D01*
X159613Y131267D01*
D02*
G37*
G36*
X264723Y126000D02*
X262756D01*
Y138518D01*
X262733Y138495D01*
X262617Y138403D01*
X262478Y138264D01*
X262247Y138102D01*
X261992Y137894D01*
X261668Y137662D01*
X261298Y137408D01*
X260882Y137153D01*
X260859D01*
X260835Y137130D01*
X260697Y137037D01*
X260465Y136922D01*
X260188Y136783D01*
X259864Y136621D01*
X259517Y136459D01*
X259169Y136297D01*
X258822Y136158D01*
Y138056D01*
X258846D01*
X258892Y138102D01*
X258984Y138125D01*
X259100Y138195D01*
X259239Y138264D01*
X259401Y138356D01*
X259794Y138588D01*
X260257Y138842D01*
X260720Y139166D01*
X261206Y139537D01*
X261692Y139930D01*
X261715Y139953D01*
X261738Y139976D01*
X261807Y140046D01*
X261900Y140115D01*
X262108Y140346D01*
X262386Y140624D01*
X262663Y140948D01*
X262964Y141318D01*
X263219Y141688D01*
X263450Y142082D01*
X264723D01*
Y126000D01*
D02*
G37*
G36*
X249613Y141989D02*
X249821D01*
X250307Y141966D01*
X250816Y141897D01*
X251371Y141827D01*
X251880Y141712D01*
X252135Y141642D01*
X252343Y141573D01*
X252366D01*
X252390Y141550D01*
X252528Y141480D01*
X252737Y141388D01*
X252991Y141226D01*
X253269Y141018D01*
X253570Y140740D01*
X253847Y140416D01*
X254125Y140046D01*
Y140022D01*
X254148Y139999D01*
X254241Y139860D01*
X254333Y139629D01*
X254472Y139328D01*
X254588Y138981D01*
X254704Y138565D01*
X254773Y138125D01*
X254796Y137639D01*
Y137616D01*
Y137570D01*
Y137477D01*
X254773Y137361D01*
Y137199D01*
X254750Y137037D01*
X254657Y136644D01*
X254518Y136181D01*
X254333Y135695D01*
X254056Y135210D01*
X253871Y134978D01*
X253685Y134747D01*
X253662Y134724D01*
X253639Y134700D01*
X253570Y134631D01*
X253477Y134562D01*
X253361Y134469D01*
X253223Y134376D01*
X253037Y134261D01*
X252852Y134122D01*
X252621Y134006D01*
X252366Y133890D01*
X252089Y133752D01*
X251788Y133636D01*
X251441Y133543D01*
X251094Y133428D01*
X250700Y133358D01*
X250284Y133289D01*
X250330Y133266D01*
X250423Y133219D01*
X250562Y133127D01*
X250747Y133034D01*
X251163Y132780D01*
X251371Y132618D01*
X251557Y132479D01*
X251603Y132433D01*
X251719Y132317D01*
X251904Y132132D01*
X252135Y131901D01*
X252390Y131577D01*
X252690Y131229D01*
X252991Y130813D01*
X253315Y130350D01*
X256069Y126000D01*
X253431D01*
X251325Y129332D01*
Y129355D01*
X251279Y129402D01*
X251233Y129471D01*
X251163Y129564D01*
X251001Y129818D01*
X250793Y130142D01*
X250538Y130489D01*
X250284Y130859D01*
X250029Y131206D01*
X249798Y131530D01*
X249775Y131553D01*
X249705Y131646D01*
X249590Y131785D01*
X249428Y131947D01*
X249081Y132294D01*
X248895Y132456D01*
X248710Y132595D01*
X248687Y132618D01*
X248641Y132641D01*
X248548Y132687D01*
X248410Y132757D01*
X248271Y132826D01*
X248109Y132895D01*
X247739Y133011D01*
X247715D01*
X247669Y133034D01*
X247577D01*
X247461Y133057D01*
X247299Y133081D01*
X247114D01*
X246859Y133104D01*
X244129D01*
Y126000D01*
X242000D01*
Y142013D01*
X249428D01*
X249613Y141989D01*
D02*
G37*
G36*
X99012Y126572D02*
X98989Y126387D01*
Y126179D01*
X98966Y125693D01*
X98897Y125184D01*
X98827Y124629D01*
X98712Y124120D01*
X98642Y123865D01*
X98573Y123657D01*
Y123634D01*
X98550Y123610D01*
X98480Y123472D01*
X98388Y123263D01*
X98226Y123009D01*
X98018Y122731D01*
X97740Y122430D01*
X97416Y122153D01*
X97046Y121875D01*
X97022D01*
X96999Y121852D01*
X96861Y121759D01*
X96629Y121667D01*
X96328Y121528D01*
X95981Y121412D01*
X95565Y121297D01*
X95125Y121227D01*
X94639Y121204D01*
X94616D01*
X94570D01*
X94477D01*
X94361Y121227D01*
X94199D01*
X94038Y121250D01*
X93644Y121343D01*
X93181Y121482D01*
X92695Y121667D01*
X92210Y121944D01*
X91978Y122129D01*
X91747Y122315D01*
X91723Y122338D01*
X91700Y122361D01*
X91631Y122430D01*
X91562Y122523D01*
X91469Y122639D01*
X91376Y122777D01*
X91261Y122963D01*
X91122Y123148D01*
X91006Y123379D01*
X90891Y123634D01*
X90752Y123911D01*
X90636Y124212D01*
X90543Y124559D01*
X90428Y124906D01*
X90358Y125300D01*
X90289Y125716D01*
X90266Y125670D01*
X90219Y125577D01*
X90127Y125438D01*
X90034Y125253D01*
X89780Y124837D01*
X89618Y124629D01*
X89479Y124443D01*
X89433Y124397D01*
X89317Y124282D01*
X89132Y124096D01*
X88900Y123865D01*
X88577Y123610D01*
X88230Y123310D01*
X87813Y123009D01*
X87350Y122685D01*
X83000Y119931D01*
Y122569D01*
X86332Y124675D01*
X86355D01*
X86402Y124721D01*
X86471Y124767D01*
X86564Y124837D01*
X86818Y124999D01*
X87142Y125207D01*
X87489Y125462D01*
X87859Y125716D01*
X88206Y125971D01*
X88530Y126202D01*
X88553Y126225D01*
X88646Y126295D01*
X88785Y126410D01*
X88947Y126572D01*
X89294Y126919D01*
X89456Y127105D01*
X89595Y127290D01*
X89618Y127313D01*
X89641Y127359D01*
X89687Y127452D01*
X89757Y127590D01*
X89826Y127729D01*
X89895Y127891D01*
X90011Y128261D01*
Y128285D01*
X90034Y128331D01*
Y128423D01*
X90057Y128539D01*
X90081Y128701D01*
Y128886D01*
X90104Y129141D01*
Y131871D01*
X83000D01*
Y134000D01*
X99012D01*
Y126572D01*
D02*
G37*
G36*
Y112018D02*
Y110421D01*
X88646D01*
Y108246D01*
X86841D01*
Y110421D01*
X83000D01*
Y112388D01*
X86841D01*
Y119353D01*
X88646D01*
X99012Y112018D01*
D02*
G37*
G36*
X172938Y87977D02*
X173123Y87954D01*
X173332Y87931D01*
X173563Y87884D01*
X173818Y87838D01*
X174373Y87699D01*
X174951Y87468D01*
X175252Y87329D01*
X175530Y87167D01*
X175807Y86959D01*
X176085Y86750D01*
X176108Y86727D01*
X176154Y86681D01*
X176224Y86612D01*
X176293Y86519D01*
X176409Y86403D01*
X176525Y86241D01*
X176664Y86079D01*
X176802Y85871D01*
X176941Y85640D01*
X177080Y85408D01*
X177335Y84853D01*
X177543Y84205D01*
X177612Y83858D01*
X177659Y83488D01*
X175692Y83233D01*
Y83256D01*
X175669Y83303D01*
X175646Y83395D01*
X175622Y83511D01*
X175599Y83650D01*
X175553Y83812D01*
X175437Y84159D01*
X175275Y84575D01*
X175067Y84969D01*
X174836Y85339D01*
X174558Y85663D01*
X174512Y85686D01*
X174419Y85779D01*
X174234Y85894D01*
X174003Y86010D01*
X173725Y86149D01*
X173378Y86264D01*
X172984Y86357D01*
X172568Y86380D01*
X172429D01*
X172337Y86357D01*
X172082Y86334D01*
X171758Y86264D01*
X171388Y86149D01*
X170994Y85987D01*
X170601Y85756D01*
X170231Y85431D01*
X170185Y85385D01*
X170069Y85246D01*
X169930Y85038D01*
X169745Y84761D01*
X169560Y84413D01*
X169421Y84020D01*
X169305Y83557D01*
X169259Y83048D01*
Y83025D01*
Y82979D01*
Y82909D01*
X169282Y82817D01*
X169305Y82562D01*
X169375Y82261D01*
X169467Y81891D01*
X169629Y81521D01*
X169861Y81151D01*
X170161Y80804D01*
X170208Y80757D01*
X170323Y80665D01*
X170508Y80526D01*
X170763Y80364D01*
X171087Y80202D01*
X171480Y80063D01*
X171920Y79971D01*
X172406Y79924D01*
X172614D01*
X172776Y79948D01*
X172984Y79971D01*
X173216Y80017D01*
X173493Y80063D01*
X173794Y80133D01*
X173563Y78397D01*
X173447D01*
X173355Y78420D01*
X173054D01*
X172799Y78374D01*
X172498Y78328D01*
X172151Y78258D01*
X171758Y78143D01*
X171388Y77981D01*
X170994Y77772D01*
X170971D01*
X170948Y77749D01*
X170833Y77657D01*
X170671Y77495D01*
X170485Y77287D01*
X170300Y76986D01*
X170138Y76639D01*
X170023Y76245D01*
X169976Y76014D01*
Y75759D01*
Y75736D01*
Y75713D01*
Y75574D01*
X170023Y75389D01*
X170069Y75135D01*
X170161Y74857D01*
X170277Y74556D01*
X170462Y74255D01*
X170717Y73977D01*
X170740Y73954D01*
X170856Y73862D01*
X171018Y73746D01*
X171226Y73607D01*
X171504Y73492D01*
X171828Y73376D01*
X172198Y73283D01*
X172614Y73260D01*
X172799D01*
X173008Y73306D01*
X173285Y73353D01*
X173586Y73445D01*
X173887Y73561D01*
X174211Y73746D01*
X174512Y73977D01*
X174535Y74001D01*
X174627Y74116D01*
X174766Y74278D01*
X174928Y74510D01*
X175090Y74811D01*
X175252Y75181D01*
X175391Y75620D01*
X175483Y76129D01*
X177450Y75782D01*
Y75759D01*
X177427Y75690D01*
X177404Y75597D01*
X177381Y75458D01*
X177335Y75297D01*
X177265Y75111D01*
X177126Y74672D01*
X176895Y74163D01*
X176617Y73654D01*
X176270Y73168D01*
X175831Y72728D01*
X175807Y72705D01*
X175761Y72682D01*
X175692Y72635D01*
X175599Y72566D01*
X175483Y72474D01*
X175322Y72381D01*
X175159Y72288D01*
X174951Y72173D01*
X174489Y71988D01*
X173956Y71802D01*
X173332Y71687D01*
X173008Y71640D01*
X172429D01*
X172175Y71664D01*
X171874Y71710D01*
X171504Y71779D01*
X171087Y71895D01*
X170671Y72034D01*
X170254Y72219D01*
X170231D01*
X170208Y72242D01*
X170069Y72312D01*
X169861Y72450D01*
X169629Y72612D01*
X169352Y72844D01*
X169074Y73098D01*
X168796Y73399D01*
X168565Y73746D01*
X168542Y73792D01*
X168472Y73908D01*
X168380Y74116D01*
X168264Y74371D01*
X168148Y74672D01*
X168056Y75019D01*
X167986Y75412D01*
X167963Y75806D01*
Y75852D01*
Y75991D01*
X167986Y76176D01*
X168033Y76430D01*
X168102Y76731D01*
X168218Y77055D01*
X168357Y77379D01*
X168542Y77703D01*
X168565Y77749D01*
X168634Y77842D01*
X168773Y78004D01*
X168958Y78189D01*
X169190Y78397D01*
X169467Y78629D01*
X169791Y78837D01*
X170185Y79045D01*
X170161D01*
X170115Y79068D01*
X170046Y79091D01*
X169953Y79114D01*
X169699Y79207D01*
X169375Y79346D01*
X169004Y79531D01*
X168634Y79762D01*
X168287Y80063D01*
X167963Y80410D01*
X167940Y80457D01*
X167847Y80595D01*
X167709Y80827D01*
X167570Y81128D01*
X167431Y81498D01*
X167292Y81938D01*
X167200Y82446D01*
X167176Y83002D01*
Y83025D01*
Y83094D01*
Y83210D01*
X167200Y83349D01*
X167223Y83534D01*
X167269Y83742D01*
X167315Y83974D01*
X167362Y84228D01*
X167547Y84784D01*
X167686Y85084D01*
X167824Y85362D01*
X168009Y85663D01*
X168218Y85964D01*
X168449Y86264D01*
X168727Y86542D01*
X168750Y86565D01*
X168796Y86612D01*
X168889Y86681D01*
X169004Y86774D01*
X169143Y86889D01*
X169328Y87005D01*
X169537Y87144D01*
X169791Y87260D01*
X170046Y87398D01*
X170347Y87537D01*
X170647Y87653D01*
X170994Y87769D01*
X171365Y87861D01*
X171758Y87931D01*
X172151Y87977D01*
X172591Y88000D01*
X172799D01*
X172938Y87977D01*
D02*
G37*
G36*
X193000Y71710D02*
X185572D01*
X185387Y71733D01*
X185179D01*
X184693Y71756D01*
X184184Y71826D01*
X183629Y71895D01*
X183120Y72011D01*
X182865Y72080D01*
X182657Y72150D01*
X182634D01*
X182610Y72173D01*
X182472Y72242D01*
X182263Y72335D01*
X182009Y72497D01*
X181731Y72705D01*
X181430Y72983D01*
X181153Y73306D01*
X180875Y73677D01*
Y73700D01*
X180852Y73723D01*
X180759Y73862D01*
X180667Y74093D01*
X180528Y74394D01*
X180412Y74741D01*
X180296Y75158D01*
X180227Y75597D01*
X180204Y76083D01*
Y76106D01*
Y76153D01*
Y76245D01*
X180227Y76361D01*
Y76523D01*
X180250Y76685D01*
X180343Y77078D01*
X180482Y77541D01*
X180667Y78027D01*
X180944Y78513D01*
X181129Y78744D01*
X181315Y78976D01*
X181338Y78999D01*
X181361Y79022D01*
X181430Y79091D01*
X181523Y79161D01*
X181639Y79253D01*
X181777Y79346D01*
X181963Y79462D01*
X182148Y79600D01*
X182379Y79716D01*
X182634Y79832D01*
X182911Y79971D01*
X183212Y80086D01*
X183559Y80179D01*
X183906Y80295D01*
X184300Y80364D01*
X184716Y80433D01*
X184670Y80457D01*
X184577Y80503D01*
X184438Y80595D01*
X184253Y80688D01*
X183837Y80942D01*
X183629Y81104D01*
X183443Y81243D01*
X183397Y81290D01*
X183281Y81405D01*
X183096Y81590D01*
X182865Y81822D01*
X182610Y82146D01*
X182310Y82493D01*
X182009Y82909D01*
X181685Y83372D01*
X178931Y87722D01*
X181569D01*
X183675Y84390D01*
Y84367D01*
X183721Y84321D01*
X183767Y84251D01*
X183837Y84159D01*
X183999Y83904D01*
X184207Y83580D01*
X184462Y83233D01*
X184716Y82863D01*
X184971Y82516D01*
X185202Y82192D01*
X185225Y82169D01*
X185295Y82076D01*
X185410Y81938D01*
X185572Y81776D01*
X185919Y81428D01*
X186105Y81266D01*
X186290Y81128D01*
X186313Y81104D01*
X186359Y81081D01*
X186452Y81035D01*
X186590Y80966D01*
X186729Y80896D01*
X186891Y80827D01*
X187261Y80711D01*
X187285D01*
X187331Y80688D01*
X187423D01*
X187539Y80665D01*
X187701Y80642D01*
X187886D01*
X188141Y80618D01*
X190871D01*
Y87722D01*
X193000D01*
Y71710D01*
D02*
G37*
%LPC*%
G36*
X184173Y139231D02*
X179129D01*
Y133932D01*
X183895D01*
X184173Y133955D01*
X184497Y133978D01*
X184867Y134001D01*
X185238Y134047D01*
X185608Y134117D01*
X185932Y134209D01*
X185978Y134233D01*
X186071Y134279D01*
X186210Y134348D01*
X186395Y134441D01*
X186603Y134580D01*
X186811Y134742D01*
X187019Y134950D01*
X187181Y135181D01*
X187204Y135204D01*
X187251Y135297D01*
X187320Y135436D01*
X187413Y135621D01*
X187482Y135829D01*
X187551Y136061D01*
X187598Y136338D01*
X187621Y136616D01*
Y136639D01*
Y136662D01*
X187598Y136801D01*
X187575Y137009D01*
X187528Y137287D01*
X187413Y137565D01*
X187274Y137889D01*
X187066Y138189D01*
X186788Y138490D01*
X186742Y138513D01*
X186626Y138606D01*
X186441Y138722D01*
X186140Y138861D01*
X185793Y138999D01*
X185330Y139115D01*
X184798Y139208D01*
X184173Y139231D01*
D02*
G37*
G36*
X159173Y129508D02*
X154129D01*
Y124209D01*
X158896D01*
X159173Y124233D01*
X159497Y124256D01*
X159867Y124279D01*
X160238Y124325D01*
X160608Y124395D01*
X160932Y124487D01*
X160978Y124510D01*
X161071Y124557D01*
X161210Y124626D01*
X161395Y124719D01*
X161603Y124857D01*
X161811Y125019D01*
X162019Y125228D01*
X162181Y125459D01*
X162204Y125482D01*
X162251Y125575D01*
X162320Y125714D01*
X162413Y125899D01*
X162482Y126107D01*
X162552Y126338D01*
X162598Y126616D01*
X162621Y126894D01*
Y126917D01*
Y126940D01*
X162598Y127079D01*
X162575Y127287D01*
X162528Y127565D01*
X162413Y127842D01*
X162274Y128166D01*
X162066Y128467D01*
X161788Y128768D01*
X161742Y128791D01*
X161626Y128884D01*
X161441Y128999D01*
X161140Y129138D01*
X160793Y129277D01*
X160330Y129393D01*
X159798Y129485D01*
X159173Y129508D01*
D02*
G37*
G36*
X249173Y140231D02*
X244129D01*
Y134932D01*
X248895D01*
X249173Y134955D01*
X249497Y134978D01*
X249867Y135001D01*
X250238Y135048D01*
X250608Y135117D01*
X250932Y135210D01*
X250978Y135233D01*
X251071Y135279D01*
X251210Y135348D01*
X251395Y135441D01*
X251603Y135580D01*
X251811Y135742D01*
X252019Y135950D01*
X252181Y136181D01*
X252204Y136205D01*
X252251Y136297D01*
X252320Y136436D01*
X252413Y136621D01*
X252482Y136829D01*
X252552Y137061D01*
X252598Y137338D01*
X252621Y137616D01*
Y137639D01*
Y137662D01*
X252598Y137801D01*
X252575Y138009D01*
X252528Y138287D01*
X252413Y138565D01*
X252274Y138889D01*
X252066Y139190D01*
X251788Y139490D01*
X251742Y139513D01*
X251626Y139606D01*
X251441Y139722D01*
X251140Y139860D01*
X250793Y139999D01*
X250330Y140115D01*
X249798Y140208D01*
X249173Y140231D01*
D02*
G37*
G36*
X97231Y131871D02*
X91932D01*
Y127105D01*
X91955Y126827D01*
X91978Y126503D01*
X92001Y126133D01*
X92048Y125762D01*
X92117Y125392D01*
X92210Y125068D01*
X92233Y125022D01*
X92279Y124929D01*
X92348Y124790D01*
X92441Y124605D01*
X92580Y124397D01*
X92742Y124189D01*
X92950Y123981D01*
X93181Y123819D01*
X93204Y123795D01*
X93297Y123749D01*
X93436Y123680D01*
X93621Y123587D01*
X93829Y123518D01*
X94061Y123448D01*
X94338Y123402D01*
X94616Y123379D01*
X94639D01*
X94662D01*
X94801Y123402D01*
X95009Y123425D01*
X95287Y123472D01*
X95565Y123587D01*
X95889Y123726D01*
X96189Y123934D01*
X96490Y124212D01*
X96513Y124258D01*
X96606Y124374D01*
X96722Y124559D01*
X96861Y124860D01*
X96999Y125207D01*
X97115Y125670D01*
X97208Y126202D01*
X97231Y126827D01*
Y131871D01*
D02*
G37*
G36*
X88646Y117432D02*
Y112388D01*
X95819D01*
X88646Y117432D01*
D02*
G37*
G36*
X190871Y78790D02*
X186105D01*
X185827Y78767D01*
X185503Y78744D01*
X185133Y78721D01*
X184762Y78675D01*
X184392Y78605D01*
X184068Y78513D01*
X184022Y78490D01*
X183929Y78443D01*
X183790Y78374D01*
X183605Y78281D01*
X183397Y78143D01*
X183189Y77981D01*
X182981Y77772D01*
X182819Y77541D01*
X182796Y77518D01*
X182749Y77425D01*
X182680Y77287D01*
X182587Y77101D01*
X182518Y76893D01*
X182449Y76662D01*
X182402Y76384D01*
X182379Y76106D01*
Y76083D01*
Y76060D01*
X182402Y75921D01*
X182425Y75713D01*
X182472Y75435D01*
X182587Y75158D01*
X182726Y74834D01*
X182934Y74533D01*
X183212Y74232D01*
X183258Y74209D01*
X183374Y74116D01*
X183559Y74001D01*
X183860Y73862D01*
X184207Y73723D01*
X184670Y73607D01*
X185202Y73515D01*
X185827Y73492D01*
X190871D01*
Y78790D01*
D02*
G37*
%LPD*%
D11*
X261000Y146000D02*
Y221000D01*
Y244000D01*
Y251000D01*
X203000D02*
X261000D01*
X172000D02*
X203000D01*
X172000Y154000D02*
Y251000D01*
Y146000D02*
Y154000D01*
Y146000D02*
X241000D01*
X261000D01*
X-6000Y147000D02*
X19000D01*
X-6000Y53000D02*
Y147000D01*
Y53000D02*
X72000D01*
Y147000D01*
X19000D02*
X72000D01*
D12*
X148000Y116000D02*
Y130000D01*
Y116000D02*
X170000D01*
Y130000D01*
X148000D02*
X170000D01*
X173000Y126000D02*
Y140000D01*
Y126000D02*
X195000D01*
Y140000D01*
X173000D02*
X195000D01*
X238000Y127000D02*
Y141000D01*
Y127000D02*
X260000D01*
Y141000D01*
X238000D02*
X260000D01*
X271500Y90500D02*
Y140500D01*
X296500D01*
Y90500D02*
Y140500D01*
X271500Y90500D02*
X296500D01*
X84000Y138000D02*
X98000D01*
X84000Y116000D02*
Y138000D01*
Y116000D02*
X98000D01*
Y138000D01*
X22030Y153380D02*
Y168620D01*
X46160Y153380D02*
X49970D01*
Y168620D01*
X18250D02*
X49970D01*
X18250Y153380D02*
Y168620D01*
Y153380D02*
X49970D01*
X197000Y73000D02*
Y87000D01*
X175000D02*
X197000D01*
X175000Y73000D02*
Y87000D01*
Y73000D02*
X197000D01*
D13*
X279963Y104038D02*
Y101039D01*
Y102538D01*
X287460D01*
X288960Y101039D01*
Y99539D01*
X287460Y98040D01*
X288960Y113035D02*
Y107037D01*
X282962Y113035D01*
X281462D01*
X279963Y111536D01*
Y108537D01*
X281462Y107037D01*
X47430Y157083D02*
Y166080D01*
X42931D01*
X41432Y164580D01*
Y158582D01*
X42931Y157083D01*
X47430D01*
X32435Y166080D02*
X38433D01*
X32435Y160082D01*
Y158582D01*
X33934Y157083D01*
X36933D01*
X38433Y158582D01*
M02*
