G04*
G04 #@! TF.GenerationSoftware,Altium Limited,Altium Designer,21.6.4 (81)*
G04*
G04 Layer_Color=16711935*
%FSLAX44Y44*%
%MOMM*%
G71*
G04*
G04 #@! TF.SameCoordinates,8A05593B-3552-4C3B-B2EF-5CC55372FEEF*
G04*
G04*
G04 #@! TF.FilePolarity,Positive*
G04*
G01*
G75*
%ADD11C,0.1000*%
%ADD13C,0.2540*%
D11*
X147000Y102000D02*
G03*
X147000Y102000I-4000J0D01*
G01*
X137000Y70500D02*
Y81500D01*
X131000Y70500D02*
Y81500D01*
X137000D01*
X131000Y70500D02*
X137000D01*
X153500Y120000D02*
X164500D01*
X153500Y126000D02*
X164500D01*
Y120000D02*
Y126000D01*
X153500Y120000D02*
Y126000D01*
X178500Y130000D02*
X189500D01*
X178500Y136000D02*
X189500D01*
Y130000D02*
Y136000D01*
X178500Y130000D02*
Y136000D01*
X201500Y128150D02*
X232500D01*
X201500Y113850D02*
X232500D01*
Y128150D01*
X201500Y113850D02*
Y128150D01*
X211850Y97500D02*
X226150D01*
X211850Y66500D02*
X226150D01*
X211850D02*
Y97500D01*
X226150Y66500D02*
Y97500D01*
X243500Y131000D02*
X254500D01*
X243500Y137000D02*
X254500D01*
Y131000D02*
Y137000D01*
X243500Y131000D02*
Y137000D01*
X230000Y45500D02*
Y56500D01*
X236000Y45500D02*
Y56500D01*
X230000Y45500D02*
X236000D01*
X230000Y56500D02*
X236000D01*
X208000Y41500D02*
Y52500D01*
X202000Y41500D02*
Y52500D01*
X208000D01*
X202000Y41500D02*
X208000D01*
X173750Y38000D02*
X186250D01*
X173750Y58000D02*
X186250D01*
Y38000D02*
Y58000D01*
X173750Y38000D02*
Y58000D01*
X157000Y44500D02*
Y55500D01*
X151000Y44500D02*
Y55500D01*
X157000D01*
X151000Y44500D02*
X157000D01*
X145000D02*
Y55500D01*
X139000Y44500D02*
Y55500D01*
X145000D01*
X139000Y44500D02*
X145000D01*
X92500Y70000D02*
X103500D01*
X92500Y64000D02*
X103500D01*
X92500D02*
Y70000D01*
X103500Y64000D02*
Y70000D01*
X135000Y90000D02*
X165000D01*
X135000Y110000D02*
X165000D01*
Y90000D02*
Y110000D01*
X135000Y90000D02*
Y110000D01*
X123000Y95500D02*
Y106500D01*
X117000Y95500D02*
Y106500D01*
X123000D01*
X117000Y95500D02*
X123000D01*
X111000D02*
Y106500D01*
X105000Y95500D02*
Y106500D01*
X111000D01*
X105000Y95500D02*
X111000D01*
X94000D02*
Y106500D01*
X88000Y95500D02*
Y106500D01*
X94000D01*
X88000Y95500D02*
X94000D01*
X82000D02*
Y106500D01*
X76000Y95500D02*
Y106500D01*
X82000D01*
X76000Y95500D02*
X82000D01*
X88000Y121500D02*
Y132500D01*
X94000Y121500D02*
Y132500D01*
X88000Y121500D02*
X94000D01*
X88000Y132500D02*
X94000D01*
X27000Y165000D02*
X45000D01*
X27000Y157000D02*
X45000D01*
X27000D02*
Y165000D01*
X45000Y157000D02*
Y165000D01*
X180500Y83000D02*
X191500D01*
X180500Y77000D02*
X191500D01*
X180500D02*
Y83000D01*
X191500Y77000D02*
Y83000D01*
D13*
X253500Y31000D02*
Y71000D01*
X296000D01*
Y31000D02*
Y71000D01*
X253500Y31000D02*
X296000D01*
X78000Y46500D02*
X118000D01*
Y4000D02*
Y46500D01*
X78000Y4000D02*
X118000D01*
X78000D02*
Y46500D01*
M02*
