G04*
G04 #@! TF.GenerationSoftware,Altium Limited,Altium Designer,21.6.4 (81)*
G04*
G04 Layer_Physical_Order=1*
G04 Layer_Color=255*
%FSLAX44Y44*%
%MOMM*%
G71*
G04*
G04 #@! TF.SameCoordinates,8A05593B-3552-4C3B-B2EF-5CC55372FEEF*
G04*
G04*
G04 #@! TF.FilePolarity,Positive*
G04*
G01*
G75*
%ADD12C,0.2000*%
%ADD13C,0.2540*%
%ADD14R,0.7800X0.6000*%
%ADD15R,0.7000X0.7800*%
%ADD16R,0.5500X0.9500*%
%ADD17R,0.9500X0.5500*%
%ADD18R,1.5500X0.6000*%
%ADD19R,1.8000X1.2000*%
%ADD20R,0.8500X0.5000*%
%ADD21R,0.6000X1.5500*%
%ADD22R,1.2000X1.8000*%
%ADD23R,0.6000X0.7800*%
%ADD24R,1.6300X1.4300*%
%ADD25R,0.7000X0.3500*%
%ADD26R,0.7800X0.7000*%
%ADD27R,1.3000X0.4500*%
%ADD28R,0.9000X1.0000*%
%ADD49C,0.3580*%
%ADD50C,0.3000*%
%ADD51C,1.4000*%
%ADD52C,1.8000*%
%ADD53C,0.8000*%
%ADD54O,1.8000X1.1500*%
%ADD55O,2.0000X1.4000*%
%ADD56C,0.5000*%
G36*
X283774Y192442D02*
X286129Y191467D01*
X288249Y190051D01*
X290051Y188249D01*
X291467Y186129D01*
X292442Y183774D01*
X292940Y181274D01*
Y180000D01*
Y138645D01*
X291670Y138019D01*
X290203Y139144D01*
X287211Y140383D01*
X284000Y140806D01*
X280789Y140383D01*
X277797Y139144D01*
X275228Y137172D01*
X273256Y134603D01*
X272515Y132815D01*
X266400D01*
X266400Y132815D01*
X264711Y132479D01*
X263278Y131522D01*
X261213Y129457D01*
X260040Y129943D01*
Y140440D01*
X237960D01*
Y137865D01*
X231290D01*
Y140190D01*
X230415D01*
Y157000D01*
X230415Y157000D01*
X230079Y158689D01*
X229122Y160122D01*
X229122Y160122D01*
X223415Y165829D01*
Y185000D01*
X223079Y186689D01*
X222122Y188122D01*
X222122Y188122D01*
X218574Y191670D01*
X219100Y192940D01*
X281274D01*
X283774Y192442D01*
D02*
G37*
G36*
X183492Y191940D02*
X183463Y191670D01*
X183111Y189000D01*
X183465Y186311D01*
X184503Y183806D01*
X186154Y181654D01*
X188306Y180003D01*
X190811Y178965D01*
X193500Y178611D01*
X196189Y178965D01*
X198694Y180003D01*
X200846Y181654D01*
X202497Y183806D01*
X202820Y184585D01*
X213171D01*
X214585Y183171D01*
Y164000D01*
X214585Y164000D01*
X214921Y162311D01*
X215878Y160878D01*
X221585Y155171D01*
Y140190D01*
X220710D01*
Y125610D01*
X231290D01*
Y129035D01*
X237960D01*
Y127560D01*
X249585D01*
Y116829D01*
X246271Y113515D01*
X222290D01*
Y116390D01*
X211710D01*
Y113465D01*
X210390D01*
X209967Y113748D01*
X208000Y114139D01*
X206033Y113748D01*
X204366Y112634D01*
X203252Y110967D01*
X202861Y109000D01*
X203252Y107034D01*
X204366Y105366D01*
X206033Y104252D01*
X208000Y103861D01*
X209967Y104252D01*
X210440Y104569D01*
X211710Y104275D01*
Y101810D01*
X222290D01*
Y104685D01*
X248100D01*
X248100Y104685D01*
X249790Y105021D01*
X250369Y105408D01*
X251178Y104422D01*
X242171Y95415D01*
X238190D01*
Y96290D01*
X223610D01*
Y95415D01*
X198829D01*
X193415Y100829D01*
Y126560D01*
X195040D01*
Y128535D01*
X202710D01*
Y125610D01*
X213290D01*
Y140190D01*
X202710D01*
Y137365D01*
X195040D01*
Y139440D01*
X182960D01*
Y126560D01*
X184585D01*
Y99000D01*
X184585Y99000D01*
X184921Y97310D01*
X185878Y95878D01*
X193878Y87878D01*
X194130Y87710D01*
X193745Y86440D01*
X184496D01*
X184000Y86645D01*
X177344D01*
X176959Y87915D01*
X177634Y88366D01*
X178748Y90034D01*
X179139Y92000D01*
X178748Y93967D01*
X177634Y95634D01*
X175966Y96748D01*
X174000Y97139D01*
X172034Y96748D01*
X171810Y96598D01*
X170540Y96790D01*
Y96790D01*
X158460D01*
Y88645D01*
X141540D01*
Y93210D01*
Y103210D01*
Y111790D01*
X139645D01*
Y113000D01*
X139163Y114163D01*
X134163Y119163D01*
X133000Y119645D01*
X124682D01*
X118163Y126163D01*
X117000Y126645D01*
X97440D01*
Y138040D01*
X94415D01*
Y154000D01*
X94079Y155689D01*
X93122Y157122D01*
X86122Y164122D01*
X84690Y165079D01*
X83000Y165415D01*
X83000Y165415D01*
X51290D01*
Y168540D01*
X37210D01*
Y153460D01*
X51290D01*
Y156585D01*
X81171D01*
X85585Y152171D01*
Y138040D01*
X84560D01*
Y126645D01*
X83000D01*
X81837Y126163D01*
X79318Y123645D01*
X61000D01*
X59837Y123163D01*
X54837Y118163D01*
X54682Y117790D01*
X50960D01*
Y108210D01*
Y101710D01*
Y95210D01*
Y88710D01*
X69040D01*
Y95210D01*
Y105358D01*
X70310Y106037D01*
X70355Y106007D01*
Y103000D01*
X70837Y101837D01*
X72000Y101355D01*
X72560D01*
Y100460D01*
X97440D01*
Y101355D01*
X101560D01*
Y100460D01*
X126440D01*
X126532Y100369D01*
X126837Y99163D01*
X126355Y98000D01*
Y90681D01*
X122318Y86645D01*
X83000D01*
X81837Y86163D01*
X76837Y81163D01*
X76355Y80000D01*
Y41000D01*
X76837Y39837D01*
X79837Y36837D01*
X81000Y36355D01*
X95000D01*
X96163Y36837D01*
X96645Y38000D01*
Y39460D01*
X98540D01*
Y60040D01*
X98540D01*
Y60560D01*
X98540D01*
Y72355D01*
X122000D01*
X123163Y72837D01*
X126387Y76060D01*
X127560Y75574D01*
Y75460D01*
X140440D01*
X141355Y74602D01*
Y61645D01*
X137000D01*
X135837Y61163D01*
X135578Y60540D01*
X135560D01*
Y60496D01*
X135355Y60000D01*
Y52000D01*
X135560Y51505D01*
Y49460D01*
X160440D01*
Y50355D01*
X162710D01*
Y49460D01*
X176290D01*
Y59540D01*
X175422D01*
X175163Y60163D01*
X174000Y60645D01*
X160645D01*
Y73355D01*
X184000D01*
X184496Y73560D01*
X186585D01*
Y71464D01*
X186252Y70967D01*
X185861Y69000D01*
X186252Y67034D01*
X187366Y65366D01*
X189034Y64252D01*
X190084Y64043D01*
X190728Y63915D01*
X190603Y62645D01*
X187000D01*
X185837Y62163D01*
X185355Y61000D01*
Y59540D01*
X183710D01*
Y49460D01*
X186746D01*
X187000Y49355D01*
X197318D01*
X197837Y48837D01*
X198560Y48537D01*
Y46460D01*
X211440D01*
Y48355D01*
X213319D01*
X216355Y45318D01*
Y41000D01*
X216837Y39837D01*
X218000Y39355D01*
X262000D01*
X263163Y39837D01*
X263645Y41000D01*
Y48000D01*
X263163Y49163D01*
X262163Y50163D01*
X261000Y50645D01*
X260540D01*
Y51540D01*
X239960D01*
Y51540D01*
X239440D01*
Y51540D01*
X226787D01*
X226645Y51681D01*
Y59000D01*
X226163Y60163D01*
X224163Y62163D01*
X223000Y62645D01*
X191397D01*
X191271Y63915D01*
X191916Y64043D01*
X192966Y64252D01*
X194634Y65366D01*
X195748Y67034D01*
X196139Y69000D01*
X195748Y70967D01*
X195415Y71464D01*
Y73560D01*
X197040D01*
Y74593D01*
X198689Y74921D01*
X200122Y75878D01*
X200869Y76625D01*
X206140D01*
X206140Y76625D01*
X206567Y76710D01*
X214390D01*
Y86585D01*
X223610D01*
Y85710D01*
X238190D01*
Y86585D01*
X244000D01*
X244000Y86585D01*
X245690Y86921D01*
X247122Y87878D01*
X266122Y106878D01*
X266122Y106878D01*
X267079Y108310D01*
X267415Y110000D01*
Y123171D01*
X268229Y123985D01*
X272515D01*
X273256Y122197D01*
X275228Y119628D01*
X277797Y117656D01*
X280789Y116417D01*
X281367Y116341D01*
Y115059D01*
X280789Y114983D01*
X277797Y113744D01*
X275228Y111772D01*
X273256Y109203D01*
X272017Y106211D01*
X271812Y104656D01*
X271241D01*
X269551Y104320D01*
X268119Y103363D01*
X242171Y77415D01*
X238190D01*
Y78290D01*
X223610D01*
Y67710D01*
X238190D01*
Y68585D01*
X244000D01*
X244000Y68585D01*
X245690Y68921D01*
X247122Y69878D01*
X272846Y95603D01*
X274221Y95540D01*
X275228Y94228D01*
X277797Y92256D01*
X280789Y91017D01*
X284000Y90594D01*
X287211Y91017D01*
X290203Y92256D01*
X291670Y93381D01*
X292940Y92755D01*
Y77540D01*
X277460D01*
Y60460D01*
X292940D01*
Y41540D01*
X277460D01*
Y24460D01*
X292940D01*
Y18726D01*
X292442Y16226D01*
X291467Y13871D01*
X290051Y11751D01*
X288249Y9949D01*
X286129Y8533D01*
X283774Y7558D01*
X281275Y7060D01*
X124540D01*
Y22540D01*
X107460D01*
Y7060D01*
X88540D01*
Y22540D01*
X71460D01*
Y7060D01*
X18726D01*
X16226Y7558D01*
X13871Y8533D01*
X11751Y9949D01*
X9949Y11751D01*
X8533Y13871D01*
X7558Y16226D01*
X7060Y18726D01*
Y20000D01*
Y180000D01*
Y181275D01*
X7558Y183774D01*
X8533Y186129D01*
X9949Y188249D01*
X11751Y190051D01*
X13871Y191467D01*
X16226Y192442D01*
X18726Y192940D01*
X182692D01*
X183492Y191940D01*
D02*
G37*
G36*
X124000Y118000D02*
X133000D01*
X138000Y113000D01*
Y102000D01*
X128000D01*
X127000Y103000D01*
X72000D01*
Y108000D01*
X69040Y110960D01*
Y111290D01*
X56000D01*
Y117000D01*
X61000Y122000D01*
X80000D01*
X83000Y125000D01*
X117000D01*
X124000Y118000D01*
D02*
G37*
G36*
X139000Y87000D02*
X159000D01*
Y85000D01*
X184000D01*
Y75000D01*
X159000D01*
Y59000D01*
X174000D01*
Y53040D01*
X162710D01*
Y52000D01*
X137000D01*
Y60000D01*
X143000D01*
Y79000D01*
X127000D01*
X122000Y74000D01*
X96000D01*
X95000Y73000D01*
Y38000D01*
X81000D01*
X78000Y41000D01*
Y80000D01*
X83000Y85000D01*
X123000D01*
X128000Y90000D01*
Y98000D01*
X139000D01*
Y87000D01*
D02*
G37*
G36*
X225000Y59000D02*
Y51000D01*
X227000Y49000D01*
X261000D01*
X262000Y48000D01*
Y41000D01*
X218000D01*
Y46000D01*
X214000Y50000D01*
X199000D01*
X198000Y51000D01*
X187000D01*
Y61000D01*
X223000D01*
X225000Y59000D01*
D02*
G37*
%LPC*%
G36*
X28000Y178139D02*
X26033Y177748D01*
X24366Y176634D01*
X23252Y174967D01*
X22861Y173000D01*
X23252Y171033D01*
X23460Y170723D01*
Y168540D01*
X20710D01*
Y153460D01*
X34790D01*
Y168540D01*
X32290D01*
Y170348D01*
X32748Y171033D01*
X33139Y173000D01*
X32748Y174967D01*
X31634Y176634D01*
X29966Y177748D01*
X28000Y178139D01*
D02*
G37*
G36*
X170040Y129440D02*
X157960D01*
Y116560D01*
X160381D01*
Y111790D01*
X158460D01*
Y103210D01*
Y98210D01*
X170540D01*
Y103210D01*
Y111790D01*
X168619D01*
Y116560D01*
X170040D01*
Y129440D01*
D02*
G37*
G36*
X197290Y46540D02*
X183710D01*
Y36460D01*
X197290D01*
Y46540D01*
D02*
G37*
G36*
X176290D02*
X162710D01*
Y36460D01*
X163171D01*
X164098Y35190D01*
X163861Y34000D01*
X164252Y32034D01*
X165366Y30366D01*
X167034Y29252D01*
X169000Y28861D01*
X170966Y29252D01*
X172634Y30366D01*
X173748Y32034D01*
X174139Y34000D01*
X173902Y35190D01*
X174829Y36460D01*
X176290D01*
Y46540D01*
D02*
G37*
%LPD*%
D12*
X169000Y41000D02*
X169500Y41500D01*
X164750Y92250D02*
X173750D01*
X164500Y92500D02*
X164750Y92250D01*
X173750D02*
X174000Y92000D01*
D13*
X169000Y34000D02*
Y41000D01*
D14*
X134000Y81000D02*
D03*
Y71000D02*
D03*
X233000Y46000D02*
D03*
Y56000D02*
D03*
X205000Y52000D02*
D03*
Y42000D02*
D03*
X154000Y55000D02*
D03*
Y45000D02*
D03*
X142000Y55000D02*
D03*
Y45000D02*
D03*
X120000Y106000D02*
D03*
Y96000D02*
D03*
X108000Y106000D02*
D03*
Y96000D02*
D03*
X91000Y106000D02*
D03*
Y96000D02*
D03*
X79000Y106000D02*
D03*
Y96000D02*
D03*
D15*
X164000Y123000D02*
D03*
X154000D02*
D03*
X189000Y133000D02*
D03*
X179000D02*
D03*
X254000Y134000D02*
D03*
X244000D02*
D03*
X181000Y80000D02*
D03*
X191000D02*
D03*
D16*
X226000Y132900D02*
D03*
X208000D02*
D03*
X217000Y109100D02*
D03*
D17*
X207100Y82000D02*
D03*
X230900Y91000D02*
D03*
Y73000D02*
D03*
D18*
X250250Y46000D02*
D03*
Y56000D02*
D03*
D19*
X289000Y33000D02*
D03*
Y69000D02*
D03*
D20*
X190500Y54500D02*
D03*
Y41500D02*
D03*
X169500D02*
D03*
Y48000D02*
D03*
Y54500D02*
D03*
D21*
X93000Y49750D02*
D03*
X103000D02*
D03*
D22*
X80000Y11000D02*
D03*
X116000D02*
D03*
D23*
X93000Y67000D02*
D03*
X103000D02*
D03*
D24*
X150000Y100000D02*
D03*
D25*
X164500Y92500D02*
D03*
Y97500D02*
D03*
Y102500D02*
D03*
Y107500D02*
D03*
X135500Y92500D02*
D03*
Y97500D02*
D03*
Y102500D02*
D03*
Y107500D02*
D03*
D26*
X91000Y122000D02*
D03*
Y132000D02*
D03*
D27*
X60000Y87000D02*
D03*
X60000Y93500D02*
D03*
Y100000D02*
D03*
Y106500D02*
D03*
Y113000D02*
D03*
D28*
X27750Y161000D02*
D03*
X44250D02*
D03*
D49*
X191000Y78000D02*
X192000Y79000D01*
X191000Y69000D02*
Y78000D01*
X164000Y123000D02*
X164500Y122500D01*
X27750Y161000D02*
X27875Y161125D01*
Y172875D01*
X28000Y173000D01*
X90000Y133000D02*
X91000Y132000D01*
X90000Y133000D02*
Y154000D01*
X83000Y161000D02*
X90000Y154000D01*
X44250Y161000D02*
X83000D01*
X271241Y100241D02*
X281241D01*
X244000Y73000D02*
X271241Y100241D01*
X230900Y73000D02*
X244000D01*
X281241Y100241D02*
X284000Y103000D01*
X263000Y125000D02*
X266400Y128400D01*
X284000D01*
X263000Y110000D02*
Y125000D01*
X244000Y91000D02*
X263000Y110000D01*
X230900Y91000D02*
X244000D01*
X197000Y91000D02*
X230900D01*
X189000Y99000D02*
X197000Y91000D01*
X230900D02*
X230900Y91000D01*
X189000Y99000D02*
Y133000D01*
X208050Y109050D02*
X216950D01*
X208000Y109000D02*
X208050Y109050D01*
X216950D02*
X217000Y109100D01*
X219000Y164000D02*
X226000Y157000D01*
Y132900D02*
Y157000D01*
X219000Y164000D02*
Y185000D01*
X215000Y189000D02*
X219000Y185000D01*
X193500Y189000D02*
X215000D01*
X189050Y132950D02*
X207950D01*
X189000Y133000D02*
X189050Y132950D01*
X207950D02*
X208000Y132900D01*
X254000Y115000D02*
Y134000D01*
X254000Y134000D01*
X248100Y109100D02*
X254000Y115000D01*
X217000Y109100D02*
X248100D01*
X226550Y133450D02*
X243450D01*
X244000Y134000D01*
X226000Y132900D02*
X226550Y133450D01*
X192000Y79000D02*
X197000D01*
X206140Y81040D02*
X207100Y82000D01*
X199040Y81040D02*
X206140D01*
X197000Y79000D02*
X199040Y81040D01*
D50*
X164500Y107500D02*
Y122500D01*
D51*
X251000Y164000D02*
D03*
X181000D02*
D03*
X193500Y189000D02*
D03*
X238500D02*
D03*
D52*
X284000Y103000D02*
D03*
Y128400D02*
D03*
D53*
X49000Y75000D02*
D03*
Y125000D02*
D03*
D54*
X21500Y61250D02*
D03*
Y138750D02*
D03*
D55*
X59500Y62750D02*
D03*
Y137250D02*
D03*
D56*
X191000Y69000D02*
D03*
X265000Y59000D02*
D03*
X259000Y67000D02*
D03*
X271000D02*
D03*
X76000Y87000D02*
D03*
X28000Y173000D02*
D03*
X208000Y109000D02*
D03*
X169000Y34000D02*
D03*
X174000Y92000D02*
D03*
X92000Y77000D02*
D03*
M02*
