G04*
G04 #@! TF.GenerationSoftware,Altium Limited,Altium Designer,21.6.4 (81)*
G04*
G04 Layer_Color=8388736*
%FSLAX44Y44*%
%MOMM*%
G71*
G04*
G04 #@! TF.SameCoordinates,8A05593B-3552-4C3B-B2EF-5CC55372FEEF*
G04*
G04*
G04 #@! TF.FilePolarity,Positive*
G04*
G01*
G75*
%ADD11C,0.1000*%
%ADD57C,0.0500*%
D11*
X131000Y76000D02*
X137000D01*
X134000Y73000D02*
Y79000D01*
X159000Y120000D02*
Y126000D01*
X156000Y123000D02*
X162000D01*
X184000Y130000D02*
Y136000D01*
X181000Y133000D02*
X187000D01*
X217000Y116000D02*
Y126000D01*
X212000Y121000D02*
X222000D01*
X219000Y77000D02*
Y87000D01*
X214000Y82000D02*
X224000D01*
X249000Y131000D02*
Y137000D01*
X246000Y134000D02*
X252000D01*
X230000Y51000D02*
X236000D01*
X233000Y48000D02*
Y54000D01*
X202000Y47000D02*
X208000D01*
X205000Y44000D02*
Y50000D01*
X180000Y43000D02*
Y53000D01*
X175000Y48000D02*
X185000D01*
X151000Y50000D02*
X157000D01*
X154000Y47000D02*
Y53000D01*
X139000Y50000D02*
X145000D01*
X142000Y47000D02*
Y53000D01*
X98000Y64000D02*
Y70000D01*
X95000Y67000D02*
X101000D01*
X150000Y95000D02*
Y105000D01*
X145000Y100000D02*
X155000D01*
X117000Y101000D02*
X123000D01*
X120000Y98000D02*
Y104000D01*
X105000Y101000D02*
X111000D01*
X108000Y98000D02*
Y104000D01*
X88000Y101000D02*
X94000D01*
X91000Y98000D02*
Y104000D01*
X76000Y101000D02*
X82000D01*
X79000Y98000D02*
Y104000D01*
X88000Y127000D02*
X94000D01*
X91000Y124000D02*
Y130000D01*
X36000Y157000D02*
Y165000D01*
X32000Y161000D02*
X40000D01*
X186000Y77000D02*
Y83000D01*
X183000Y80000D02*
X189000D01*
D57*
X139500Y66500D02*
Y85500D01*
X128500Y66500D02*
Y85500D01*
X139500D01*
X128500Y66500D02*
X139500D01*
X150000Y117500D02*
X168000D01*
X150000Y128500D02*
X168000D01*
Y117500D02*
Y128500D01*
X150000Y117500D02*
Y128500D01*
X175000Y127500D02*
X193000D01*
X175000Y138500D02*
X193000D01*
Y127500D02*
Y138500D01*
X175000Y127500D02*
Y138500D01*
X199000Y140250D02*
X235000D01*
X199000Y101750D02*
X235000D01*
Y140250D01*
X199000Y101750D02*
Y140250D01*
X199750Y100000D02*
X238250D01*
X199750Y64000D02*
X238250D01*
X199750D02*
Y100000D01*
X238250Y64000D02*
Y100000D01*
X240000Y128500D02*
X258000D01*
X240000Y139500D02*
X258000D01*
Y128500D02*
Y139500D01*
X240000Y128500D02*
Y139500D01*
X227500Y41500D02*
Y60500D01*
X238500Y41500D02*
Y60500D01*
X227500Y41500D02*
X238500D01*
X227500Y60500D02*
X238500D01*
X210500Y37500D02*
Y56500D01*
X199500Y37500D02*
Y56500D01*
X210500D01*
X199500Y37500D02*
X210500D01*
X162750Y35500D02*
X197250D01*
X162750Y60500D02*
X197250D01*
Y35500D02*
Y60500D01*
X162750Y35500D02*
Y60500D01*
X159500Y40500D02*
Y59500D01*
X148500Y40500D02*
Y59500D01*
X159500D01*
X148500Y40500D02*
X159500D01*
X147500D02*
Y59500D01*
X136500Y40500D02*
Y59500D01*
X147500D01*
X136500Y40500D02*
X147500D01*
X88500Y72500D02*
X107500D01*
X88500Y61500D02*
X107500D01*
X88500D02*
Y72500D01*
X107500Y61500D02*
Y72500D01*
X132150Y87500D02*
X167850D01*
X132150Y112500D02*
X167850D01*
Y87500D02*
Y112500D01*
X132150Y87500D02*
Y112500D01*
X125500Y91500D02*
Y110500D01*
X114500Y91500D02*
Y110500D01*
X125500D01*
X114500Y91500D02*
X125500D01*
X113500D02*
Y110500D01*
X102500Y91500D02*
Y110500D01*
X113500D01*
X102500Y91500D02*
X113500D01*
X96500D02*
Y110500D01*
X85500Y91500D02*
Y110500D01*
X96500D01*
X85500Y91500D02*
X96500D01*
X84500D02*
Y110500D01*
X73500Y91500D02*
Y110500D01*
X84500D01*
X73500Y91500D02*
X84500D01*
X85500Y118000D02*
Y136000D01*
X96500Y118000D02*
Y136000D01*
X85500Y118000D02*
X96500D01*
X85500Y136000D02*
X96500D01*
X22000Y168500D02*
X50000D01*
X22000Y153500D02*
X50000D01*
X22000D02*
Y168500D01*
X50000Y153500D02*
Y168500D01*
X177000Y85500D02*
X195000D01*
X177000Y74500D02*
X195000D01*
X177000D02*
Y85500D01*
X195000Y74500D02*
Y85500D01*
M02*
